<svg preserveAspectRatio="none" width="100%" height="100%" overflow="visible" style="display: block;" viewBox="0 0 58.0029 58.0002" fill="none" xmlns="http://www.w3.org/2000/svg">
<g id="Group 281">
<path id="Vector" d="M19.9417 9.43516C20.0618 9.43442 20.0618 9.43442 20.1843 9.43366C20.454 9.43215 20.7236 9.43145 20.9933 9.43076C21.1861 9.42987 21.3789 9.42894 21.5717 9.42796C22.206 9.425 22.8403 9.42327 23.4746 9.42166C23.6927 9.42105 23.9109 9.42045 24.129 9.41984C25.0363 9.41739 25.9436 9.41528 26.8509 9.414C28.1522 9.41217 29.4535 9.40842 30.7548 9.40198C31.6692 9.39761 32.5836 9.3954 33.4981 9.39481C34.0445 9.39439 34.5909 9.39303 35.1373 9.38937C35.6514 9.38598 36.1654 9.38526 36.6794 9.38659C36.8681 9.38662 37.0568 9.38567 37.2455 9.38369C37.5031 9.38113 37.7605 9.38206 38.0182 9.38386C38.1623 9.38349 38.3065 9.38311 38.455 9.38273C38.9306 9.47108 39.0946 9.64776 39.3958 10.0175C39.5259 10.2749 39.5259 10.2749 39.611 10.5427C39.6611 10.6963 39.6611 10.6963 39.7123 10.853C39.7465 10.9641 39.7807 11.0752 39.816 11.1897C39.8538 11.3077 39.8917 11.4258 39.9306 11.5475C40.0558 11.9407 40.178 12.3347 40.2997 12.729C40.3427 12.8672 40.3856 13.0054 40.4299 13.1478C40.7253 14.0991 41.0158 15.0519 41.3045 16.0053C41.4209 16.3896 41.5378 16.7737 41.6546 17.1579C41.8813 17.9035 42.1075 18.6492 42.3334 19.395C42.3974 19.3951 42.4613 19.3951 42.5272 19.3952C44.0891 19.3969 45.6509 19.4018 47.2128 19.4099C47.9681 19.4139 48.7234 19.4167 49.4788 19.4171C50.2084 19.4176 50.938 19.4208 51.6677 19.4259C51.9453 19.4274 52.223 19.4279 52.5006 19.4274C55.6601 19.4228 55.6601 19.4228 56.9011 20.5319C57.7652 21.5011 58.0099 22.5656 57.9967 23.8348C57.9976 23.9679 57.9985 24.1009 57.9994 24.238C58.0012 24.6034 58.0006 24.9686 57.9988 25.334C57.9975 25.7296 57.9995 26.1251 58.0011 26.5207C58.0036 27.294 58.0031 28.0673 58.0014 28.8406C58.0001 29.4694 58 30.0983 58.0006 30.7271C58.0007 30.8617 58.0007 30.8617 58.0008 30.9991C58.001 31.1814 58.0012 31.3637 58.0014 31.546C58.003 33.253 58.0012 34.96 57.9981 36.667C57.9956 38.1295 57.996 39.5921 57.9986 41.0546C58.0017 42.7558 58.0028 44.4569 58.0011 46.1581C58.0009 46.3397 58.0008 46.5213 58.0006 46.703C58.0005 46.837 58.0005 46.837 58.0003 46.9737C57.9998 47.6013 58.0006 48.2289 58.002 48.8566C58.0036 49.6221 58.0031 50.3876 58.0001 51.1532C57.9987 51.5433 57.9981 51.9334 57.9999 52.3235C58.0015 52.7475 57.9995 53.1713 57.9967 53.5953C57.998 53.7171 57.9992 53.8388 58.0005 53.9642C57.9862 55.0818 57.6627 56.0642 56.9011 56.8982C55.7003 57.9831 54.3875 58.004 52.8605 57.9938C52.6459 57.9945 52.4313 57.9954 52.2167 57.9965C51.6298 57.9989 51.043 57.9977 50.4561 57.9959C49.8221 57.9947 49.1881 57.9966 48.5541 57.9982C47.3131 58.0007 46.0722 58.0002 44.8313 57.9985C43.8226 57.9973 42.8139 57.9971 41.8052 57.9977C41.5897 57.9978 41.5897 57.9978 41.3698 57.998C41.078 57.9981 40.7861 57.9983 40.4942 57.9985C37.8365 58.0001 35.1788 57.9984 32.5211 57.9955C30.0967 57.9928 27.6724 57.993 25.2481 57.9957C22.5221 57.9988 19.7961 58 17.07 57.9982C16.7793 57.998 16.4885 57.9979 16.1977 57.9977C16.0546 57.9976 15.9116 57.9975 15.7642 57.9974C14.7569 57.9969 13.7496 57.9978 12.7424 57.9991C11.5145 58.0007 10.2867 58.0002 9.05886 57.9972C8.43262 57.9958 7.80641 57.9952 7.18017 57.997C6.60645 57.9987 6.0328 57.9978 5.45909 57.9948C5.252 57.9942 5.0449 57.9945 4.83782 57.9959C3.41271 58.0046 2.21206 57.9014 1.1018 56.8982C0.230157 55.9437 -0.00687043 54.8543 0.00616258 53.5953C0.00484069 53.3957 0.00484073 53.3957 0.00349214 53.1921C0.00164299 52.8267 0.00228862 52.4615 0.00404898 52.0961C0.00533599 51.7006 0.00335017 51.305 0.00180092 50.9094C-0.000702193 50.1361 -0.000171642 49.3628 0.00146991 48.5895C0.00274921 47.9607 0.00291598 47.3318 0.0023026 46.703C0.00221603 46.6132 0.00212974 46.5235 0.00204055 46.431C0.00185992 46.2487 0.00167625 46.0664 0.0014906 45.8841C-0.000117681 44.1771 0.00172838 42.4701 0.00476788 40.7631C0.00729155 39.3006 0.00685319 37.8381 0.00424897 36.3755C0.00122123 34.6744 3.77454e-05 32.9732 0.00176989 31.272C0.00194983 31.0904 0.00212738 30.9088 0.0023026 30.7271C0.00238975 30.6378 0.00247657 30.5484 0.00256636 30.4564C0.00305275 29.8288 0.002235 29.2012 0.000902725 28.5736C-0.000686759 27.808 -0.000242354 27.0425 0.002756 26.2769C0.00423386 25.8868 0.0048339 25.4967 0.00295426 25.1066C0.00140349 24.6826 0.00335477 24.2588 0.00616258 23.8348C0.00490242 23.713 0.00364232 23.5913 0.00234397 23.4659C0.0167541 22.3389 0.347181 21.3797 1.1018 20.5319C2.05845 19.6594 3.00292 19.469 4.25825 19.508C4.25648 19.4334 4.2547 19.3589 4.25287 19.282C4.24578 18.9407 4.24141 18.5995 4.23707 18.2581C4.23423 18.1408 4.23139 18.0235 4.22846 17.9026C4.22195 17.2191 4.24999 16.715 4.5972 16.1185C4.99783 15.8514 5.1747 15.8618 5.65018 15.8562C5.79762 15.854 5.94507 15.8518 6.09698 15.8496C6.25818 15.8485 6.41938 15.8475 6.58058 15.8467C6.74592 15.8454 6.91127 15.8441 7.07662 15.8428C7.42328 15.8404 7.76993 15.8391 8.1166 15.8383C8.56027 15.837 9.00378 15.8316 9.44741 15.8252C9.78898 15.821 10.1305 15.8198 10.4721 15.8194C10.6356 15.8188 10.7992 15.817 10.9627 15.814C12.2201 15.7928 12.2201 15.7928 12.62 16.0236C12.9691 16.3985 13.0253 16.7854 13.0131 17.2792C13.0113 17.4096 13.0094 17.5399 13.0076 17.6742C13.0028 17.8087 12.9981 17.9431 12.9932 18.0816C12.9907 18.2187 12.9881 18.3557 12.9855 18.4969C12.9789 18.834 12.9687 19.171 12.9579 19.508C13.8527 19.4707 14.7476 19.4334 15.6695 19.395C15.7527 19.1213 15.8359 18.8477 15.9216 18.5657C16.197 17.6603 16.4737 16.7553 16.7509 15.8505C16.9189 15.302 17.0865 14.7534 17.2532 14.2046C17.4141 13.6746 17.5761 13.145 17.7389 12.6156C17.8007 12.4138 17.8621 12.212 17.9232 12.0099C18.0089 11.7265 18.096 11.4434 18.1835 11.1605C18.2083 11.0773 18.233 10.9942 18.2586 10.9085C18.4196 10.3941 18.6176 9.99513 18.946 9.56554C19.2775 9.39979 19.5714 9.43678 19.9417 9.43516ZM20.5277 11.7122C18.9407 15.5496 18.9407 15.5496 18.1551 19.508C25.3137 19.508 32.4723 19.508 39.8478 19.508C39.0617 16.9079 38.274 14.3084 37.4751 11.7122C31.8825 11.7122 26.2899 11.7122 20.5277 11.7122ZM6.63089 18.1522C6.63089 18.5996 6.63089 19.047 6.63089 19.508C7.93584 19.508 9.24079 19.508 10.5853 19.508C10.5853 19.0606 10.5853 18.6132 10.5853 18.1522C9.28033 18.1522 7.97538 18.1522 6.63089 18.1522ZM2.90688 22.1688C2.85415 22.2345 2.80143 22.3002 2.74711 22.3679C2.66541 22.4651 2.66541 22.4651 2.58205 22.5643C2.33601 22.9763 2.32342 23.4259 2.32302 23.8967C2.32265 24.0043 2.32229 24.112 2.32191 24.223C2.32209 24.3404 2.32226 24.4578 2.32244 24.5787C2.32219 24.7041 2.32193 24.8295 2.32167 24.9588C2.32095 25.3799 2.32104 25.8009 2.32114 26.222C2.3208 26.5236 2.32042 26.8252 2.31999 27.1267C2.31905 27.8614 2.31874 28.596 2.31868 29.3306C2.31862 29.9278 2.31839 30.5249 2.31803 31.1221C2.31704 32.8153 2.31651 34.5086 2.3166 36.2018C2.3166 36.2931 2.31661 36.3844 2.31661 36.4784C2.31662 36.5698 2.31662 36.6612 2.31663 36.7553C2.31667 38.2364 2.31559 39.7175 2.314 41.1986C2.31238 42.7196 2.3116 44.2406 2.31169 45.7615C2.31173 46.6154 2.31142 47.4692 2.31021 48.323C2.30918 49.05 2.30893 49.7769 2.3097 50.5038C2.31007 50.8746 2.30995 51.2454 2.30909 51.6162C2.30822 52.0184 2.30874 52.4205 2.30962 52.8227C2.30903 52.9396 2.30845 53.0565 2.30786 53.1769C2.30591 54.196 2.30591 54.196 2.73873 55.0931C2.80441 55.1458 2.87009 55.1986 2.93777 55.2529C3.00258 55.3074 3.06739 55.3618 3.13416 55.4179C3.62235 55.7095 4.17071 55.6765 4.72461 55.6764C4.84491 55.6765 4.84491 55.6765 4.96763 55.6767C5.23704 55.677 5.50645 55.6765 5.77586 55.676C5.97068 55.6761 6.1655 55.6762 6.36033 55.6763C6.89622 55.6766 7.43211 55.6761 7.96801 55.6756C8.5457 55.6751 9.1234 55.6752 9.70109 55.6753C10.7022 55.6754 11.7032 55.675 12.7043 55.6744C14.1517 55.6735 15.5991 55.6732 17.0465 55.673C19.3947 55.6728 21.7429 55.672 24.0911 55.671C26.3724 55.6699 28.6536 55.6691 30.9349 55.6687C31.0755 55.6686 31.2161 55.6686 31.3609 55.6686C32.0662 55.6684 32.7714 55.6683 33.4766 55.6681C39.3288 55.667 45.1809 55.665 51.0331 55.6624C51.034 55.5637 51.0349 55.465 51.0358 55.3632C51.0446 54.4307 51.0545 53.4982 51.0655 52.5657C51.0712 52.0863 51.0764 51.607 51.0807 51.1276C51.0849 50.6646 51.0901 50.2016 51.0961 49.7387C51.0982 49.5624 51.0999 49.3862 51.1012 49.2099C51.1031 48.9622 51.1064 48.7145 51.11 48.4668C51.1115 48.3261 51.113 48.1853 51.1146 48.0403C51.1482 47.6127 51.221 47.2515 51.372 46.8498C51.6745 46.749 51.891 46.7084 52.2052 46.6945C52.29 46.6889 52.3748 46.6834 52.4621 46.6777C52.8716 46.7688 53.0304 46.9811 53.2927 47.3017C53.3649 47.6871 53.3649 47.6871 53.3672 48.1334C53.3684 48.215 53.3696 48.2966 53.3708 48.3807C53.374 48.6491 53.3733 48.9174 53.3726 49.1858C53.3741 49.3725 53.3758 49.5591 53.3778 49.7457C53.3823 50.2359 53.3834 50.726 53.3839 51.2162C53.3849 51.7169 53.3891 52.2175 53.3931 52.7181C53.4004 53.6995 53.4042 54.681 53.4057 55.6624C53.6034 55.6514 53.8009 55.6384 53.9984 55.6245C54.1084 55.6174 54.2184 55.6104 54.3318 55.6031C54.7448 55.5331 54.9797 55.366 55.288 55.0931C55.75 54.4169 55.6974 53.6089 55.694 52.8242C55.6944 52.6986 55.6947 52.573 55.6951 52.4436C55.696 52.0232 55.6953 51.6028 55.6946 51.1824C55.6949 50.8808 55.6953 50.5792 55.6958 50.2776C55.6968 49.5438 55.6966 48.8099 55.6959 48.0761C55.6954 47.4796 55.6953 46.8831 55.6956 46.2866C55.6956 46.1591 55.6956 46.1591 55.6957 46.0291C55.6958 45.8565 55.6958 45.6839 55.6959 45.5114C55.6965 43.8936 55.6958 42.2759 55.6946 40.6581C55.6936 39.2706 55.6938 37.883 55.6948 36.4955C55.696 34.8834 55.6965 33.2714 55.6958 31.6594C55.6957 31.4874 55.6956 31.3155 55.6956 31.1435C55.6955 31.0589 55.6955 30.9743 55.6955 30.8872C55.6953 30.2915 55.6956 29.6958 55.6961 29.1002C55.6968 28.3741 55.6966 27.648 55.6954 26.9219C55.6948 26.5516 55.6947 26.1812 55.6953 25.8109C55.6959 25.4092 55.6952 25.0076 55.694 24.6059C55.6945 24.4891 55.695 24.3724 55.6956 24.2521C55.6968 23.2336 55.6968 23.2336 55.2642 22.337C55.1985 22.2843 55.1328 22.2315 55.0651 22.1772C55.0003 22.1228 54.9355 22.0683 54.8687 22.0122C54.37 21.7143 53.7973 21.7515 53.2328 21.7531C53.1052 21.7528 53.1052 21.7528 52.9749 21.7525C52.6888 21.752 52.4027 21.7523 52.1165 21.7526C51.9097 21.7523 51.7029 21.7521 51.496 21.7518C50.9269 21.7511 50.3577 21.7511 49.7886 21.7512C49.175 21.7513 48.5615 21.7506 47.948 21.7501C46.7458 21.7492 45.5435 21.7488 44.3412 21.7488C43.3642 21.7487 42.3872 21.7485 41.4103 21.7481C38.6416 21.7471 35.873 21.7466 33.1044 21.7467C32.9924 21.7467 32.9924 21.7467 32.8782 21.7467C32.7273 21.7467 32.5764 21.7467 32.4255 21.7467C30.0771 21.7468 27.7288 21.746 25.3804 21.7444C22.7425 21.7427 20.1045 21.7417 17.4666 21.7418C16.0697 21.7418 14.6728 21.7415 13.2759 21.7403C12.0867 21.7393 10.8975 21.739 9.70826 21.7398C9.10132 21.7402 8.49439 21.7402 7.88746 21.7392C7.33202 21.7383 6.77659 21.7385 6.22115 21.7395C6.02005 21.7396 5.81895 21.7394 5.61786 21.7388C5.34472 21.738 5.07162 21.7386 4.79848 21.7395C4.72024 21.739 4.642 21.7384 4.56138 21.7378C3.97395 21.7421 3.3796 21.795 2.90688 22.1688Z" fill="var(--fill-0, #FF5100)"/>
<path id="Vector_2" d="M32.73 23.4624C32.822 23.4885 32.914 23.5146 33.0088 23.5415C36.7783 24.6461 40.102 26.8869 42.2205 30.2414C42.2614 30.3058 42.3023 30.3703 42.3444 30.4368C43.1385 31.7103 43.6781 33.0613 44.113 34.4923C44.1355 34.5651 44.1579 34.6378 44.181 34.7127C44.5597 36.0182 44.6361 37.334 44.6285 38.6868C44.6282 38.7664 44.6279 38.8461 44.6276 38.9281C44.6211 40.1279 44.5846 41.2821 44.2542 42.4435C44.2281 42.5355 44.202 42.6275 44.1751 42.7223C43.0705 46.4918 40.8297 49.8155 37.4753 51.934C37.4108 51.9749 37.3463 52.0158 37.2799 52.0579C36.0063 52.852 34.6553 53.3916 33.2243 53.8265C33.1516 53.8489 33.0789 53.8714 33.0039 53.8945C31.6983 54.2733 30.3827 54.3493 29.0298 54.342C28.9107 54.3417 28.9107 54.3417 28.7891 54.3413C27.5857 54.3361 26.4421 54.2778 25.2731 53.9677C25.2006 53.9489 25.1281 53.9301 25.0534 53.9108C22.6136 53.2638 20.5173 52.1043 18.6072 50.4652C18.533 50.405 18.4589 50.3447 18.3825 50.2825C17.8709 49.8628 17.4446 49.3947 17.0254 48.8835C16.9392 48.7802 16.853 48.677 16.7641 48.5706C15.6108 47.1379 14.0879 45.0214 14.0879 43.1214C14.216 42.7574 14.3177 42.5324 14.6175 42.2881C15.006 42.1831 15.3893 42.1311 15.7826 42.2175C16.3695 42.5658 16.5472 43.0313 16.7924 43.6369C16.871 43.8212 16.95 44.0054 17.0294 44.1894C17.0674 44.2782 17.1055 44.367 17.1446 44.4584C18.4995 47.5644 21.17 49.7792 24.2563 51.0302C27.3937 52.221 31.0411 52.2218 34.133 50.8819C37.4734 49.3082 40.0141 46.855 41.3811 43.3637C41.5278 42.947 41.6536 42.531 41.7686 42.1045C41.8046 41.9737 41.8406 41.843 41.8776 41.7082C42.688 38.1904 41.9479 34.5264 40.0739 31.4842C38.3006 28.7652 35.5178 26.7909 32.3911 25.948C32.2603 25.912 32.1295 25.8761 31.9947 25.839C28.4769 25.0286 24.8129 25.7687 21.7707 27.6428C19.4031 29.1869 17.8877 31.3698 16.6787 33.8817C16.6396 33.9625 16.6005 34.0432 16.5602 34.1265C16.5256 34.1994 16.491 34.2723 16.4553 34.3474C16.2826 34.6475 16.1033 34.7543 15.7826 34.8736C15.3239 34.931 15.0799 34.9226 14.674 34.6971C14.3608 34.3482 14.2914 34.0897 14.2009 33.6308C14.8029 30.5952 17.5572 27.4711 20.0631 25.7859C23.6989 23.4289 28.4672 22.2499 32.73 23.4624Z" fill="var(--fill-0, #FF5100)"/>
<path id="Vector_3" d="M35.2025 30.5914C37.4112 32.3356 38.8038 34.7907 39.1701 37.5853C39.3727 40.5524 38.5605 43.2547 36.6134 45.5399C34.9055 47.4083 32.4556 48.7248 29.8997 48.8994C26.8618 49.0303 24.1542 48.1345 21.8838 46.059C20.0254 44.2518 18.8588 41.6858 18.8002 39.0852C18.7763 36.1046 19.83 33.4769 21.9222 31.3253C25.601 27.8433 31.1682 27.6558 35.2025 30.5914ZM22.9289 33.765C21.6274 35.4414 20.9704 37.4992 21.2059 39.6189C21.5251 41.8005 22.6231 43.6788 24.3694 45.0346C26.1415 46.2552 28.2293 46.8166 30.3654 46.4363C32.507 45.991 34.3091 44.8168 35.5547 43.0084C36.6917 41.1351 37.1316 39.0458 36.6209 36.8932C36.0621 34.7894 34.7924 33.0709 32.9278 31.9392C29.481 30.0944 25.5186 30.791 22.9289 33.765Z" fill="var(--fill-0, #FF5100)"/>
<path id="Vector_4" d="M8.99014 23.5132C9.5836 23.9471 10.0881 24.5374 10.2466 25.2702C10.3586 26.2902 10.2987 27.1379 9.68171 27.9817C9.14395 28.5834 8.54258 28.95 7.73806 29.0383C6.72411 29.08 5.94971 28.9354 5.1805 28.2479C4.45057 27.4573 4.29928 26.7271 4.32519 25.6669C4.41674 24.8831 4.73984 24.2855 5.31776 23.7519C6.40885 22.9307 7.78727 22.812 8.99014 23.5132ZM6.74417 25.7221C6.7065 26.061 6.7065 26.061 6.74417 26.4C6.95714 26.6616 6.95714 26.6616 7.30908 26.6542C7.66102 26.6616 7.66102 26.6616 7.87399 26.4C7.91165 26.061 7.91165 26.061 7.87399 25.7221C7.66102 25.4605 7.66102 25.4605 7.30908 25.4679C6.95714 25.4605 6.95714 25.4605 6.74417 25.7221Z" fill="var(--fill-0, #FF5100)"/>
<path id="Vector_5" d="M25.6438 14.3507C25.7245 14.3498 25.8053 14.3488 25.8884 14.3477C26.1542 14.3453 26.4197 14.3469 26.6854 14.3488C26.8707 14.3484 27.056 14.3479 27.2412 14.3472C27.6291 14.3463 28.017 14.3476 28.4048 14.3502C28.9014 14.3534 29.3979 14.3516 29.8945 14.3482C30.2769 14.3461 30.6594 14.3468 31.0419 14.3483C31.2249 14.3486 31.408 14.3482 31.5911 14.3469C31.8472 14.3454 32.1031 14.3476 32.3592 14.3507C32.5048 14.3512 32.6504 14.3516 32.8003 14.3521C33.2794 14.4422 33.4468 14.6126 33.7468 14.9888C33.8218 15.2712 33.8218 15.2712 33.8174 15.5537C33.8196 15.6935 33.8196 15.6935 33.8218 15.8361C33.7119 16.2498 33.5107 16.4144 33.1819 16.6835C32.8003 16.7552 32.8003 16.7552 32.3592 16.7566C32.2785 16.7576 32.1978 16.7586 32.1146 16.7596C31.8489 16.7621 31.5834 16.7604 31.3177 16.7585C31.1324 16.7589 30.9471 16.7595 30.7618 16.7602C30.3739 16.761 29.9861 16.7598 29.5982 16.7571C29.1016 16.7539 28.6052 16.7558 28.1086 16.7592C27.7261 16.7612 27.3437 16.7606 26.9612 16.7591C26.7781 16.7587 26.5951 16.7592 26.412 16.7605C26.1558 16.7619 25.9 16.7597 25.6438 16.7566C25.4983 16.7561 25.3527 16.7557 25.2027 16.7552C24.7237 16.6652 24.5563 16.4947 24.2563 16.1186C24.1812 15.8361 24.1812 15.8361 24.1856 15.5537C24.1842 15.4605 24.1827 15.3673 24.1812 15.2712C24.3832 14.511 24.9276 14.353 25.6438 14.3507Z" fill="var(--fill-0, #FF5100)"/>
<path id="Vector_6" d="M28.7121 33.5956C28.8378 33.5914 28.9635 33.5871 29.093 33.5828C29.5287 33.6409 29.7078 33.7789 30.0185 34.0828C30.1469 34.3396 30.1614 34.5102 30.1738 34.796C30.1794 34.8818 30.1849 34.9676 30.1906 35.056C30.0998 35.4699 29.894 35.631 29.5666 35.8905C29.1972 36 29.1972 36 28.7969 36.06C27.925 36.2251 27.2961 36.4493 26.7632 37.1828C26.4548 37.7196 26.3774 38.3048 26.2865 38.9106C26.1524 39.3635 25.9815 39.5551 25.6122 39.8449C25.2636 39.941 24.9487 39.916 24.5953 39.8449C24.271 39.6422 24.0879 39.5079 23.9174 39.167C23.8088 37.73 24.0711 36.6973 24.9343 35.5516C25.0205 35.4327 25.1067 35.3139 25.1955 35.1915C26.1191 34.225 27.3782 33.6249 28.7121 33.5956Z" fill="var(--fill-0, #FF5100)"/>
<path id="Vector_7" d="M46.048 24.8562C46.2028 24.8558 46.3577 24.8553 46.5126 24.8545C46.8367 24.8537 47.1607 24.8549 47.4847 24.8576C47.8993 24.8608 48.3136 24.8589 48.7281 24.8555C49.0478 24.8535 49.3674 24.8542 49.6871 24.8556C49.914 24.8562 50.1409 24.8545 50.3677 24.8527C51.5111 24.8674 51.5111 24.8674 51.861 25.2007C52.0648 25.5189 52.1266 25.686 52.1208 26.061C52.123 26.2009 52.123 26.2009 52.1252 26.3435C52.0434 26.6513 51.9365 26.8494 51.7049 27.07C51.1776 27.3601 50.5022 27.2704 49.9176 27.2659C49.7627 27.2663 49.6078 27.2668 49.4529 27.2675C49.1289 27.2684 48.8049 27.2672 48.4808 27.2645C48.0663 27.2613 47.652 27.2631 47.2374 27.2665C46.9178 27.2686 46.5981 27.2679 46.2784 27.2665C46.0516 27.2659 45.8247 27.2676 45.5978 27.2694C44.4545 27.2546 44.4545 27.2546 44.1046 26.9214C43.9008 26.6031 43.8389 26.4361 43.8448 26.061C43.8433 25.9678 43.8419 25.8746 43.8404 25.7786C43.9221 25.4708 44.0291 25.2726 44.2606 25.0521C44.788 24.762 45.4633 24.8517 46.048 24.8562Z" fill="var(--fill-0, #FF5100)"/>
<path id="Vector_8" d="M29.0013 0.00441338C29.0946 0.00295697 29.1878 0.00150055 29.2838 0C29.7058 0.112107 29.8623 0.297382 30.1312 0.639941C30.2136 0.989775 30.2104 1.33038 30.2062 1.68856C30.2067 1.78924 30.2073 1.88992 30.2078 1.99365C30.2082 2.20599 30.2072 2.41833 30.2048 2.63065C30.2018 2.9551 30.2048 3.2791 30.2084 3.60353C30.208 3.81022 30.2073 4.01692 30.2062 4.22361C30.2073 4.32025 30.2085 4.41688 30.2097 4.51645C30.1999 5.01458 30.1798 5.2115 29.8581 5.61316C29.4302 5.94151 29.2036 6.00216 28.6624 5.95012C28.0321 5.59334 28.0321 5.59334 27.8715 5.27223C27.8392 4.61747 27.8361 3.96257 27.832 3.30709C27.8301 3.0878 27.827 2.86852 27.8227 2.64927C27.8165 2.33297 27.814 2.01683 27.8124 1.70048C27.8098 1.60278 27.8073 1.50507 27.8046 1.40441C27.8064 0.903522 27.8219 0.703466 28.14 0.29589C28.4613 0.0564987 28.6059 -0.00176514 29.0013 0.00441338Z" fill="var(--fill-0, #FF5100)"/>
<path id="Vector_9" d="M36.4583 3.91642C36.8002 4.14434 36.9696 4.30915 37.093 4.70509C37.1442 5.14422 37.0849 5.40772 36.8343 5.77533C36.5699 6.07357 36.293 6.35103 36.0064 6.628C35.9037 6.73315 35.801 6.83831 35.6952 6.94665C34.7755 7.88643 34.7755 7.88643 34.1633 7.91318C33.7303 7.91039 33.6536 7.88653 33.2948 7.60247C32.9664 7.17145 32.9036 6.94585 32.9558 6.40203C33.3003 5.79807 33.763 5.33494 34.2551 4.84852C34.3302 4.77264 34.4052 4.69676 34.4824 4.61859C34.5554 4.54591 34.6284 4.47323 34.7035 4.39836C34.7693 4.33285 34.8351 4.26735 34.9028 4.19987C35.3963 3.77864 35.8372 3.73069 36.4583 3.91642Z" fill="var(--fill-0, #FF5100)"/>
<path id="Vector_10" d="M22.6748 3.9164C23.0122 4.14324 23.2905 4.42164 23.5786 4.70728C23.6861 4.81054 23.7936 4.9138 23.9043 5.02019C25.007 6.09237 25.007 6.09237 25.0898 6.72684C25.0363 7.17275 24.8715 7.40869 24.5955 7.75781C24.1924 7.95936 23.791 7.95351 23.3527 7.87079C22.9975 7.66035 22.7335 7.37633 22.4488 7.07991C22.3408 6.97382 22.2325 6.86806 22.124 6.76259C20.9483 5.61263 20.9483 5.61263 20.9306 5.00386C20.9389 4.58011 20.9684 4.49637 21.2413 4.14236C21.7477 3.76554 22.0716 3.7582 22.6748 3.9164Z" fill="var(--fill-0, #FF5100)"/>
<path id="Vector_11" d="M14.9915 37.4723C15.3089 37.6749 15.5009 37.8134 15.6694 38.1502C15.7388 38.711 15.7525 39.1414 15.4575 39.6331C14.9581 39.9327 14.5425 39.9566 13.9746 39.8449C13.6215 39.6331 13.6215 39.6331 13.4097 39.28C13.3074 38.7176 13.3205 38.2958 13.6215 37.8042C14.0387 37.4238 14.4429 37.3935 14.9915 37.4723Z" fill="var(--fill-0, #FF5100)"/>
<path id="Vector_12" d="M52.4843 42.6205C52.8443 42.6928 53.0447 42.8577 53.2929 43.1214C53.4744 43.4845 53.4587 43.8574 53.4058 44.2512C53.1801 44.6665 53.0104 44.7906 52.5797 44.9856C52.0568 45.0565 51.8197 44.9786 51.3722 44.7031C51.0922 44.3182 51.0332 44.0986 51.0332 43.6227C51.2649 42.8263 51.6902 42.5768 52.4843 42.6205Z" fill="var(--fill-0, #FF5100)"/>
</g>
</svg>
