<svg preserveAspectRatio="none" width="100%" height="100%" overflow="visible" style="display: block;" viewBox="0 0 102 102" fill="none" xmlns="http://www.w3.org/2000/svg">
<g id="Frame 427318891">
<rect x="1" y="1" width="100" height="100" rx="50" stroke="var(--stroke-0, black)" stroke-width="2"/>
<path id="Vector" d="M68.9221 62.3068L68.8483 33.8483L40.3898 33.7745C40.0933 33.7343 39.7916 33.7583 39.5052 33.8449C39.2188 33.9315 38.9543 34.0786 38.7297 34.2763C38.5051 34.4739 38.3256 34.7175 38.2033 34.9906C38.0811 35.2637 38.0189 35.5598 38.021 35.859C38.0232 36.1582 38.0896 36.4535 38.2157 36.7248C38.3419 36.9961 38.5249 37.2371 38.7523 37.4315C38.9797 37.626 39.2462 37.7693 39.5338 37.8518C39.8214 37.9342 40.1234 37.954 40.4193 37.9096L61.7447 37.9982L33.493 66.25C33.1013 66.6417 32.8812 67.1729 32.8812 67.7268C32.8812 68.2807 33.1013 68.812 33.493 69.2036C33.8846 69.5953 34.4159 69.8154 34.9698 69.8154C35.5237 69.8154 36.0549 69.5953 36.4466 69.2036L64.6984 40.9519L64.787 62.2773C64.789 62.8315 65.011 63.3623 65.4043 63.7528C65.7976 64.1433 66.3299 64.3616 66.8841 64.3596C67.4383 64.3577 67.9691 64.1356 68.3596 63.7423C68.7501 63.3491 68.9684 62.8168 68.9664 62.2625L68.9221 62.3068Z" fill="var(--fill-0, #FF5100)"/>
</g>
</svg>
