<?xml version="1.0" encoding="UTF-8"?>
<svg id="Layer_1" xmlns="http://www.w3.org/2000/svg" version="1.1" viewBox="0 0 776.09 776.09">
  <!-- Generator: Adobe Illustrator 30.6.0, SVG Export Plug-In . SVG Version: 2.1.4 Build 109)  -->
  <defs>
    <style>
      .st0 {
        fill: #ef5423;
      }

      .st1 {
        fill: #30261b;
      }

      .st2 {
        fill: none;
        stroke: #000;
        stroke-miterlimit: 10;
        stroke-width: 4px;
      }
    </style>
  </defs>
  <g>
    <path class="st1" d="M696.48,483.79l-21.45.26-.11-137.42-6.81,6.79-72.89,86.38-79.86-93.75-.25,137.96h-21.21s-.04-190.65-.04-190.65l7.02.14,58.68,70.12,35.7,41.92,13.12-15.25,77.62-92.95c2.97-3.55,6.49-5.95,10.54-3.33l-.08,189.79Z"/>
    <path class="st1" d="M199.47,483.99l-116,.09-.02-19.92,112.89-.52c16.8-.08,28.79-16.89,29.08-32.01.31-16.2-12.01-33.03-28.94-33.26l-67.29-.91c-31.88-2.28-54.62-31.03-48.76-62.43,4.42-23.69,25.39-42.75,49.98-42.8l113.31-.25.07,19.98-115.23.08c-17.17,3.28-28.3,17.57-27.47,34.21.47,16.38,13.13,31.35,30.44,31.58l68.5.94c24.19,2.19,43.05,21.88,46.18,45.11,4.07,30.17-16.51,55.78-46.75,60.11Z"/>
    <rect class="st0" x="359.04" y="230.01" width="20.14" height="144.37" transform="translate(66.82 671.23) rotate(-89.99)"/>
    <rect class="st0" x="296.95" y="378.13" width="144.32" height="20.09"/>
    <rect class="st0" x="297.05" y="464.06" width="144.14" height="20.05"/>
  </g>
  <circle class="st2" cx="388.04" cy="388.04" r="386.04"/>
</svg>