<svg preserveAspectRatio="none" width="100%" height="100%" overflow="visible" style="display: block;" viewBox="0 0 102 111" fill="none" xmlns="http://www.w3.org/2000/svg">
<g id="Frame 427318896">
<g id="01">
<path d="M22.999 92C18.888 92 15.3604 91.0913 12.4161 89.2739C9.52735 87.3891 7.16634 84.7976 5.33309 81.4993C3.49984 78.1337 2.13879 74.2633 1.24994 69.888C0.416648 65.4454 0 60.6662 0 55.5505C0 50.4348 0.416648 45.6893 1.24994 41.314C2.08324 36.8714 3.41651 33.0009 5.24976 29.7026C7.08301 26.337 9.44402 23.7118 12.3328 21.8271C15.2771 19.9424 18.8325 19 22.999 19C27.3877 19 31.0542 20.0433 33.9985 22.13C36.9983 24.1494 39.3593 26.9092 41.0815 30.4094C42.8592 33.9096 44.1091 37.8474 44.8313 42.2227C45.609 46.5307 45.9979 50.9733 45.9979 55.5505C45.9979 60.1277 45.609 64.604 44.8313 68.9793C44.1091 73.2872 42.8592 77.1913 41.0815 80.6916C39.3593 84.1245 36.9983 86.8843 33.9985 88.971C31.0542 90.9903 27.3877 92 22.999 92ZM22.999 84.0235C26.2766 84.0235 28.9154 83.1821 30.9153 81.4993C32.9707 79.7492 34.554 77.4606 35.6651 74.6335C36.7761 71.8064 37.5261 68.7437 37.915 65.4454C38.3038 62.0798 38.4983 58.7815 38.4983 55.5505C38.4983 52.3868 38.3038 49.1558 37.915 45.8575C37.5261 42.4919 36.7761 39.3956 35.6651 36.5685C34.554 33.674 32.9707 31.3518 30.9153 29.6017C28.9154 27.8515 26.2766 26.9765 22.999 26.9765C19.6658 26.9765 16.9715 27.8515 14.916 29.6017C12.8605 31.3518 11.2773 33.674 10.1662 36.5685C9.1107 39.3956 8.38851 42.4919 7.99964 45.8575C7.61077 49.1558 7.41633 52.3868 7.41633 55.5505C7.41633 58.7815 7.61077 62.0798 7.99964 65.4454C8.38851 68.7437 9.1107 71.8064 10.1662 74.6335C11.2773 77.4606 12.8605 79.7492 14.916 81.4993C16.9715 83.1821 19.6658 84.0235 22.999 84.0235Z" fill="var(--fill-0, black)"/>
<path d="M64.7503 91.1923V33.9433H52.7509V27.9862C54.973 27.7842 56.9451 27.4813 58.6673 27.0775C60.3894 26.6063 61.9171 25.8322 63.2504 24.7552C64.6392 23.6109 65.8614 21.9617 66.9169 19.8077H72V91.1923H64.7503Z" fill="var(--fill-0, black)"/>
</g>
<line id="Line 61" x1="100.5" y1="109.5" x2="100.5" y2="1.5" stroke="var(--stroke-0, #FF5100)" stroke-width="3" stroke-linecap="round"/>
</g>
</svg>
