<svg preserveAspectRatio="none" width="100%" height="100%" overflow="visible" style="display: block;" viewBox="0 0 60.8384 58" fill="none" xmlns="http://www.w3.org/2000/svg">
<g id="Group 277">
<path id="Vector" d="M6.51413 0.00517613C6.70953 0.00462872 6.90493 0.00387472 7.10033 0.00293339C7.63445 0.000960919 8.16853 0.0019281 8.70264 0.00340128C9.27976 0.00447753 9.85687 0.00281644 10.434 0.00151309C11.5634 -0.000593923 12.6929 -0.000141994 13.8223 0.00123443C14.7405 0.00230689 15.6586 0.00245074 16.5767 0.00193478C16.7075 0.00186208 16.8383 0.00178938 16.973 0.00171448C17.2387 0.00156279 17.5045 0.00140897 17.7702 0.00125305C20.2604 -9.90415e-05 22.7506 0.00145451 25.2408 0.00400491C27.3765 0.00612447 29.5121 0.00575628 31.6478 0.00356902C34.1292 0.00102878 36.6107 3.12577e-05 39.0921 0.00148736C39.3569 0.00163848 39.6216 0.00178763 39.8863 0.00193478C40.0817 0.00204456 40.0817 0.00204456 40.281 0.00215657C41.1978 0.0025658 42.1145 0.00187564 43.0313 0.000758406C44.1489 -0.000573657 45.2665 -0.000209064 46.3841 0.00231488C46.954 0.00355974 47.5239 0.00405337 48.0939 0.00248133C48.6161 0.00106274 49.1383 0.00185255 49.6606 0.0043684C49.849 0.00489627 50.0374 0.00463343 50.2258 0.00347847C52.015 -0.00664315 53.3774 0.40411 54.7031 1.63696C56.0243 3.02851 56.5627 4.89602 56.5459 6.77501C56.5459 6.8828 56.5459 6.99058 56.546 7.10163C56.5458 7.45934 56.5439 7.81703 56.542 8.17474C56.5416 8.4326 56.5412 8.69045 56.541 8.94831C56.5404 9.5019 56.5391 10.0555 56.5373 10.6091C56.5347 11.4848 56.5347 12.3606 56.5352 13.2364C56.5353 13.5366 56.5354 13.8369 56.5356 14.1372C56.5356 14.2875 56.5357 14.4378 56.5358 14.5927C56.5365 16.6304 56.535 18.668 56.5287 20.7056C56.5244 22.082 56.5235 23.4583 56.5263 24.8347C56.5277 25.5624 56.5274 26.29 56.5228 27.0177C56.5186 27.7019 56.5188 28.3859 56.5223 29.07C56.5228 29.3207 56.5217 29.5714 56.5188 29.8221C56.4472 31.3351 56.4472 31.3351 57.1047 32.6322C57.1889 32.7031 57.2732 32.7739 57.36 32.8469C57.7963 33.215 57.9074 33.7016 57.975 34.2502C58.0062 34.9516 57.8898 35.6481 57.4227 36.1956C57.3668 36.2545 57.3108 36.3133 57.2532 36.374C57.1675 36.4865 57.0819 36.599 56.9937 36.715C57.0329 37.0619 57.0329 37.0619 57.2309 37.4266C57.3162 37.6337 57.4002 37.8413 57.483 38.0493C57.5458 38.2007 57.5458 38.2007 57.6099 38.3551C57.7053 38.6127 57.7053 38.6127 57.7053 38.8499C57.9108 38.8389 57.9108 38.8389 58.1205 38.8277C58.9321 38.8291 59.6127 39.1129 60.1961 39.6802C60.839 40.5552 60.8185 41.2989 60.8241 42.3439C60.8255 42.5191 60.8279 42.6943 60.8314 42.8694C60.8536 43.9734 60.8684 44.8502 60.1076 45.7319C59.3006 46.3767 58.7317 46.4766 57.7053 46.4408C57.6838 46.514 57.6622 46.5872 57.64 46.6627C57.6102 46.7631 57.5804 46.8636 57.5497 46.9671C57.5185 47.0753 57.4873 47.1836 57.4552 47.2951C57.3495 47.6268 57.3495 47.6268 57.2216 47.9141C57.1043 48.1841 57.0179 48.4004 56.9937 48.6943C57.1394 48.9472 57.3103 49.1221 57.5186 49.3258C57.9161 49.7489 57.9356 50.2666 57.9796 50.8218C57.9347 51.9924 57.3022 52.637 56.5193 53.4386C56.4275 53.5363 56.3358 53.634 56.2413 53.7346C55.4504 54.5593 54.8059 55.0229 53.6505 55.1361C52.7807 55.0648 52.1479 54.7604 51.5378 54.1502C51.0589 54.2008 50.6494 54.3815 50.2109 54.5727C49.5467 54.8619 49.5467 54.8618 49.2842 54.8618C49.2897 54.9365 49.2953 55.0111 49.3009 55.0879C49.3325 55.8369 49.2595 56.3841 48.8098 56.9968C48.2825 57.5591 47.7708 57.9126 46.9859 57.9801C46.5813 57.9849 46.1769 57.9897 45.7723 57.9896C45.513 57.9901 45.254 57.9944 44.9947 57.9989C43.9808 58.0073 43.1722 57.9858 42.4023 57.2382C41.8561 56.441 41.6544 55.823 41.5748 54.8618C41.3278 54.7651 41.0807 54.6688 40.8335 54.5727C40.6271 54.4922 40.6271 54.4922 40.4165 54.4101C40.2899 54.3635 40.1633 54.3169 40.0329 54.2688C39.9474 54.2361 39.862 54.2034 39.7739 54.1697C39.5458 54.1276 39.5458 54.1276 39.3338 54.286C39.2587 54.3512 39.1836 54.4165 39.1063 54.4838C38.441 55.0148 37.7982 55.1723 36.9491 55.0991C35.9278 54.9208 35.3479 54.3058 34.6511 53.5794C34.5458 53.4738 34.4404 53.3683 34.3319 53.2595C33.5967 52.5093 33.103 51.936 33.1018 50.844C33.1173 50.1085 33.2241 49.6619 33.6281 49.0501C33.7279 48.9682 33.7279 48.9682 33.8297 48.8847C33.8806 48.8219 33.9315 48.759 33.9839 48.6943C33.925 48.1984 33.7435 47.7556 33.5614 47.2932C33.5074 47.1555 33.4535 47.0177 33.3979 46.8758C33.3564 46.7714 33.315 46.667 33.2723 46.5594C33.1414 46.5592 33.0104 46.559 32.8755 46.5588C31.6417 46.5569 30.4079 46.5518 29.174 46.5437C28.5397 46.5396 27.9054 46.5367 27.271 46.5362C26.6589 46.5357 26.0467 46.5323 25.4346 46.5269C25.201 46.5254 24.9675 46.5249 24.7339 46.5254C24.4067 46.526 24.0798 46.5229 23.7526 46.519C23.6078 46.5205 23.6078 46.5205 23.46 46.5221C22.9534 46.5118 22.7703 46.4843 22.3613 46.1544C22.0363 45.7357 21.9512 45.4238 22.0046 44.8989C22.2459 44.4164 22.4503 44.1415 22.9535 43.95C23.2852 43.9215 23.2852 43.9215 23.6715 43.9231C23.8163 43.9231 23.9611 43.9231 24.1103 43.9231C24.3441 43.925 24.3441 43.925 24.5825 43.9268C24.744 43.9273 24.9056 43.9276 25.0671 43.9279C25.4914 43.9288 25.9157 43.9311 26.34 43.9337C26.7733 43.9362 27.2066 43.9372 27.6399 43.9384C28.4894 43.941 29.339 43.945 30.1885 43.95C30.1857 43.8227 30.1857 43.8227 30.1829 43.6929C30.1754 43.3042 30.1708 42.9155 30.1663 42.5267C30.1633 42.3932 30.1603 42.2598 30.1572 42.1223C30.1493 41.2152 30.1841 40.4683 30.7876 39.7441C31.704 38.9685 31.704 38.9685 32.3234 38.8499C32.437 38.8598 32.437 38.8598 32.5528 38.8698C32.8535 38.8818 33.0047 38.876 33.2723 38.7313C33.6116 38.1833 34.0183 37.4648 33.9608 36.8049C33.8559 36.5759 33.734 36.3997 33.5762 36.2035C33.0551 35.489 33.009 34.8397 33.0615 33.9801C33.3175 33.0113 34.0474 32.3231 34.7401 31.6371C34.8266 31.5482 34.9131 31.4593 35.0023 31.3677C35.6924 30.6782 36.2704 30.262 37.2827 30.2509C38.238 30.2737 38.9374 30.6858 39.6771 31.2591C39.7644 31.219 39.8517 31.1789 39.9416 31.1377C40.0574 31.0848 40.1731 31.0319 40.2924 30.9774C40.4066 30.9251 40.5208 30.8728 40.6384 30.8189C40.948 30.6811 41.2593 30.5523 41.5748 30.4288C41.5752 30.321 41.5752 30.321 41.5757 30.2111C41.6154 29.3516 41.8554 28.7233 42.405 28.0567C43.3427 27.2719 44.2737 27.317 45.4518 27.308C45.5991 27.3045 45.7464 27.3011 45.8982 27.2975C46.9176 27.2905 47.6938 27.3881 48.4943 28.0483C49.1286 28.8207 49.285 29.4541 49.4029 30.4288C49.6889 30.5515 49.9755 30.6723 50.2628 30.792C50.3436 30.827 50.4245 30.8619 50.5078 30.8979C50.9461 31.0787 51.2062 31.1767 51.6564 31.0218C51.8748 30.8873 51.8748 30.8873 52.0789 30.7253C52.7505 30.2108 53.0724 30.3102 54.0285 30.3102C54.0285 26.357 54.0285 22.4039 54.0285 18.3309C37.0416 18.3309 20.0547 18.3309 2.55309 18.3309C2.29637 28.6548 1.21831 28.966 3.40113 43.2929C4.03181 43.8309 4.97965 43.8455 5.8043 43.8501C5.88091 43.8507 5.95752 43.8513 6.03645 43.8519C6.20264 43.8532 6.36883 43.8542 6.53502 43.855C6.79829 43.8564 7.06153 43.8587 7.32478 43.8613C8.07323 43.8686 8.82167 43.875 9.57013 43.879C10.0281 43.8815 10.4861 43.8857 10.9441 43.891C11.1184 43.8926 11.2927 43.8937 11.467 43.894C11.7112 43.8946 11.9552 43.8974 12.1994 43.9006C12.4075 43.902 12.4075 43.902 12.6199 43.9035C13.1272 43.9672 13.4351 44.1625 13.7985 44.5134C14.0021 44.8991 13.9846 45.1805 13.9394 45.6105C13.7435 46.0302 13.6172 46.1811 13.2277 46.4408C12.865 46.4725 12.865 46.4725 12.4132 46.4752C12.3308 46.476 12.2484 46.4768 12.1635 46.4776C11.8906 46.4799 11.6177 46.4803 11.3448 46.4806C11.1543 46.4814 10.9639 46.4822 10.7734 46.483C10.3734 46.4844 9.97334 46.4848 9.57332 46.4847C9.06379 46.4847 8.55435 46.4879 8.04484 46.492C7.65083 46.4947 7.25683 46.4951 6.86281 46.495C6.67519 46.4953 6.48757 46.4963 6.29996 46.4982C4.57107 46.5136 3.28817 46.1821 1.96006 45.0175C0.535944 43.5761 0.025338 41.8353 0.0306272 39.8636C0.0300898 39.7161 0.0295526 39.5687 0.0289989 39.4168C0.0277605 39.0094 0.0275783 38.6021 0.0278587 38.1948C0.0279072 37.7547 0.0265965 37.3146 0.0254729 36.8745C0.0235056 36.013 0.0228508 35.1515 0.0227184 34.2899C0.0226055 33.5893 0.0221172 32.8886 0.021366 32.1879C0.0192778 30.1995 0.0181829 28.2111 0.0183609 26.2227C0.0183703 26.1156 0.0183796 26.0084 0.0183894 25.8981C0.0184039 25.7372 0.0184039 25.7372 0.0184188 25.5731C0.0185152 23.8359 0.0162461 22.0986 0.0129007 20.3614C0.00948929 18.5757 0.00785523 16.79 0.00805994 15.0043C0.00813855 14.0025 0.00749299 13.0008 0.00493396 11.999C0.00276867 11.146 0.00226274 10.2929 0.0038689 9.43984C0.00464076 9.00508 0.00466664 8.57037 0.00259887 8.13562C0.000374327 7.66302 0.00187312 7.1905 0.00369742 6.7179C0.00247729 6.58229 0.0012571 6.44667 0 6.30694C0.0147943 4.56432 0.647128 2.87088 1.84516 1.58878C3.23847 0.283929 4.65698 -0.00620736 6.51413 0.00517613ZM3.45515 3.60788C1.08804 6.75251 2.55309 14.1249 2.55309 15.8402C19.54 15.8402 36.5269 15.8402 54.0285 15.8402C54.7937 10.1902 54.7937 10.1902 52.8735 3.39522C52.2255 2.81621 51.6081 2.51183 50.7268 2.51106C50.6477 2.51051 50.5687 2.50995 50.4872 2.50938C50.2226 2.50797 49.9581 2.50908 49.6935 2.51019C49.5018 2.50969 49.3101 2.50904 49.1184 2.50825C48.5917 2.50653 48.065 2.50704 47.5384 2.50791C46.9703 2.50847 46.4022 2.50699 45.8342 2.50578C44.7213 2.50374 43.6085 2.50364 42.4956 2.50426C41.5912 2.50474 40.6867 2.50457 39.7823 2.50393C39.6536 2.50385 39.5249 2.50376 39.3924 2.50367C39.131 2.50348 38.8696 2.5033 38.6082 2.50312C36.1563 2.50149 33.7044 2.50214 31.2525 2.5035C29.009 2.50467 26.7655 2.50314 24.522 2.5003C22.2189 2.49741 19.9157 2.49627 17.6126 2.49706C16.3193 2.49747 15.0261 2.4972 13.7329 2.49513C12.6319 2.49339 11.531 2.49331 10.4301 2.49538C9.86832 2.49639 9.3066 2.49664 8.74486 2.49482C8.23052 2.49319 7.71623 2.49374 7.2019 2.49604C7.01593 2.49649 6.82996 2.49613 6.644 2.4949C5.32911 2.48678 4.39562 2.61361 3.45515 3.60788ZM44.1841 29.9544C44.16 30.3213 44.1431 30.6872 44.1332 31.0547C44.1087 31.5737 44.0261 31.912 43.7097 32.3265C43.2855 32.5985 42.8376 32.7336 42.3606 32.8825C41.6473 33.1084 41.0094 33.4301 40.3631 33.8027C39.7628 34.1278 39.3942 34.163 38.7282 33.987C38.3928 33.7419 38.3928 33.7419 38.1055 33.4459C37.8261 33.1511 37.8261 33.1511 37.5422 32.9196C36.999 32.9196 36.8887 33.0347 36.5143 33.4023C36.4499 33.4681 36.3854 33.5338 36.319 33.6015C36.2523 33.6655 36.1855 33.7294 36.1168 33.7952C35.9016 34.004 35.9016 34.004 35.6444 34.3428C35.6964 34.768 35.8612 34.9521 36.1708 35.2398C36.5764 35.62 36.8083 35.8725 36.9046 36.4407C36.8927 37.1116 36.5713 37.6433 36.262 38.2195C35.8902 38.9196 35.65 39.6185 35.4313 40.3788C35.2727 40.7889 35.179 40.9759 34.8142 41.222C34.4708 41.291 34.1333 41.2992 33.7838 41.3036C33.1839 41.2641 33.1839 41.2641 32.6793 41.4593C32.6675 41.6344 32.6638 41.8101 32.6635 41.9856C32.6634 42.0917 32.6632 42.1978 32.6631 42.3071C32.6635 42.4187 32.664 42.5303 32.6644 42.6453C32.664 42.7569 32.6635 42.8686 32.6631 42.9835C32.6632 43.0897 32.6634 43.1958 32.6635 43.3051C32.6636 43.4031 32.6638 43.5011 32.6639 43.6021C32.654 43.8322 32.654 43.8322 32.7979 43.95C33.1648 43.9742 33.5307 43.9911 33.8982 44.001C34.418 44.0255 34.772 44.0814 35.17 44.4244C35.3143 44.7067 35.4236 44.9583 35.5258 45.2547C35.5823 45.4076 35.6389 45.5605 35.6954 45.7134C35.7234 45.7909 35.7513 45.8684 35.7801 45.9483C36.0415 46.6728 36.3226 47.3386 36.7147 48.004C36.9381 48.4203 36.9989 48.7626 36.8657 49.2146C36.6297 49.6903 36.2489 49.9822 35.858 50.333C35.7875 50.4185 35.7171 50.5039 35.6444 50.592C35.6858 50.9852 35.8334 51.1796 36.1119 51.45C36.1811 51.5181 36.2503 51.5861 36.3216 51.6562C36.4304 51.7606 36.4304 51.7606 36.5414 51.867C36.6144 51.9384 36.6874 52.0098 36.7626 52.0834C36.9426 52.2592 37.1237 52.4339 37.3049 52.6083C37.3613 52.5597 37.4177 52.5112 37.4758 52.4611C37.619 52.3382 37.7629 52.2161 37.9072 52.0945C38.1316 51.9051 38.1316 51.9051 38.3112 51.7174C38.6332 51.4018 38.8644 51.3 39.3064 51.2073C39.9587 51.2423 40.4997 51.5696 41.0631 51.8724C41.7628 52.2449 42.4601 52.4794 43.2223 52.6912C43.6677 52.8776 43.8283 53.0184 44.0655 53.4386C44.1149 53.7781 44.1425 54.0778 44.1471 54.4171C44.1117 54.9811 44.1117 54.9811 44.3028 55.4549C44.488 55.4652 44.6737 55.4676 44.8592 55.4665C44.9712 55.4661 45.0832 55.4657 45.1986 55.4653C45.3164 55.4643 45.4342 55.4633 45.5555 55.4623C45.6738 55.4618 45.7921 55.4612 45.9139 55.4607C46.2071 55.4593 46.5003 55.4573 46.7935 55.4549C46.7979 55.3248 46.8024 55.1947 46.8069 55.0606C46.8147 54.8881 46.8226 54.7156 46.8306 54.5431C46.8332 54.4576 46.8359 54.372 46.8387 54.2839C46.8651 53.7579 46.9182 53.3832 47.2679 52.9641C47.5255 52.8275 47.5255 52.8275 47.8313 52.7343C48.3926 52.55 48.943 52.352 49.4918 52.1339C49.6355 52.0776 49.7792 52.0214 49.9273 51.9634C50.236 51.8286 50.5046 51.6941 50.7914 51.5237C51.1723 51.3091 51.4465 51.2126 51.8871 51.2332C52.4531 51.3968 52.8907 51.895 53.2478 52.3465C53.4327 52.5172 53.4327 52.5172 53.7116 52.4925C54.1363 52.3298 54.4033 52.0566 54.7105 51.7336C54.7691 51.6749 54.8276 51.6162 54.888 51.5557C55.1604 51.2765 55.3269 51.0852 55.4518 50.7106C55.3676 50.6277 55.2833 50.5449 55.1965 50.4595C55.0875 50.3515 54.9785 50.2436 54.8662 50.1324C54.7575 50.0251 54.6488 49.9177 54.5368 49.8072C54.1501 49.4039 54.1082 49.1568 54.1159 48.5971C54.1688 48.1593 54.3693 47.8203 54.5845 47.4415C55.0073 46.6559 55.3 45.8869 55.5463 45.0304C55.727 44.5634 55.9521 44.2929 56.4007 44.0686C56.7224 44.0411 57.0421 44.0189 57.3643 44.0019C57.4985 43.9942 57.4985 43.9942 57.6354 43.9864C57.8564 43.9738 58.0774 43.9618 58.2984 43.95C58.3018 43.5374 58.3039 43.1247 58.3058 42.712C58.3068 42.5942 58.3078 42.4764 58.3088 42.3551C58.3092 42.2431 58.3096 42.1311 58.31 42.0157C58.3106 41.912 58.3112 41.8082 58.3118 41.7014C58.3254 41.4599 58.3254 41.4599 58.1798 41.3407C57.7874 41.3205 57.3958 41.3054 57.003 41.3001C56.5971 41.2841 56.3051 41.2344 55.9457 41.0418C55.5989 40.6443 55.4892 40.2559 55.348 39.7543C55.0838 38.8818 54.7511 38.1146 54.3037 37.3214C54.1208 36.8901 54.1058 36.5863 54.1471 36.1219C54.4673 35.5073 54.954 35.0527 55.4518 34.5801C54.9289 33.9526 54.3754 33.3717 53.7913 32.801C53.3813 32.9756 53.1362 33.2098 52.8276 33.5274C52.4624 33.8506 52.2011 34.0641 51.7083 34.1056C51.0407 34.0509 50.4887 33.7311 49.9087 33.4189C49.2075 33.0433 48.5054 32.8004 47.7437 32.5762C47.3056 32.4154 47.1181 32.2641 46.9121 31.8521C46.8807 31.444 46.8594 31.0366 46.8403 30.6278C46.8568 30.1958 46.8568 30.1958 46.6749 29.8358C46.4998 29.8241 46.3241 29.8203 46.1486 29.82C46.0425 29.8199 45.9364 29.8197 45.827 29.8196C45.6596 29.8202 45.6596 29.8202 45.4888 29.821C45.3772 29.8205 45.2656 29.82 45.1506 29.8196C44.9914 29.8198 44.9914 29.8198 44.8291 29.82C44.6821 29.8202 44.6821 29.8202 44.5321 29.8204C44.3019 29.8106 44.3019 29.8106 44.1841 29.9544Z" fill="var(--fill-0, #FF5100)"/>
<path id="Vector_2" d="M35.3301 5.14735C35.4324 5.14633 35.5348 5.14531 35.6403 5.14426C35.7517 5.14375 35.8631 5.14324 35.9779 5.14272C36.096 5.14175 36.2141 5.14078 36.3358 5.13979C36.7268 5.13684 37.1178 5.13488 37.5089 5.13317C37.6428 5.13254 37.7767 5.13191 37.9146 5.13126C38.6237 5.12809 39.3329 5.12579 40.042 5.12408C40.6274 5.1225 41.2127 5.1192 41.798 5.11435C42.506 5.10848 43.2141 5.10556 43.9222 5.10472C44.1911 5.10392 44.4601 5.10212 44.729 5.09927C46.4484 5.08209 47.7965 5.07108 49.1657 6.23306C49.9416 7.12131 50.452 8.20422 50.3926 9.40904C50.1898 10.7204 49.7025 11.7951 48.6468 12.623C47.7794 13.1678 46.911 13.2837 45.9038 13.2788C45.7841 13.2796 45.6644 13.2804 45.5411 13.2813C45.1482 13.2834 44.7555 13.283 44.3626 13.2823C44.0878 13.2828 43.8129 13.2835 43.5381 13.2842C42.9631 13.2852 42.3882 13.285 41.8132 13.2838C41.0785 13.2824 40.3438 13.2848 39.6091 13.2883C39.0418 13.2905 38.4745 13.2904 37.9073 13.2897C37.6365 13.2897 37.3656 13.2904 37.0948 13.2919C36.7154 13.2937 36.3361 13.2924 35.9566 13.2904C35.7908 13.2921 35.7908 13.2921 35.6217 13.2939C34.3599 13.2798 33.4345 12.8162 32.5608 11.9262C31.8155 11.1603 31.5638 10.2486 31.5526 9.19824C31.5738 7.90167 31.9654 7.07471 32.8559 6.13855C33.5585 5.52225 34.3934 5.15433 35.3301 5.14735ZM34.2954 8.33092C34.0617 8.80738 33.9998 9.15225 34.1027 9.67267C34.3728 10.2029 34.6321 10.4919 35.1701 10.7401C35.541 10.792 35.9083 10.79 36.2823 10.7881C36.3934 10.7889 36.5046 10.7897 36.6191 10.7905C36.986 10.7927 37.3528 10.7922 37.7197 10.7916C37.9751 10.7921 38.2305 10.7927 38.4859 10.7934C39.021 10.7945 39.5561 10.7942 40.0912 10.793C40.7765 10.7917 41.4618 10.7941 42.1471 10.7975C42.6745 10.7997 43.2019 10.7997 43.7292 10.799C43.9819 10.799 44.2346 10.7997 44.4872 10.8012C44.8407 10.8029 45.194 10.8017 45.5475 10.7996C45.7036 10.8014 45.7036 10.8014 45.8629 10.8031C46.5082 10.7953 46.8727 10.6918 47.3866 10.2657C47.712 9.92245 47.7959 9.68399 47.8018 9.21306C47.7892 8.78765 47.7428 8.52494 47.4756 8.19008C47.0572 7.80972 46.7582 7.6271 46.1905 7.62543C46.0473 7.62417 46.0473 7.62417 45.9013 7.62288C45.7976 7.62317 45.694 7.62347 45.5872 7.62377C45.4772 7.62316 45.3672 7.62256 45.2539 7.62193C44.8903 7.62028 44.5266 7.6204 44.1629 7.62067C43.91 7.62021 43.6571 7.6197 43.4042 7.61913C42.874 7.61825 42.3438 7.61828 41.8136 7.61891C41.1345 7.61959 40.4554 7.61759 39.7763 7.61483C39.254 7.61308 38.7316 7.61298 38.2092 7.61335C37.9588 7.61329 37.7085 7.61267 37.4582 7.61148C37.1078 7.61001 36.7576 7.61081 36.4072 7.61219C36.304 7.61128 36.2009 7.61037 36.0946 7.60944C35.3374 7.616 34.817 7.7407 34.2954 8.33092Z" fill="var(--fill-0, #FF5100)"/>
<path id="Vector_3" d="M49.8255 36.6203C51.0259 37.6082 51.9276 38.6944 52.4867 40.1546C52.5248 40.2502 52.5629 40.3458 52.6021 40.4442C53.2002 42.222 52.9435 44.3117 52.168 45.9812C51.1904 47.8277 49.631 49.1948 47.6238 49.8137C45.3613 50.3537 43.3288 49.9614 41.3377 48.813C39.7473 47.7823 38.7558 46.2054 38.2761 44.3948C37.8711 42.4235 38.1799 40.4797 39.1902 38.7434C40.3608 37.0191 42.0056 35.8553 44.0508 35.3733C45.9901 35.0552 48.2328 35.3963 49.8255 36.6203ZM41.6152 39.6881C41.1929 40.2847 40.9306 40.873 40.7446 41.5779C40.7177 41.6758 40.6908 41.7736 40.6631 41.8744C40.4958 43.2125 40.7982 44.5049 41.6045 45.6036C42.41 46.5511 43.4138 47.2747 44.6587 47.5083C46.0727 47.6194 47.3611 47.443 48.4772 46.5145C48.5479 46.451 48.6185 46.3876 48.6913 46.3222C48.8009 46.2289 48.8009 46.2289 48.9128 46.1336C49.7588 45.3621 50.2935 44.2668 50.3777 43.1235C50.4189 41.6544 50.0492 40.3983 49.0425 39.2971C48.021 38.3351 46.8916 37.8574 45.5037 37.7454C44.0178 37.7927 42.5441 38.5319 41.6152 39.6881Z" fill="var(--fill-0, #FF5100)"/>
<path id="Vector_4" d="M13.4861 5.79234C14.386 6.40075 14.9178 7.26088 15.1888 8.3044C15.4034 9.46489 15.1913 10.5268 14.5772 11.5332C14.0035 12.3355 13.1541 13.0579 12.1606 13.2308C10.699 13.3391 9.53826 13.246 8.37445 12.2856C7.49753 11.4285 7.12887 10.4519 7.02344 9.25001C7.04238 8.15324 7.45521 7.00149 8.24657 6.23294C8.58485 5.95805 8.93292 5.73223 9.31404 5.5213C9.38559 5.48079 9.45714 5.44027 9.53086 5.39853C10.8167 4.79752 12.3169 5.10169 13.4861 5.79234ZM9.8107 8.35304C9.62244 8.68993 9.56644 8.92945 9.55125 9.31673C9.73083 9.86493 9.9313 10.2556 10.3815 10.6214C10.9122 10.7983 11.3682 10.8281 11.8863 10.5992C12.3449 10.2398 12.5912 9.95201 12.7462 9.38344C12.7549 8.88651 12.6722 8.66086 12.3978 8.24926C11.9935 7.88441 11.7274 7.6716 11.1821 7.61916C10.5664 7.67047 10.2336 7.91558 9.8107 8.35304Z" fill="var(--fill-0, #FF5100)"/>
<path id="Vector_5" d="M23.9022 5.75858C24.8228 6.45778 25.3933 7.32868 25.6327 8.46199C25.7946 9.75209 25.4612 10.8057 24.7695 11.8817C23.8572 12.8186 22.8387 13.2615 21.5449 13.2827C20.3008 13.271 19.4637 12.9257 18.5621 12.0702C17.7316 11.1397 17.4446 10.0986 17.4682 8.87155C17.55 7.7936 18.0372 6.86441 18.8109 6.11255C20.2724 4.89849 22.2645 4.75526 23.9022 5.75858ZM20.3143 8.31604C19.9667 8.80029 19.9673 9.06215 20.0382 9.64203C20.1787 10.1906 20.6078 10.4415 21.0556 10.7401C21.6239 10.796 21.8893 10.8009 22.3974 10.5325C22.9011 10.1332 22.9011 10.1332 23.1095 9.54891C23.1431 8.90044 23.039 8.51322 22.5975 8.01211C22.2451 7.72639 22.0431 7.66043 21.5894 7.61182C20.9863 7.67643 20.7107 7.86464 20.3143 8.31604Z" fill="var(--fill-0, #FF5100)"/>
<path id="Vector_6" d="M25.4444 25.9216C25.885 26.2769 26.2559 26.6845 26.6304 27.1077C26.7038 27.1895 26.7772 27.2713 26.8528 27.3556C26.9864 27.5068 27.1188 27.6591 27.2499 27.8124C27.4929 28.0939 27.7436 28.3677 27.9944 28.6422C29.5273 30.3404 29.5273 30.3404 29.5085 31.435C29.4263 32.2141 28.7132 32.7804 28.2071 33.3337C27.9744 33.5881 27.7461 33.8452 27.52 34.1055C25.6396 36.2615 25.6396 36.2615 25.2072 36.4777C24.2869 36.5288 24.2869 36.5288 23.9025 36.2405C23.6291 35.8988 23.5503 35.6759 23.4948 35.2397C23.5923 34.4453 24.1791 33.9091 24.7105 33.3494C24.837 33.2139 24.9635 33.0783 25.0899 32.9426C25.1811 32.8452 25.1811 32.8452 25.2741 32.7458C25.4957 32.5087 25.7161 32.2708 25.9336 32.0299C25.9951 31.9626 26.0566 31.8954 26.1199 31.826C26.3053 31.5729 26.406 31.316 26.5118 31.0217C26.3979 30.897 26.3979 30.897 26.2816 30.7697C25.1022 29.476 25.1022 29.476 24.7017 29.0087C24.5484 28.8299 24.3919 28.654 24.2338 28.4796C23.4854 27.6185 23.4854 27.6185 23.4503 27.0781C23.5722 26.5153 23.7261 26.316 24.1397 25.9216C24.6164 25.7627 24.9782 25.7421 25.4444 25.9216Z" fill="var(--fill-0, #FF5100)"/>
<path id="Vector_7" d="M12.1605 25.9218C12.4875 26.123 12.599 26.2727 12.7058 26.6399C12.7912 27.1321 12.8119 27.3614 12.5557 27.8102C12.2723 28.1843 11.9709 28.5315 11.649 28.8722C11.5333 28.9966 11.4176 29.121 11.302 29.2456C11.2461 29.3056 11.1902 29.3657 11.1326 29.4275C10.7946 29.7932 10.4636 30.1655 10.1442 30.5475C10.0415 30.6631 10.0415 30.6631 9.93663 30.781C9.76252 31.0076 9.76252 31.0076 9.81681 31.249C9.92035 31.533 10.0433 31.6815 10.2526 31.8985C10.323 31.9724 10.3933 32.0464 10.4658 32.1226C10.5407 32.1997 10.6156 32.2768 10.6928 32.3562C10.8447 32.5158 10.9965 32.6755 11.1482 32.8353C11.2209 32.9115 11.2937 32.9877 11.3687 33.0661C12.7032 34.471 12.7032 34.471 12.8129 35.225C12.7341 35.786 12.557 35.9627 12.1605 36.3592C11.7917 36.5436 11.5007 36.5118 11.0931 36.4778C10.5361 36.1994 10.1806 35.8002 9.78652 35.3321C9.51768 35.0151 9.23877 34.7088 8.95813 34.4022C8.04026 33.3939 8.04026 33.3939 7.72526 33.0243C7.59568 32.8724 7.46234 32.7235 7.32589 32.5777C6.84411 32.0229 6.74542 31.5993 6.75185 30.869C6.9034 30.1861 7.40357 29.6976 7.86842 29.1983C8.21874 28.8188 8.56764 28.4393 8.90623 28.0493C11.0097 25.6318 11.0097 25.6318 12.1605 25.9218Z" fill="var(--fill-0, #FF5100)"/>
<path id="Vector_8" d="M19.8699 24.973C20.2849 25.2237 20.4281 25.3427 20.5816 25.8032C20.6145 26.4254 20.5264 26.9843 20.3803 27.5856C20.3589 27.6769 20.3375 27.7683 20.3155 27.8624C20.2449 28.1621 20.1731 28.4616 20.1011 28.761C20.0514 28.9705 20.0017 29.1801 19.9521 29.3897C19.8481 29.8281 19.7434 30.2663 19.6383 30.7045C19.5039 31.2645 19.3711 31.8249 19.2387 32.3854C19.1364 32.818 19.0334 33.2504 18.9301 33.6828C18.8808 33.8893 18.8318 34.0958 18.783 34.3024C18.7145 34.5918 18.645 34.8809 18.5753 35.1699C18.5555 35.2544 18.5357 35.3388 18.5153 35.4258C18.1983 36.7262 18.1983 36.7262 17.7498 37.1747C17.4462 37.3354 17.2505 37.4106 16.9047 37.4267C16.491 37.2912 16.174 37.1576 15.8447 36.8708C15.5256 36.1763 15.7571 35.3464 15.9289 34.6347C15.9513 34.5384 15.9736 34.442 15.9967 34.3427C16.0703 34.027 16.1455 33.7117 16.2209 33.3964C16.273 33.1758 16.325 32.9552 16.377 32.7346C16.486 32.2736 16.5958 31.8127 16.7061 31.352C16.8472 30.7621 16.9859 30.1718 17.124 29.5812C17.2307 29.126 17.339 28.6712 17.4476 28.2164C17.4993 27.9989 17.5506 27.7812 17.6013 27.5634C17.6725 27.2591 17.7456 26.9552 17.8192 26.6515C17.8397 26.5619 17.8601 26.4724 17.8812 26.3801C18.0131 25.8474 18.1832 25.4874 18.5652 25.0916C18.9756 24.8864 19.4212 24.9156 19.8699 24.973Z" fill="var(--fill-0, #FF5100)"/>
<path id="Vector_9" d="M18.684 44.0687C19.1041 44.4363 19.2585 44.6483 19.3364 45.2029C19.2739 45.6326 19.1849 45.8619 18.9212 46.2036C18.4446 46.5214 18.0582 46.5234 17.498 46.4409C17.1575 46.2281 16.9653 46.0871 16.7863 45.7292C16.7364 45.3664 16.7294 45.024 16.7863 44.6618C17.3078 43.9853 17.8642 43.8119 18.684 44.0687Z" fill="var(--fill-0, #FF5100)"/>
</g>
</svg>
