<svg preserveAspectRatio="none" width="100%" height="100%" overflow="visible" style="display: block;" viewBox="0 0 52.1508 58" fill="none" xmlns="http://www.w3.org/2000/svg">
<g id="Group 280">
<path id="Vector" d="M43.0123 18.1202C43.0953 18.1196 43.1783 18.119 43.2638 18.1184C43.5378 18.1167 43.8117 18.1159 44.0856 18.1153C44.2767 18.1146 44.4677 18.1139 44.6587 18.1132C45.0591 18.112 45.4595 18.1113 45.8598 18.1109C46.3716 18.1103 46.8833 18.1075 47.395 18.1042C47.7896 18.102 48.1842 18.1014 48.5789 18.1012C48.7675 18.1009 48.956 18.0999 49.1446 18.0984C49.4091 18.0964 49.6736 18.0966 49.9381 18.0974C50.1634 18.0967 50.1634 18.0967 50.3932 18.0961C50.9615 18.1537 51.4438 18.2933 51.8521 18.7152C52.0935 19.1579 52.1148 19.5622 52.1154 20.0613C52.1159 20.1918 52.1163 20.3223 52.1168 20.4568C52.1167 20.6002 52.1166 20.7436 52.1165 20.8913C52.1168 21.0437 52.1172 21.196 52.1175 21.353C52.1185 21.7761 52.1187 22.1993 52.1187 22.6225C52.119 23.0788 52.1198 23.5351 52.1206 23.9914C52.1222 24.9892 52.1229 25.9871 52.1234 26.9849C52.1238 27.6079 52.1242 28.2308 52.1248 28.8538C52.1262 30.5784 52.1274 32.303 52.1278 34.0276C52.1278 34.1931 52.1278 34.1931 52.1279 34.3621C52.1279 34.528 52.1279 34.528 52.1279 34.6973C52.128 34.9215 52.1281 35.1458 52.1281 35.37C52.1281 35.4812 52.1282 35.5924 52.1282 35.707C52.1286 37.5094 52.1307 39.3119 52.1334 41.1144C52.1362 42.9646 52.1376 44.8149 52.1378 46.6651C52.1379 47.7041 52.1385 48.7431 52.1407 49.7821C52.1425 50.6667 52.1431 51.5513 52.1421 52.4359C52.1416 52.8873 52.1417 53.3386 52.1434 53.7899C52.1451 54.2793 52.1442 54.7686 52.143 55.2579C52.1444 55.4718 52.1444 55.4718 52.1458 55.6901C52.1416 56.4113 52.1127 56.9565 51.7499 57.5879C51.2915 57.9878 50.8249 57.9887 50.2416 57.9852C50.1045 57.9864 50.1045 57.9864 49.9647 57.9876C49.6638 57.9897 49.3629 57.9893 49.0619 57.9886C48.8522 57.9891 48.6424 57.9898 48.4327 57.9905C47.9936 57.9915 47.5545 57.9912 47.1153 57.9901C46.5529 57.9887 45.9906 57.9911 45.4282 57.9945C44.9952 57.9966 44.5623 57.9966 44.1293 57.9959C43.922 57.9959 43.7146 57.9966 43.5073 57.9981C43.2173 57.9998 42.9274 57.9986 42.6374 57.9966C42.5521 57.9977 42.4667 57.9988 42.3787 58C41.9682 57.994 41.7292 57.9483 41.3776 57.7301C40.9553 57.2901 40.8665 56.9635 40.8659 56.3579C40.8653 56.2256 40.8646 56.0933 40.8639 55.957C40.8643 55.8116 40.8648 55.6663 40.8652 55.5165C40.8649 55.3605 40.8644 55.2045 40.8639 55.0486C40.8627 54.6196 40.8629 54.1907 40.8634 53.7617C40.8637 53.2992 40.8627 52.8367 40.8618 52.3742C40.8603 51.468 40.8601 50.5619 40.8604 49.6557C40.8606 48.9193 40.8604 48.1829 40.8599 47.4465C40.8598 47.3418 40.8597 47.237 40.8597 47.1292C40.8595 46.9164 40.8594 46.7037 40.8592 46.491C40.858 44.4951 40.8582 42.4993 40.8589 40.5034C40.8595 38.6767 40.8582 36.8499 40.856 35.0231C40.8537 33.1483 40.8528 31.2736 40.8532 29.3988C40.8534 28.3458 40.8531 27.2929 40.8515 26.24C40.8501 25.3436 40.8499 24.4473 40.8513 23.551C40.852 23.0935 40.8522 22.6361 40.8508 22.1786C40.8495 21.76 40.8499 21.3414 40.8515 20.9227C40.852 20.6992 40.8507 20.4758 40.8494 20.2523C40.8502 20.1197 40.851 19.9871 40.8519 19.8505C40.8519 19.7361 40.8519 19.6217 40.8519 19.5038C40.9178 19.0299 41.1201 18.7193 41.4719 18.4016C41.9648 18.1028 42.4445 18.1232 43.0123 18.1202ZM43.8135 21.0568C43.8135 32.3032 43.8135 43.5497 43.8135 55.1369C45.5852 55.1369 47.3569 55.1369 49.1822 55.1369C49.1822 43.8905 49.1822 32.644 49.1822 21.0568C47.4105 21.0568 45.6388 21.0568 43.8135 21.0568Z" fill="var(--fill-0, #FF5100)"/>
<path id="Vector_2" d="M45.4883 0.00334452C45.6746 0.00168898 45.6746 0.00168898 45.8648 0C45.9984 0.000708761 46.132 0.00141752 46.2697 0.00214776C46.4765 0.00164528 46.4765 0.00164528 46.6874 0.00113265C46.9789 0.000894415 47.2704 0.00154027 47.5618 0.00300259C48.0078 0.00487438 48.4537 0.00302121 48.8996 0.000780032C49.1828 0.00101144 49.466 0.00146011 49.7492 0.00214776C49.8826 0.001439 50.016 0.000730239 50.1534 0C50.3403 0.00165554 50.3403 0.00165554 50.5311 0.00334452C50.6403 0.00362309 50.7496 0.00390165 50.8622 0.00418866C51.2333 0.0580617 51.4507 0.178063 51.752 0.398789C52.1577 1.08005 52.1534 1.71778 52.1487 2.49643C52.149 2.61796 52.1493 2.73949 52.1497 2.8647C52.1499 3.12062 52.1493 3.37655 52.1478 3.63247C52.1459 4.02333 52.1478 4.41406 52.15 4.80492C52.1498 5.05423 52.1493 5.30353 52.1487 5.55284C52.1494 5.6692 52.1501 5.78557 52.1508 5.90546C52.143 6.68105 52.0341 7.19345 51.5113 7.79546C51.01 8.07278 50.5614 8.09158 50.0013 7.98511C49.6375 7.78714 49.3723 7.5441 49.1843 7.16812C49.1572 6.8321 49.1353 6.49802 49.1187 6.16148C49.1136 6.0679 49.1086 5.97432 49.1034 5.8779C49.091 5.64663 49.0793 5.41532 49.0676 5.18401C49.0176 5.23421 48.9676 5.28442 48.9161 5.33614C47.6991 6.55832 46.4815 7.77985 45.2631 9.00066C44.6739 9.59106 44.0849 10.1817 43.4964 10.7728C42.9835 11.2881 42.4701 11.803 41.9562 12.3174C41.6842 12.5897 41.4125 12.8623 41.1411 13.1352C40.8379 13.4401 40.534 13.7442 40.23 14.0482C40.1404 14.1386 40.0508 14.229 39.9585 14.3221C38.8888 15.3878 38.8888 15.3878 38.1623 15.3891C38.0782 15.3913 37.9941 15.3936 37.9074 15.3959C37.1851 15.2453 36.6447 14.6281 36.1271 14.1344C35.9822 13.998 35.8372 13.8617 35.6922 13.7255C35.6234 13.6608 35.5546 13.596 35.4837 13.5294C35.1916 13.257 34.8914 12.9948 34.5879 12.7352C34.4095 12.5788 34.2353 12.4176 34.0627 12.2547C33.9592 12.1577 33.8557 12.0606 33.7491 11.9606C33.6546 11.8705 33.5601 11.7804 33.4628 11.6875C33.1883 11.4398 33.1883 11.4398 32.7278 11.4865C32.4597 11.6856 32.4597 11.6856 32.1947 11.9642C32.0884 12.0701 31.982 12.176 31.8724 12.2851C31.7554 12.404 31.6384 12.5228 31.5214 12.6417C31.3977 12.7658 31.2738 12.8898 31.1498 13.0137C30.8131 13.3508 30.4779 13.6892 30.1429 14.028C29.7924 14.3817 29.4406 14.7342 29.089 15.0867C28.4229 15.7549 27.7579 16.4242 27.0934 17.0939C26.1174 18.0775 25.1399 19.0596 24.1622 20.0415C24.0906 20.1134 24.019 20.1853 23.9452 20.2594C23.8025 20.4027 23.6597 20.546 23.517 20.6893C23.0981 21.11 22.6797 21.531 22.2616 21.9524C22.0019 22.2142 21.7419 22.4756 21.4819 22.7371C21.3611 22.8587 21.2403 22.9804 21.1197 23.1022C20.9555 23.2681 20.7909 23.4335 20.6263 23.5989C20.5342 23.6917 20.4421 23.7846 20.3471 23.8802C19.9372 24.2663 19.5759 24.2634 19.03 24.2533C18.485 24.1734 18.1827 23.8748 17.7886 23.5079C17.6678 23.398 17.547 23.2881 17.4262 23.1783C17.1605 22.9354 16.8966 22.6907 16.6338 22.4447C16.2858 22.1194 15.93 21.8044 15.5697 21.4928C15.0979 21.0812 14.635 20.6597 14.1705 20.2399C13.5099 20.789 12.9029 21.377 12.2988 21.9873C12.1964 22.0902 12.094 22.1932 11.9885 22.2992C11.7673 22.5217 11.5461 22.7442 11.3252 22.9669C10.9753 23.3196 10.6248 23.6716 10.2742 24.0235C9.27774 25.0238 8.28183 26.0246 7.28713 27.0266C6.73663 27.5811 6.1855 28.1351 5.63366 28.6883C5.28541 29.0375 4.93794 29.3874 4.59104 29.7379C4.32387 30.0074 4.05555 30.2757 3.7874 30.5442C3.69231 30.6408 3.59722 30.7373 3.49924 30.8368C2.36017 31.9718 2.36018 31.9718 1.62662 32.0644C1.05974 31.9819 0.678878 31.8897 0.28169 31.4444C0.0183531 30.9057 -0.00330144 30.5012 0.164977 29.9271C0.742215 29.1396 1.49278 28.4652 2.18155 27.7769C2.30052 27.6575 2.41947 27.5382 2.53839 27.4188C2.8588 27.0974 3.17959 26.7763 3.50047 26.4554C3.70115 26.2546 3.90175 26.0538 4.10232 25.8529C4.80256 25.1516 5.5031 24.4506 6.20392 23.7498C6.85663 23.0972 7.50869 22.4439 8.16044 21.7903C8.72116 21.2281 9.28232 20.6663 9.84384 20.1048C10.1788 19.7699 10.5135 19.4349 10.8478 19.0993C11.1616 18.7844 11.4759 18.4701 11.7907 18.1561C11.9061 18.0409 12.0213 17.9254 12.1362 17.8097C12.2932 17.6519 12.4509 17.4949 12.6086 17.3379C12.7407 17.2058 12.7407 17.2058 12.8754 17.071C13.2402 16.7494 13.4896 16.6329 13.9736 16.5781C14.8038 16.6625 15.2756 17.1126 15.8277 17.6905C16.1072 17.9766 16.4076 18.2337 16.7104 18.4947C17.0181 18.7632 17.3194 19.0381 17.6208 19.3135C18.0974 19.7483 18.5796 20.1739 19.0724 20.5901C19.484 20.4144 19.7477 20.1766 20.062 19.8605C20.166 19.7564 20.2701 19.6523 20.3773 19.5451C20.4917 19.4295 20.6062 19.3138 20.7206 19.1982C20.8417 19.0766 20.9629 18.9551 21.0841 18.8336C21.345 18.572 21.6054 18.3101 21.8655 18.048C22.2769 17.6334 22.6891 17.2198 23.1015 16.8064C23.9767 15.9286 24.8509 15.0498 25.7251 14.1709C26.6687 13.2221 27.6126 12.2734 28.5576 11.3259C28.9675 10.9148 29.3769 10.5031 29.7858 10.091C30.0403 9.83485 30.2952 9.57916 30.5502 9.3236C30.6684 9.20495 30.7864 9.08611 30.9042 8.96705C31.065 8.80459 31.2266 8.64292 31.3882 8.48128C31.4784 8.39057 31.5686 8.29986 31.6615 8.20639C32.1203 7.79927 32.4505 7.72521 33.0666 7.70929C33.6372 7.80812 34.0444 8.21693 34.4566 8.59785C34.8086 8.92022 35.1609 9.24094 35.5216 9.55344C35.9037 9.8859 36.2784 10.2258 36.6523 10.5674C37.0863 10.9634 37.5236 11.3499 37.9799 11.7199C38.321 11.5658 38.5626 11.3996 38.8264 11.135C38.8987 11.063 38.971 10.991 39.0455 10.9168C39.1235 10.8379 39.2015 10.7591 39.2819 10.6779C39.4066 10.5532 39.4066 10.5532 39.5339 10.426C39.8085 10.1512 40.0823 9.87556 40.3561 9.59994C40.5464 9.4092 40.7368 9.21852 40.9272 9.02788C41.4281 8.52607 41.9283 8.02356 42.4284 7.52091C42.9388 7.00807 43.4499 6.4959 43.961 5.98367C44.9636 4.97858 45.9654 3.97276 46.9668 2.96647C46.8233 2.96481 46.6797 2.96316 46.5319 2.96145C46.3413 2.95598 46.1507 2.95035 45.9601 2.94458C45.8658 2.94391 45.7715 2.94323 45.6743 2.94253C44.9756 2.91697 44.6475 2.77911 44.1657 2.26619C43.978 1.70311 43.9551 1.19368 44.1949 0.654098C44.5814 0.170916 44.8663 0.00493149 45.4883 0.00334452Z" fill="var(--fill-0, #FF5100)"/>
<path id="Vector_3" d="M29.4558 26.5255C29.5769 26.5249 29.5769 26.5249 29.7004 26.5243C29.9667 26.5232 30.2331 26.5229 30.4994 26.5228C30.6852 26.5224 30.871 26.522 31.0568 26.5216C31.4462 26.5209 31.8356 26.5207 32.225 26.5208C32.7226 26.5208 33.2202 26.5192 33.7178 26.5172C34.1016 26.5159 34.4854 26.5157 34.8692 26.5157C35.0525 26.5156 35.2359 26.5151 35.4193 26.5142C35.6765 26.513 35.9337 26.5134 36.1909 26.5141C36.41 26.5138 36.41 26.5138 36.6335 26.5136C37.2047 26.5534 37.6925 26.6354 38.1418 27.002C38.4232 27.359 38.4628 27.6534 38.4639 28.0933C38.4644 28.196 38.4649 28.2987 38.4655 28.4046C38.4654 28.5175 38.4654 28.6304 38.4654 28.7468C38.4658 28.8667 38.4663 28.9866 38.4667 29.1102C38.468 29.5139 38.4684 29.9176 38.4689 30.3214C38.4696 30.61 38.4704 30.8987 38.4712 31.1874C38.4734 32.055 38.4747 32.9226 38.4757 33.7903C38.4762 34.1988 38.4769 34.6073 38.4775 35.0159C38.4795 36.3738 38.4811 37.7317 38.482 39.0897C38.4822 39.4421 38.4824 39.7944 38.4827 40.1468C38.4827 40.2343 38.4828 40.3219 38.4828 40.4122C38.4838 41.8313 38.4868 43.2504 38.4906 44.6696C38.4944 46.1264 38.4965 47.5833 38.4969 49.0401C38.4971 49.8581 38.4982 50.6762 38.5011 51.4942C38.5039 52.2635 38.5044 53.0328 38.5032 53.8022C38.5031 54.0848 38.5038 54.3674 38.5054 54.6499C38.5075 55.0353 38.5067 55.4206 38.5051 55.806C38.5064 55.9182 38.5077 56.0303 38.509 56.1459C38.5027 56.8009 38.4281 57.1904 37.9814 57.7047C37.5523 57.9907 37.2291 57.9719 36.7329 57.9702C36.5959 57.9711 36.5959 57.9711 36.4562 57.972C36.154 57.9736 35.8518 57.9735 35.5495 57.9732C35.3395 57.9737 35.1294 57.9742 34.9194 57.9748C34.4788 57.9756 34.0383 57.9756 33.5978 57.975C33.0336 57.9743 32.4694 57.9763 31.9051 57.979C31.4712 57.9807 31.0372 57.9808 30.6033 57.9804C30.3953 57.9805 30.1873 57.9811 29.9793 57.9823C29.6882 57.9837 29.3971 57.9829 29.106 57.9816C29.0203 57.9825 28.9345 57.9834 28.8462 57.9843C28.3303 57.979 27.987 57.9315 27.5939 57.588C27.2271 56.9101 27.1939 56.3412 27.1993 55.5794C27.1988 55.4611 27.1982 55.3428 27.1977 55.2209C27.1963 54.8253 27.1974 54.4298 27.1985 54.0342C27.198 53.7502 27.1974 53.4663 27.1966 53.1823C27.1952 52.4916 27.1954 51.801 27.1964 51.1103C27.1972 50.5489 27.1973 49.9874 27.1969 49.426C27.1969 49.346 27.1968 49.266 27.1968 49.1836C27.1967 49.0211 27.1965 48.8586 27.1964 48.6961C27.1954 47.1732 27.1966 45.6503 27.1985 44.1275C27.2 42.8215 27.1998 41.5155 27.1981 40.2095C27.1963 38.692 27.1955 37.1745 27.1966 35.657C27.1967 35.4951 27.1968 35.3332 27.1969 35.1713C27.197 35.0917 27.197 35.012 27.1971 34.9299C27.1974 34.3693 27.1969 33.8087 27.1961 33.2481C27.195 32.4932 27.1958 31.7384 27.1978 30.9835C27.1982 30.7064 27.1981 30.4293 27.1973 30.1523C27.1964 29.7741 27.1976 29.396 27.1993 29.0179C27.1985 28.9082 27.1978 28.7985 27.197 28.6855C27.2028 28.0386 27.2818 27.5803 27.5939 27.0093C28.1854 26.5543 28.7266 26.5277 29.4558 26.5255ZM30.1616 29.4602C30.1616 37.9336 30.1616 46.4069 30.1616 55.137C31.9333 55.137 33.705 55.137 35.5304 55.137C35.5304 46.6637 35.5304 38.1903 35.5304 29.4602C33.7587 29.4602 31.987 29.4602 30.1616 29.4602Z" fill="var(--fill-0, #FF5100)"/>
<path id="Vector_4" d="M15.5285 33.8632C15.6176 33.8626 15.7067 33.862 15.7984 33.8613C16.0924 33.8597 16.3864 33.8598 16.6804 33.8601C16.8851 33.8597 17.0897 33.8591 17.2944 33.8586C17.7232 33.8577 18.1521 33.8578 18.5809 33.8584C19.1301 33.859 19.6793 33.8571 20.2284 33.8544C20.6511 33.8526 21.0737 33.8525 21.4963 33.8529C21.6988 33.8528 21.9013 33.8522 22.1037 33.8511C22.387 33.8496 22.6702 33.8504 22.9535 33.8518C23.0369 33.8509 23.1203 33.85 23.2062 33.8491C23.7169 33.8544 24.0335 33.9372 24.4423 34.2453C24.903 34.7719 24.9264 35.249 24.9255 35.9231C24.9259 36.0115 24.9262 36.0998 24.9266 36.1909C24.9276 36.4879 24.9278 36.7849 24.9279 37.0819C24.9285 37.2945 24.9291 37.5071 24.9297 37.7197C24.9312 38.298 24.932 38.8762 24.9325 39.4545C24.9328 39.8158 24.9333 40.177 24.9338 40.5383C24.9354 41.6684 24.9366 42.7985 24.937 43.9286C24.9375 45.2334 24.9396 46.5381 24.943 47.8429C24.9455 48.8513 24.9467 49.8596 24.9468 50.868C24.947 51.4703 24.9476 52.0726 24.9497 52.6749C24.9516 53.2416 24.9519 53.8083 24.9509 54.3751C24.9508 54.5829 24.9513 54.7907 24.9524 54.9985C24.9539 55.2827 24.9532 55.5667 24.952 55.8509C24.953 55.9327 24.9539 56.0146 24.9549 56.0989C24.949 56.6842 24.8232 57.0761 24.559 57.5879C24.1005 57.9878 23.634 57.9888 23.0506 57.9852C22.9593 57.986 22.8679 57.9868 22.7738 57.9876C22.4728 57.9897 22.1719 57.9893 21.871 57.9886C21.6612 57.9892 21.4515 57.9898 21.2418 57.9905C20.8027 57.9915 20.3635 57.9912 19.9244 57.9901C19.362 57.9887 18.7996 57.9911 18.2372 57.9945C17.8043 57.9967 17.3714 57.9966 16.9384 57.996C16.7311 57.9959 16.5237 57.9966 16.3164 57.9981C16.0264 57.9998 15.7365 57.9986 15.4465 57.9966C15.3184 57.9983 15.3184 57.9983 15.1878 58C14.7773 57.9941 14.5382 57.9483 14.1867 57.7301C13.7013 57.2245 13.6706 56.7935 13.6735 56.111C13.673 56.0206 13.6724 55.9301 13.6719 55.8369C13.6704 55.5335 13.6706 55.2302 13.6708 54.9268C13.6701 54.7094 13.6693 54.492 13.6684 54.2746C13.6664 53.6838 13.6658 53.093 13.6657 52.5022C13.6654 52.0091 13.6646 51.516 13.6638 51.023C13.6619 49.8597 13.6613 48.6965 13.6615 47.5332C13.6616 46.333 13.6591 45.1327 13.6554 43.9325C13.6524 42.9022 13.6511 41.872 13.6513 40.8417C13.6514 40.2263 13.6507 39.6109 13.6482 38.9955C13.646 38.4167 13.6459 37.8379 13.6476 37.2591C13.6479 37.0467 13.6473 36.8343 13.6459 36.6219C13.6441 36.3319 13.6452 36.0419 13.647 35.7518C13.6458 35.6679 13.6446 35.584 13.6434 35.4975C13.6514 34.912 13.8077 34.5818 14.1716 34.1286C14.5756 33.8192 15.0397 33.8615 15.5285 33.8632ZM16.6225 36.813C16.6225 42.8599 16.6225 48.9068 16.6225 55.1369C18.3942 55.1369 20.1659 55.1369 21.9913 55.1369C21.9913 49.09 21.9913 43.0432 21.9913 36.813C20.2196 36.813 18.4479 36.813 16.6225 36.813Z" fill="var(--fill-0, #FF5100)"/>
<path id="Vector_5" d="M1.97394 40.5274C2.10722 40.5263 2.10722 40.5263 2.2432 40.5251C2.53728 40.5228 2.83134 40.5215 3.12542 40.5203C3.22595 40.5198 3.32648 40.5193 3.43005 40.5189C3.9621 40.5164 4.49414 40.5147 5.02619 40.5137C5.57526 40.5124 6.12426 40.5083 6.6733 40.5037C7.09594 40.5007 7.51857 40.4997 7.94121 40.4993C8.14358 40.4987 8.34595 40.4973 8.54831 40.4952C8.83188 40.4923 9.1153 40.4924 9.39888 40.4933C9.48203 40.4918 9.56517 40.4903 9.65084 40.4887C10.2371 40.4948 10.5734 40.6386 11.0195 41.015C11.2578 41.3878 11.2826 41.6845 11.2841 42.1225C11.2851 42.2528 11.2861 42.383 11.2871 42.5172C11.287 42.6596 11.2869 42.8019 11.2868 42.9486C11.2876 43.099 11.2884 43.2493 11.2892 43.4042C11.2913 43.8163 11.2918 44.2285 11.292 44.6406C11.2921 44.8982 11.2926 45.1558 11.2932 45.4134C11.2954 46.3125 11.2964 47.2115 11.2962 48.1106C11.296 48.9481 11.2985 49.7855 11.3022 50.623C11.3052 51.3425 11.3065 52.062 11.3063 52.7815C11.3063 53.2111 11.3069 53.6406 11.3094 54.0701C11.3121 54.5493 11.311 55.0284 11.3096 55.5076C11.3109 55.6495 11.3122 55.7914 11.3136 55.9376C11.3081 56.6746 11.2982 57.1532 10.7861 57.7049C10.357 57.9909 10.0338 57.972 9.53762 57.9704C9.44629 57.9709 9.35497 57.9715 9.26088 57.9722C8.95866 57.9738 8.65647 57.9737 8.35425 57.9734C8.14419 57.9739 7.93413 57.9744 7.72408 57.9749C7.28355 57.9758 6.84303 57.9758 6.4025 57.9751C5.83826 57.9745 5.27406 57.9764 4.70982 57.9791C4.27588 57.9809 3.84194 57.981 3.40799 57.9806C3.19999 57.9807 2.99198 57.9813 2.78398 57.9824C2.49286 57.9839 2.20183 57.9831 1.91071 57.9817C1.82496 57.9826 1.73921 57.9835 1.65086 57.9845C1.135 57.9792 0.791686 57.9317 0.39863 57.5882C-0.0457132 56.8666 -0.0011063 56.1354 0.00318524 55.3074C0.00257169 55.1616 0.00195813 55.0158 0.00132599 54.8655C5.27685e-05 54.4674 0.000345751 54.0693 0.00145866 53.6712C0.00234839 53.2536 0.00152218 52.836 0.00097337 52.4184C0.000337388 51.7174 0.00117325 51.0164 0.00284331 50.3154C0.00474951 49.506 0.00413064 48.6966 0.00220375 47.8871C0.000612936 47.1909 0.000391648 46.4947 0.00130706 45.7984C0.00185179 45.3831 0.00192879 44.9679 0.000769012 44.5526C-0.000433668 44.0897 0.00123501 43.6268 0.00318524 43.1639C0.00247648 43.0269 0.00176772 42.8899 0.00103748 42.7488C0.00710835 41.9711 0.0612127 41.4227 0.573699 40.8034C0.988061 40.4754 1.47357 40.5293 1.97394 40.5274ZM2.96631 43.4659C2.96631 47.3174 2.96631 51.169 2.96631 55.1372C4.73801 55.1372 6.50971 55.1372 8.3351 55.1372C8.3351 51.2857 8.3351 47.4342 8.3351 43.4659C6.5634 43.4659 4.7917 43.4659 2.96631 43.4659Z" fill="var(--fill-0, #FF5100)"/>
</g>
</svg>
