<svg preserveAspectRatio="none" width="100%" height="100%" overflow="visible" style="display: block;" viewBox="0 0 51.9485 52.0001" fill="none" xmlns="http://www.w3.org/2000/svg">
<g id="Group 19">
<path id="Vector" d="M7.18721 0.74322C8.0525 1.37785 8.46174 2.02695 8.9524 3.00825C13.065 3.04169 17.1776 3.07512 21.4148 3.10957C21.4148 2.40743 21.4148 1.70529 21.4148 0.981874C21.9017 0.251555 21.9017 0.251555 22.3267 0.0700034C22.6605 0.0307241 22.6605 0.0307241 23.0443 0.0290652C23.1145 0.0283698 23.1848 0.0276744 23.2571 0.026958C23.4883 0.0251105 23.7194 0.0254954 23.9506 0.0260721C24.112 0.0256098 24.2734 0.0250721 24.4348 0.0244627C24.7726 0.0235585 25.1105 0.0238026 25.4483 0.0248106C25.8805 0.0259745 26.3125 0.023927 26.7446 0.0209689C27.0778 0.0191064 27.411 0.0191385 27.7442 0.0197163C27.9034 0.0197318 28.0627 0.0191213 28.222 0.017863C28.4451 0.0163487 28.6681 0.0174366 28.8912 0.0191708C29.0812 0.019196 29.0812 0.019196 29.2752 0.0192218C29.6944 0.0806316 29.9056 0.205127 30.2297 0.475279C30.5337 0.981874 30.5337 0.981874 30.5337 3.10957C36.7026 3.05942 36.7026 3.05942 42.9961 3.00825C43.1633 2.6739 43.3305 2.33955 43.5027 1.99506C44.2149 0.996214 45.1551 0.368157 46.3397 0.0700034C46.6703 0.0259749 46.9943 0.01678 47.3276 0.0193439C47.4159 0.0199235 47.5042 0.0205031 47.5953 0.0211002C48.8907 0.0566351 49.8379 0.569233 50.7646 1.44612C51.7718 2.51305 51.97 3.72399 51.9468 5.1217C51.8916 6.37174 51.2639 7.35397 50.3735 8.19451C49.1614 9.18073 47.8407 9.32346 46.3397 9.18871C45.1512 8.92261 44.2224 8.22867 43.5027 7.26365C43.3355 6.92929 43.1684 6.59494 42.9961 6.25046C41.2575 6.25046 39.5188 6.25046 37.7275 6.25046C38.2624 6.58481 38.7974 6.91916 39.3486 7.26365C39.6374 7.47735 39.912 7.68496 40.1845 7.91589C40.2509 7.97104 40.3173 8.0262 40.3858 8.08303C41.0043 8.60073 41.602 9.13844 42.1856 9.6953C42.274 9.77954 42.3624 9.86378 42.4535 9.95058C44.028 11.4863 45.2952 13.3379 46.3397 15.2678C46.3779 15.3385 46.4161 15.4091 46.4555 15.4818C48.0197 18.4345 48.8772 21.8306 48.9044 25.1654C48.9073 25.2867 48.9103 25.408 48.9133 25.5329C48.9214 26.6558 48.9214 26.6558 48.4674 27.1222C47.9383 27.5331 47.388 27.5045 46.745 27.4261C46.2877 27.2095 46.0415 26.975 45.8331 26.5142C45.7474 26.1061 45.7197 25.7085 45.7076 25.2921C45.5432 20.1188 43.2715 15.2311 39.5631 11.6382C39.3609 11.4574 39.1533 11.2854 38.9433 11.1138C38.8352 11.0223 38.7272 10.9309 38.6192 10.8395C36.2336 8.84888 33.4829 7.65228 30.5337 6.75705C30.5384 6.85971 30.5431 6.96237 30.5479 7.06813C30.5517 7.20507 30.5554 7.34201 30.559 7.47895C30.5624 7.54634 30.5658 7.61374 30.5693 7.68317C30.5795 8.20525 30.4649 8.48986 30.1284 8.88475C29.7171 9.19182 29.4124 9.22745 28.9043 9.22964C28.834 9.23034 28.7638 9.23104 28.6914 9.23175C28.4602 9.2336 28.2291 9.23321 27.9979 9.23264C27.8365 9.2331 27.6752 9.23364 27.5138 9.23425C27.1759 9.23515 26.8381 9.23491 26.5002 9.2339C26.0681 9.23274 25.636 9.23478 25.2039 9.23774C24.8707 9.2396 24.5375 9.23957 24.2044 9.23899C24.0451 9.23898 23.8858 9.23959 23.7265 9.24085C23.5034 9.24236 23.2805 9.24127 23.0574 9.23954C22.9306 9.23952 22.8039 9.23951 22.6734 9.23949C22.1701 9.16576 21.8507 8.94348 21.53 8.55428C21.3805 8.19424 21.3816 7.86768 21.3958 7.48528C21.3972 7.41508 21.3986 7.34488 21.4 7.27255C21.4036 7.10068 21.409 6.92886 21.4148 6.75705C18.1462 7.79787 15.2849 9.05164 12.729 11.409C12.5149 11.6054 12.296 11.7936 12.0743 11.9813C8.74249 14.8917 6.75603 19.6581 6.31807 23.9813C6.29397 24.384 6.2789 24.7871 6.26563 25.1904C6.23728 25.8504 6.20888 26.4871 5.76714 27.0082C5.24938 27.4375 4.94449 27.4701 4.28691 27.4582C3.88587 27.4152 3.67126 27.2974 3.37977 27.0208C3.11575 26.6492 3.03702 26.3952 3.03544 25.9412C3.03481 25.8303 3.03418 25.7194 3.03353 25.6052C3.03495 25.4872 3.03636 25.3693 3.03781 25.2478C3.03877 25.1255 3.03972 25.0032 3.04071 24.8773C3.14125 18.8152 6.07244 13.3103 10.319 9.1238C10.9882 8.4952 11.7178 7.9431 12.4543 7.39663C12.5139 7.3521 12.5736 7.30757 12.635 7.26169C13.1489 6.8855 13.6679 6.58233 14.2211 6.25046C12.4824 6.25046 10.7438 6.25046 8.9524 6.25046C8.78522 6.58481 8.61805 6.91916 8.4458 7.26365C7.73365 8.2625 6.79339 8.89055 5.60882 9.18871C5.27822 9.23273 4.95423 9.24193 4.62095 9.23937C4.53262 9.23879 4.44428 9.23821 4.35327 9.23761C3.05785 9.20207 2.11066 8.68948 1.18396 7.81259C0.176725 6.74566 -0.0215233 5.53472 0.00175758 4.13701C0.0569343 2.88697 0.684614 1.90474 1.575 1.0642C3.16321 -0.228008 5.46768 -0.353609 7.18721 0.74322ZM24.4545 3.10957C24.4545 4.11263 24.4545 5.11569 24.4545 6.14914C25.4575 6.14914 26.4606 6.14914 27.4941 6.14914C27.4941 5.14608 27.4941 4.14302 27.4941 3.10957C26.491 3.10957 25.4879 3.10957 24.4545 3.10957ZM3.29111 3.83147C3.1199 4.26901 3.1103 4.67259 3.17713 5.13595C3.39628 5.58237 3.62262 5.86532 4.08901 6.04782C4.6 6.11715 4.98375 6.10598 5.45051 5.87684C5.79085 5.56971 5.98306 5.36479 6.04616 4.89967C6.07309 4.32038 6.01091 3.9604 5.60882 3.51485C5.22004 3.17181 4.83534 3.15892 4.33598 3.17527C3.86355 3.24341 3.59742 3.48433 3.29111 3.83147ZM46.0484 3.83147C45.8772 4.26901 45.8676 4.67259 45.9344 5.13595C46.1536 5.58237 46.3799 5.86532 46.8463 6.04782C47.3573 6.11715 47.741 6.10598 48.2078 5.87684C48.5481 5.56971 48.7403 5.36479 48.8035 4.89967C48.8304 4.32038 48.7682 3.9604 48.3661 3.51485C47.9773 3.17181 47.5926 3.15892 47.0933 3.17527C46.6208 3.24341 46.3547 3.48433 46.0484 3.83147Z" fill="var(--fill-0, #FF5100)"/>
<path id="Vector_2" d="M25.9629 12.1913C26.1175 12.187 26.1175 12.187 26.2752 12.1826C26.6627 12.2401 26.9148 12.371 27.1977 12.6346C27.4043 12.9304 27.5583 13.2481 27.7166 13.5718C27.7672 13.6719 27.8178 13.772 27.8699 13.8751C28.0186 14.1701 28.1657 14.4658 28.3125 14.7618C28.498 15.1346 28.686 15.5062 28.8735 15.878C29.3548 16.833 29.833 17.7897 30.3108 18.7465C30.4912 19.1075 30.6719 19.4684 30.8526 19.8293C31.0305 20.1848 31.2083 20.5404 31.3859 20.896C31.469 21.0621 31.552 21.2281 31.6352 21.3941C32.1043 22.3315 32.5641 23.2725 33.0141 24.2193C33.5067 25.2547 34.0204 26.2782 34.5431 27.2987C34.7966 27.7944 35.048 28.2911 35.2996 28.7876C35.6163 29.4124 35.9336 30.0368 36.2536 30.6598C36.5158 31.1706 36.7757 31.6825 37.0339 32.1953C37.1318 32.3884 37.2304 32.5811 37.33 32.7734C38.3717 34.7863 38.3717 34.7863 38.1403 35.7353C38.0313 36.0288 37.8872 36.2639 37.7038 36.5165C37.6353 36.6182 37.6353 36.6182 37.5655 36.7218C37.4694 36.8639 37.3722 37.0052 37.2739 37.1457C37.0847 37.4173 36.9034 37.6938 36.7216 37.9705C36.5829 38.1809 36.4425 38.3902 36.3018 38.5993C36.0963 38.9049 35.8941 39.2124 35.6936 39.5213C35.21 40.2621 34.7248 40.9842 34.1573 41.6639C31.9502 44.313 31.8384 46.8074 32.0578 50.1216C32.1027 50.9449 32.1027 50.9449 31.8918 51.3991C31.5207 51.7816 31.2355 51.961 30.7001 51.9856C30.5176 51.9877 30.3351 51.9881 30.1527 51.9872C30.0028 51.9883 30.0028 51.9883 29.8499 51.9894C29.5201 51.9912 29.1903 51.9908 28.8604 51.9902C28.6309 51.9907 28.4014 51.9912 28.1718 51.9919C27.6909 51.9928 27.2099 51.9925 26.7289 51.9915C26.1128 51.9903 25.4968 51.9924 24.8806 51.9953C24.4067 51.9972 23.9327 51.9972 23.4587 51.9966C23.2316 51.9966 23.0044 51.9972 22.7773 51.9984C22.4595 52 22.1419 51.9989 21.8242 51.9971C21.7305 51.9981 21.6369 51.9991 21.5404 52.0001C20.9804 51.9937 20.6418 51.9281 20.2066 51.541C19.9202 51.1737 19.8682 50.9305 19.899 50.4707C19.9051 50.3593 19.9111 50.2478 19.9174 50.133C19.9248 50.0127 19.9322 49.8923 19.9398 49.7683C20.0725 46.575 19.9586 44.2746 17.839 41.7159C17.1037 40.8254 16.4919 39.8556 15.8672 38.886C15.5594 38.41 15.246 37.9376 14.9332 37.4648C14.7783 37.2306 14.6237 36.9964 14.472 36.7601C14.3336 36.5456 14.3336 36.5456 14.18 36.3514C13.7519 35.7675 13.7367 35.2272 13.8234 34.5195C13.9601 34.0897 14.1556 33.7016 14.3638 33.3023C14.4213 33.1873 14.4788 33.0723 14.538 32.9538C14.6946 32.6407 14.8542 32.3291 15.0143 32.0178C15.183 31.6885 15.3488 31.3578 15.5149 31.0272C15.8307 30.4 16.1489 29.7741 16.468 29.1486C16.8619 28.3762 17.2529 27.6024 17.6437 26.8285C17.7824 26.5539 17.9211 26.2793 18.0599 26.0047C18.0936 25.9378 18.1274 25.8709 18.1623 25.802C18.3906 25.3502 18.6198 24.8989 18.8495 24.4477C19.505 23.1592 20.1461 21.8654 20.7657 20.5592C21.1299 19.7918 21.5062 19.0304 21.8839 18.2696C21.9401 18.1564 21.9401 18.1564 21.9975 18.0409C22.1942 17.6447 22.3913 17.2487 22.5885 16.8527C22.75 16.5284 22.9109 16.2038 23.0713 15.8789C23.2681 15.4803 23.4659 15.0822 23.6644 14.6844C23.739 14.5345 23.8133 14.3845 23.8871 14.2343C23.9898 14.0258 24.0938 13.8179 24.198 13.6101C24.2565 13.4923 24.3151 13.3744 24.3753 13.253C24.765 12.6013 25.1924 12.201 25.9629 12.1913ZM24.3607 20.4361C24.0201 21.1148 23.6798 21.7936 23.3397 22.4725C23.2246 22.7023 23.1093 22.9321 22.994 23.1619C22.4202 24.3052 21.8496 25.4493 21.3029 26.6059C20.8646 27.5317 20.4056 28.4462 19.9409 29.359C19.8218 29.593 19.703 29.8271 19.5843 30.0613C19.5448 30.1391 19.5054 30.2168 19.4648 30.2969C19.3846 30.4551 19.3044 30.6133 19.2242 30.7715C19.0188 31.1762 18.8128 31.5806 18.6056 31.9844C18.4017 32.3817 18.1996 32.78 17.9987 33.1788C17.9225 33.3292 17.8457 33.4792 17.7682 33.6289C17.6611 33.8362 17.5562 34.0445 17.4518 34.2531C17.3917 34.371 17.3317 34.4888 17.2697 34.6102C17.1383 34.9166 17.1383 34.9166 17.2389 35.2011C17.4089 35.5004 17.5912 35.7887 17.7844 36.0733C17.8265 36.1361 17.8686 36.199 17.9119 36.2637C18.0516 36.472 18.1919 36.6799 18.3322 36.8878C18.4303 37.0339 18.5283 37.18 18.6263 37.3261C18.7824 37.5589 18.9386 37.7916 19.0949 38.0243C19.5079 38.6388 19.9188 39.2547 20.3289 39.8711C20.3891 39.9616 20.4493 40.0521 20.5113 40.1453C20.7498 40.5036 20.9882 40.862 21.2265 41.2205C21.3927 41.4702 21.5589 41.7199 21.7252 41.9696C21.8003 42.0825 21.8003 42.0825 21.8768 42.1978C22.0854 42.5286 22.0854 42.5286 22.3343 42.8276C22.5568 42.843 22.7797 42.8513 23.0026 42.8568C23.0725 42.8586 23.1424 42.8604 23.2144 42.8623C23.8608 42.8779 24.5075 42.8868 25.1541 42.8937C25.5886 42.8983 26.0227 42.9052 26.457 42.9172C26.877 42.9289 27.2967 42.935 27.7168 42.9373C27.8765 42.9391 28.0362 42.9428 28.1958 42.9485C29.1096 42.9966 29.1096 42.9966 29.8966 42.5965C30.1068 42.3115 30.2758 42.0264 30.44 41.7131C30.5223 41.5883 30.606 41.4643 30.6919 41.342C30.7627 41.2333 30.8334 41.1246 30.9062 41.0126C30.9664 40.9205 30.9664 40.9205 31.0277 40.8266C31.1572 40.6284 31.2862 40.4299 31.4152 40.2313C32.0033 39.326 32.596 38.4253 33.2093 37.5369C33.365 37.3097 33.5205 37.0824 33.676 36.8551C33.7769 36.7086 33.8785 36.5626 33.9809 36.4171C34.1237 36.214 34.2639 36.0093 34.4038 35.8041C34.4683 35.7146 34.4683 35.7146 34.5342 35.6232C34.6677 35.4337 34.6677 35.4337 34.7968 35.1274C34.677 34.6491 34.4572 34.2184 34.2354 33.7806C34.1996 33.7091 34.1638 33.6377 34.1269 33.564C34.0087 33.3284 33.89 33.093 33.7713 32.8576C33.6879 32.6914 33.6045 32.5252 33.5212 32.359C33.3013 31.9205 33.0809 31.4822 32.8604 31.044C32.469 30.2662 32.0783 29.4881 31.6879 28.7098C31.6459 28.6261 31.6038 28.5424 31.5606 28.4561C31.0302 27.3988 30.5076 26.3387 30.0013 25.2696C29.5313 24.2779 29.0393 23.2974 28.5466 22.3169C28.454 22.1322 28.3614 21.9476 28.2689 21.763C28.0472 21.3206 27.8252 20.8783 27.603 20.4361C27.5696 20.4361 27.5361 20.4361 27.5017 20.4361C27.5014 20.5145 27.5012 20.5929 27.501 20.6736C27.495 22.5805 27.4873 24.4873 27.4778 26.3942C27.4732 27.3163 27.4693 28.2384 27.4666 29.1606C27.4643 29.9643 27.4609 30.7679 27.4562 31.5716C27.4538 31.9972 27.4519 32.4228 27.4513 32.8484C27.4507 33.249 27.4486 33.6495 27.4455 34.0501C27.4446 34.1971 27.4443 34.3441 27.4444 34.4911C27.4446 34.6919 27.4427 34.8927 27.4408 35.0935C27.4403 35.2059 27.4398 35.3183 27.4393 35.434C27.3814 35.8822 27.2173 36.1484 26.8621 36.4231C26.5481 36.5646 26.3253 36.5865 25.9819 36.5838C25.8795 36.5846 25.7771 36.5854 25.6716 36.5862C25.3248 36.5392 25.1436 36.4556 24.8673 36.2419C24.5815 35.8508 24.525 35.574 24.523 35.0935C24.5217 34.9641 24.5204 34.8347 24.5191 34.7013C24.5193 34.5587 24.5194 34.416 24.5196 34.2734C24.5187 34.1225 24.5176 33.9717 24.5164 33.8209C24.5137 33.4121 24.5127 33.0034 24.5121 32.5946C24.5112 32.1671 24.5085 31.7397 24.506 31.3123C24.5016 30.5031 24.4987 29.694 24.4964 28.8848C24.4936 27.9635 24.4892 27.0422 24.4846 26.1209C24.4752 24.226 24.4679 22.3311 24.4621 20.4361C24.4286 20.4361 24.3952 20.4361 24.3607 20.4361ZM22.9423 45.8672C22.9423 46.8702 22.9423 47.8733 22.9423 48.9067C24.9484 48.9067 26.9546 48.9067 29.0215 48.9067C29.0215 47.9037 29.0215 46.9006 29.0215 45.8672C27.0153 45.8672 25.0092 45.8672 22.9423 45.8672Z" fill="var(--fill-0, #FF5100)"/>
</g>
</svg>
