<svg preserveAspectRatio="none" width="100%" height="100%" overflow="visible" style="display: block;" viewBox="0 0 60.3032 60.5385" fill="none" xmlns="http://www.w3.org/2000/svg">
<g id="Group 277">
<path id="Vector" d="M58.5961 0.730284C59.2449 1.21847 59.7098 1.81259 59.8891 2.61088C60.2338 5.49589 58.9176 7.92732 57.1857 10.1333C55.2241 12.5842 52.918 14.6187 50.1665 16.1401C49.6973 16.411 49.2625 16.7161 48.8277 17.0386C48.6055 17.1855 48.6055 17.1855 48.3704 17.1855C48.3704 17.2631 48.3704 17.3407 48.3704 17.4206C48.5134 17.457 48.6565 17.4933 48.8038 17.5308C50.0609 17.9551 51.2223 18.8657 51.8965 20.0064C52.621 21.5706 52.7424 23.2194 52.8515 24.9209C52.8617 25.071 52.8718 25.2211 52.8823 25.3757C52.9069 25.7408 52.9309 26.1058 52.9544 26.471C53.0215 26.4717 53.0886 26.4723 53.1577 26.4731C53.8595 26.4806 54.5612 26.4905 55.2629 26.5018C55.5244 26.5057 55.7859 26.509 56.0475 26.5117C56.4245 26.5157 56.8014 26.5218 57.1784 26.5284C57.2943 26.5291 57.4103 26.5299 57.5298 26.5306C58.3135 26.5471 59.0357 26.6212 59.6609 27.1431C59.7144 27.2122 59.7678 27.2813 59.8229 27.3525C59.8785 27.4216 59.9342 27.4907 59.9914 27.5619C60.2495 27.9548 60.2705 28.3267 60.2857 28.785C60.2915 28.9018 60.2973 29.0186 60.3032 29.139C60.1646 30.0132 59.4864 30.7014 58.9341 31.3635C58.7987 31.5279 58.6634 31.6924 58.5282 31.857C58.4608 31.9389 58.3935 32.0208 58.3241 32.1051C58.0232 32.4738 57.7288 32.8473 57.4355 33.222C57.3828 33.2893 57.3302 33.3565 57.2759 33.4258C57.1281 33.6148 56.9806 33.8041 56.8331 33.9934C56.7463 34.1047 56.6595 34.2161 56.57 34.3308C56.3832 34.5708 56.1966 34.8109 56.0103 35.0512C56.1871 35.4464 56.4161 35.7482 56.6935 36.0796C56.7878 36.1933 56.882 36.3069 56.9791 36.424C57.0568 36.5173 57.0568 36.5173 57.136 36.6126C60.3038 40.4327 60.3038 40.4327 60.2784 41.8528C60.2132 42.5059 59.8843 42.8375 59.4189 43.2568C58.9431 43.6038 58.6042 43.6463 58.0249 43.6448C57.912 43.6448 57.799 43.6448 57.6827 43.6447C57.5617 43.6441 57.4407 43.6435 57.3161 43.6429C57.1915 43.6427 57.067 43.6426 56.9386 43.6424C56.541 43.6417 56.1435 43.6403 55.7459 43.6388C55.4762 43.6382 55.2065 43.6376 54.9369 43.6372C54.276 43.6359 53.6152 43.6339 52.9544 43.6314C52.9491 43.7242 52.9438 43.817 52.9384 43.9126C52.5877 49.9112 52.5877 49.9112 50.7855 51.5872C49.7476 52.4676 48.3566 52.9622 47.1069 53.4605C45.1168 54.2561 43.733 55.1174 42.3953 56.8255C39.7447 60.189 39.7447 60.189 37.6344 60.4768C37.3456 60.4951 37.0603 60.5001 36.7709 60.498C36.6654 60.4977 36.5599 60.4974 36.4512 60.497C35.2134 60.4682 34.0459 60.1688 32.8555 59.8516C32.5837 59.7827 32.312 59.714 32.04 59.6459C31.8812 59.6057 31.8812 59.6057 31.7191 59.5646C29.8814 59.1244 28.103 59.6324 26.3288 60.1203C24.8307 60.5309 22.8507 60.8002 21.3914 60.1385C19.8742 59.2513 18.7906 58.0181 17.7299 56.6487C16.4578 55.0077 15.0821 54.2138 13.1753 53.4458C9.10797 51.8033 9.10797 51.8033 8.17261 49.7434C7.73645 48.4541 7.59295 47.1779 7.49677 45.8279C7.48207 45.6397 7.46723 45.4516 7.45223 45.2634C7.34985 43.9598 7.34985 43.9598 7.34985 43.6314C7.28099 43.6322 7.21214 43.633 7.1412 43.6338C6.42234 43.6416 5.7035 43.6469 4.98461 43.6508C4.71658 43.6526 4.44857 43.655 4.18055 43.658C3.79454 43.6623 3.40857 43.6643 3.02254 43.6659C2.90338 43.6677 2.78422 43.6695 2.66145 43.6714C1.88243 43.6716 1.25905 43.6131 0.654806 43.0727C0.599958 43.0025 0.545111 42.9324 0.488601 42.8601C0.431935 42.7896 0.375269 42.7192 0.316886 42.6466C-0.0955038 42.0723 -0.0145373 41.3693 0.0625278 40.693C0.222845 40.2759 0.480981 39.9749 0.767752 39.6352C0.881907 39.4937 0.995744 39.3519 1.10935 39.21C1.37 38.8857 1.63281 38.5634 1.89721 38.2422C2.26962 37.7886 2.63291 37.3285 2.99362 36.8657C3.41397 36.3271 3.84218 35.799 4.29387 35.2863C4.12442 34.7645 3.8369 34.4044 3.47846 34.0007C2.83889 33.2628 2.23154 32.5042 1.63367 31.7323C1.46932 31.5204 1.30408 31.3092 1.13873 31.0981C1.03217 30.9613 0.925652 30.8245 0.819175 30.6876C0.677131 30.5054 0.677131 30.5054 0.532218 30.3194C0.00550144 29.5958 -0.0316693 29.0038 0.0625278 28.1165C0.251153 27.5425 0.615815 27.1479 1.12036 26.8236C1.77323 26.5399 2.40337 26.5479 3.10289 26.5398C3.28532 26.5364 3.28532 26.5364 3.47143 26.5329C3.85821 26.5259 4.24499 26.5205 4.63179 26.515C4.89472 26.5106 5.15765 26.506 5.42058 26.5013C6.06365 26.49 6.70674 26.48 7.34985 26.471C7.35807 26.352 7.36628 26.2331 7.37475 26.1105C7.40633 25.6602 7.44019 25.2101 7.47467 24.76C7.48916 24.5669 7.50307 24.3737 7.51634 24.1805C7.65446 22.1802 7.8857 20.1929 9.42879 18.7429C10.6553 17.7785 12.0478 17.2284 13.4892 16.6798C15.5098 15.9067 16.8357 14.8002 18.1532 13.0996C19.3106 11.6068 20.6631 10.0858 22.6297 9.78066C24.1023 9.68151 25.4353 9.89618 26.8611 10.2508C26.9502 10.2728 27.0394 10.2947 27.1313 10.3173C27.5348 10.417 27.9376 10.5185 28.3399 10.6232C30.2111 11.0787 31.7471 10.6844 33.5748 10.2192C35.5926 9.70703 37.5803 9.39897 39.4669 10.4638C39.8334 10.6924 40.1289 10.9259 40.4219 11.2425C40.5237 11.3419 40.6256 11.4413 40.7305 11.5437C41.1438 11.5101 41.2218 11.4045 41.5261 11.0919C41.6465 10.9497 41.7657 10.8064 41.8838 10.6622C41.9465 10.5872 42.0092 10.5123 42.0738 10.435C42.6193 9.77947 43.1552 9.11794 43.6469 8.42072C44.2573 7.55674 44.9366 6.78187 45.667 6.01947C45.7285 5.95413 45.7901 5.88879 45.8534 5.82147C48.3537 3.17319 54.6851 -1.88743 58.5961 0.730284ZM49.5458 5.07917C49.4832 5.12833 49.4206 5.1775 49.3561 5.22815C47.735 6.51715 46.2862 7.97926 45.0793 9.66312C45.2679 10.1177 45.5761 10.442 45.9095 10.7944C46.0269 10.9205 46.1443 11.0466 46.2616 11.1727C46.3493 11.2666 46.3493 11.2666 46.4388 11.3624C46.6791 11.621 46.9152 11.8833 47.1509 12.1461C47.2355 12.2402 47.32 12.3343 47.4071 12.4312C47.5867 12.6315 47.766 12.832 47.9452 13.0327C48.0371 13.1353 48.1289 13.2378 48.2235 13.3435C48.3053 13.4352 48.3871 13.5268 48.4714 13.6213C48.7434 13.9166 49.0251 14.2001 49.3107 14.4822C52.9658 12.2135 56.9621 8.87204 58.0085 4.49148C58.112 3.5813 58.112 3.5813 57.8891 2.71235C57.6433 2.40657 57.4403 2.26479 57.0682 2.14073C54.2489 1.88477 51.6945 3.38508 49.5458 5.07917ZM43.7864 11.3086C43.5696 11.5534 43.3576 11.8003 43.1473 12.0506C42.6936 12.5862 42.2349 13.1141 41.7589 13.63C41.3824 14.0432 41.0098 14.4586 40.6497 14.8862C40.5326 15.0241 40.5326 15.0241 40.4132 15.1649C40.2371 15.4077 40.2371 15.4077 40.2718 15.6672C40.3955 15.9301 40.5319 16.0776 40.7452 16.2746C41.1216 16.635 41.4664 17.0106 41.8067 17.405C42.0502 17.6867 42.2973 17.9652 42.5449 18.2434C42.6248 18.333 42.7046 18.4227 42.7869 18.5152C42.8452 18.5806 42.9036 18.6461 42.9637 18.7135C43.6104 18.3608 44.1996 17.9593 44.7928 17.5234C44.9788 17.388 45.1647 17.2525 45.3507 17.1171C45.4428 17.0499 45.5349 16.9827 45.6298 16.9134C46.0371 16.6172 46.4469 16.3244 46.8571 16.0322C46.9273 15.9821 46.9976 15.932 47.0699 15.8804C47.2291 15.7669 47.3884 15.6534 47.5476 15.54C47.3829 15.1702 47.187 14.9112 46.9071 14.6199C46.8268 14.5355 46.7464 14.4511 46.6636 14.3642C46.5796 14.277 46.4955 14.1899 46.409 14.1002C45.72 13.3812 45.0486 12.6527 44.4067 11.8912C44.2412 11.6952 44.0729 11.5017 43.904 11.3086C43.8652 11.3086 43.8264 11.3086 43.7864 11.3086ZM20.8666 12.9542C20.7933 13.0216 20.72 13.089 20.6444 13.1585C20.1458 13.6318 19.726 14.1436 19.3093 14.6878C17.7095 16.7566 15.9984 17.7624 13.5625 18.7099C11.9835 19.3286 10.594 19.9082 9.84797 21.5073C9.24375 23.064 9.34798 24.9546 9.34798 26.5885C10.7055 26.5885 12.0631 26.5885 13.4618 26.5885C13.6145 26.3073 13.7672 26.0261 13.9246 25.7364C14.6698 24.3965 15.5817 23.2371 16.6353 22.1221C16.6938 22.0541 16.7523 21.986 16.8125 21.9159C17.096 21.6792 17.3529 21.7206 17.7078 21.7369C17.9282 21.7695 17.9282 21.7695 18.1633 21.8944C18.3634 22.2821 18.3516 22.5132 18.2808 22.9448C18.116 23.1875 17.9275 23.3874 17.7248 23.5996C17.3956 23.952 17.0961 24.3226 16.7969 24.7006C16.7167 24.7994 16.7167 24.7994 16.6349 24.9003C16.2028 25.446 15.9266 25.9601 15.5775 26.5885C25.1967 26.5885 34.816 26.5885 44.7267 26.5885C44.3346 25.8826 43.9769 25.2793 43.4779 24.6638C43.4218 24.5931 43.3658 24.5223 43.308 24.4494C43.0506 24.1269 42.7887 23.8206 42.4935 23.5325C42.0917 23.6581 41.8041 23.8386 41.4798 24.0982C39.7708 25.4103 37.6111 25.6363 35.5289 25.3806C33.4761 25.043 31.2973 23.9011 30.0346 22.2396C29.8929 21.9562 29.8934 21.7625 29.8876 21.4462C29.8831 21.2981 29.8831 21.2981 29.8785 21.1469C29.9288 20.7323 30.0431 20.4757 30.2696 20.124C30.6135 19.8783 30.6135 19.8783 31.0116 19.6611C31.6396 19.3041 32.0759 18.9464 32.5028 18.3609C30.5436 17.7609 27.7228 18.1903 25.8032 18.7135C25.7147 18.7368 25.6262 18.7601 25.535 18.7842C24.2889 19.123 23.1772 19.6484 22.0512 20.2773C21.1035 20.8023 21.1035 20.8023 20.514 20.8292C20.1761 20.719 20.1761 20.719 19.9263 20.4766C19.8376 19.8552 19.8376 19.8552 19.9263 19.5363C21.5272 17.5562 25.5301 16.7906 27.9092 16.504C28.6307 16.4341 29.3616 16.4582 30.086 16.4583C30.22 16.4577 30.22 16.4577 30.3568 16.4572C31.3647 16.4536 32.3446 16.4757 33.3403 16.6493C33.8954 16.7446 33.8954 16.7446 34.4087 16.5808C34.6307 16.3794 34.6307 16.3794 34.8306 16.1451C35.1781 15.8051 35.5595 15.6086 35.9922 15.3931C36.0739 15.3522 36.1555 15.3112 36.2396 15.2691C36.7498 15.0255 37.2154 14.8878 37.7773 14.798C38.7018 14.6295 39.1283 14.0305 39.6726 13.3068C39.0372 12.4992 38.4387 11.9537 37.4394 11.6613C36.1505 11.5194 34.9745 11.8077 33.737 12.1241C33.4703 12.1903 33.2036 12.2561 32.9368 12.3216C32.7726 12.3622 32.6085 12.4033 32.4446 12.4449C30.17 13.0183 28.1718 12.562 25.9492 11.9877C23.9019 11.4641 22.4277 11.44 20.8666 12.9542ZM35.2428 18.1696C34.7941 18.6194 34.3627 19.0824 33.95 19.5656C33.3415 20.2766 32.6727 20.9403 31.7976 21.2993C32.1857 22.2631 33.4797 22.7879 34.3834 23.1799C36.058 23.8292 37.894 23.9046 39.5551 23.1799C40.6614 22.5799 41.4583 21.7551 41.9352 20.5868C41.8942 20.1049 41.6695 19.9499 41.32 19.6341C41.0942 19.4289 40.8989 19.2172 40.7011 18.9853C40.287 18.5046 39.8585 18.0382 39.4266 17.5734C39.1742 17.3002 38.9352 17.0262 38.708 16.7314C38.6384 16.6486 38.5689 16.5657 38.4973 16.4803C37.2385 16.4803 36.1028 17.3331 35.2428 18.1696ZM45.9466 18.8352C45.7952 18.9514 45.6457 19.0701 45.4981 19.191C45.3489 19.3075 45.1997 19.424 45.0504 19.5404C44.9776 19.599 44.9049 19.6576 44.8299 19.7181C44.6132 19.8858 44.3895 20.0338 44.1602 20.1836C43.6549 20.5423 43.5431 20.9409 43.4256 21.5372C43.405 21.8849 43.405 21.8849 43.5817 22.134C43.7418 22.2863 43.9081 22.4322 44.0784 22.573C44.4166 22.8638 44.6854 23.1868 44.9545 23.5399C45.0034 23.6038 45.0522 23.6677 45.1026 23.7336C45.7695 24.6262 46.3445 25.5926 46.8424 26.5885C48.2 26.5885 49.5575 26.5885 50.9562 26.5885C50.9562 25.6505 50.9408 24.7424 50.8607 23.8117C50.8525 23.699 50.8442 23.5862 50.8357 23.4701C50.735 22.2814 50.4882 21.1436 49.6633 20.2415C48.8889 19.6277 47.9915 19.1969 47.0775 18.831C46.9666 18.7747 46.8557 18.7183 46.7414 18.6602C46.3253 18.5878 46.2801 18.6118 45.9466 18.8352ZM2.06066 28.4691C2.02188 28.663 1.98309 28.857 1.94313 29.0568C2.1204 29.3187 2.28762 29.5262 2.50143 29.7547C2.6226 29.8906 2.7435 30.0269 2.86414 30.1633C2.95749 30.2679 2.95749 30.2679 3.05273 30.3746C3.33771 30.7013 3.60279 31.0425 3.8678 31.3855C4.21749 31.8362 4.57057 32.2832 4.93344 32.7234C5.00179 32.8065 5.07015 32.8895 5.14057 32.9751C5.27255 33.135 5.40502 33.2945 5.53806 33.4536C6.51547 34.6395 6.51547 34.6395 6.54086 35.2826C6.35757 35.7799 6.06292 36.1224 5.71901 36.5204C5.5784 36.688 5.4379 36.8558 5.29753 37.0236C5.22712 37.1071 5.1567 37.1906 5.08415 37.2766C4.79304 37.6256 4.5136 37.9831 4.23511 38.3422C3.88798 38.7893 3.53577 39.2307 3.17268 39.665C3.1026 39.7493 3.03253 39.8336 2.96033 39.9205C2.82397 40.0841 2.68672 40.247 2.54849 40.409C2.09188 40.9509 2.09188 40.9509 1.94313 41.6333C2.13127 41.8214 2.32895 41.7657 2.58962 41.7658C2.76212 41.7663 2.76212 41.7663 2.93809 41.7669C3.12986 41.7666 3.12986 41.7666 3.3255 41.7663C3.52746 41.7666 3.52746 41.7666 3.73351 41.767C4.1089 41.7676 4.4843 41.7677 4.8597 41.7675C5.26392 41.7675 5.66814 41.7681 6.07236 41.7687C6.77337 41.7697 7.47437 41.7703 8.17537 41.7707C9.28295 41.7713 10.3905 41.7733 11.4981 41.7755C11.8767 41.7763 12.2554 41.777 12.634 41.7777C12.7286 41.7779 12.8232 41.7781 12.9207 41.7783C13.9988 41.7804 15.0768 41.7823 16.1548 41.7841C16.2534 41.7842 16.352 41.7844 16.4535 41.7846C18.0512 41.7872 19.6489 41.7884 21.2466 41.7893C22.8856 41.7902 24.5246 41.793 26.1636 41.7973C27.1753 41.7999 28.1869 41.801 29.1986 41.8003C29.8917 41.7999 30.5849 41.8012 31.278 41.8039C31.6782 41.8054 32.0784 41.8061 32.4786 41.8048C32.9122 41.8038 33.3456 41.8056 33.779 41.8082C33.9061 41.8072 34.0332 41.8062 34.1641 41.8051C35.0108 41.8144 35.0108 41.8144 35.4019 42.0852C35.6181 42.4343 35.626 42.6405 35.5588 43.0437C35.2991 43.392 35.1593 43.5023 34.7261 43.5736C34.5109 43.5742 34.5109 43.5742 34.2914 43.5749C34.1713 43.5762 34.1713 43.5762 34.0488 43.5776C33.7805 43.5799 33.5124 43.579 33.2442 43.5781C33.0519 43.5791 32.8596 43.5803 32.6673 43.5817C32.1453 43.585 31.6232 43.5854 31.1011 43.5853C30.5555 43.5857 30.0099 43.5887 29.4644 43.5914C28.4312 43.5962 27.398 43.5986 26.3649 43.6001C25.1886 43.602 24.0124 43.6065 22.8362 43.6112C20.4166 43.6209 17.9971 43.6273 15.5775 43.6314C15.65 43.7803 15.723 43.9289 15.7961 44.0775C15.8367 44.1603 15.8773 44.2431 15.9191 44.3284C16.1113 44.6924 16.3501 45.015 16.6059 45.3357C16.661 45.4049 16.716 45.474 16.7727 45.5452C19.7947 49.2509 23.9309 51.5492 28.6971 52.0335C32.9879 52.4218 37.4103 51.0875 40.7305 48.3329C41.1334 47.9913 41.5222 47.6383 41.9058 47.2751C42.0098 47.1787 42.1137 47.0824 42.2208 46.9831C42.85 46.3807 43.3952 45.7569 43.9113 45.0566C43.966 44.9825 44.0207 44.9083 44.077 44.832C44.3572 44.4411 44.5509 44.0814 44.7267 43.6314C44.6497 43.631 44.5727 43.6306 44.4934 43.6301C43.6926 43.6252 42.8918 43.6171 42.091 43.607C41.7921 43.6037 41.4932 43.6012 41.1942 43.5996C40.7647 43.5971 40.3353 43.5916 39.9059 43.5855C39.772 43.5854 39.6382 43.5852 39.5003 43.5851C39.3756 43.5828 39.2509 43.5804 39.1225 43.5781C39.0129 43.577 38.9032 43.576 38.7903 43.5749C38.408 43.4953 38.2662 43.3468 38.0271 43.0437C37.9683 42.6911 37.9683 42.6911 38.0271 42.3385C38.2878 41.9879 38.4277 41.8797 38.8635 41.8087C39.0087 41.8082 39.1539 41.8078 39.3034 41.8074C39.3845 41.8065 39.4655 41.8056 39.549 41.8047C39.8205 41.8023 40.0918 41.8033 40.3633 41.8042C40.5579 41.8032 40.7525 41.8019 40.9471 41.8005C41.4755 41.7972 42.0039 41.7968 42.5323 41.797C43.0845 41.7966 43.6366 41.7936 44.1888 41.7909C45.2345 41.7861 46.2801 41.7837 47.3258 41.7822C48.5162 41.7803 49.7066 41.7758 50.897 41.771C53.3459 41.7613 55.7947 41.755 58.2435 41.7508C58.3233 41.533 58.3233 41.533 58.3611 41.2807C58.1899 41.0135 58.0207 40.787 57.8175 40.5461C57.7592 40.4746 57.7009 40.403 57.6409 40.3294C57.5158 40.176 57.39 40.0232 57.2636 39.8709C57.0054 39.5595 56.7507 39.2453 56.4959 38.9311C56.3678 38.7733 56.2397 38.6157 56.1113 38.4581C55.6795 37.9279 55.2512 37.3951 54.8276 36.8583C54.7758 36.793 54.724 36.7277 54.6706 36.6604C54.5274 36.4783 54.3873 36.2937 54.2473 36.109C54.1093 35.9368 54.1093 35.9368 53.9686 35.761C53.7771 35.4038 53.7771 35.4038 53.7597 35.0076C53.941 34.4347 54.2503 34.0789 54.644 33.6334C54.7955 33.456 54.9468 33.2785 55.098 33.1008C55.1733 33.0132 55.2485 32.9257 55.326 32.8354C55.6792 32.4189 56.0126 31.9877 56.3462 31.5556C56.6415 31.1754 56.9443 30.804 57.2569 30.4379C57.3637 30.3113 57.3637 30.3113 57.4726 30.1821C57.6116 30.018 57.752 29.855 57.8939 29.6933C57.9566 29.6189 58.0192 29.5444 58.0838 29.4677C58.1402 29.4025 58.1966 29.3372 58.2547 29.27C58.4135 29.0064 58.4135 29.0064 58.2435 28.4691C39.7032 28.4691 21.1628 28.4691 2.06066 28.4691ZM9.34798 43.6314C9.24353 46.8605 9.24353 46.8605 10.3911 49.7801C11.4744 50.8612 12.9973 51.3712 14.3951 51.9074C16.442 52.6942 17.9141 53.7351 19.2579 55.4733C20.7063 57.3815 20.7063 57.3815 22.7472 58.5587C24.3103 58.7242 25.7161 58.3246 27.2187 57.9394C29.5669 57.3589 31.5077 57.5343 33.8317 58.1308C36.0132 58.7226 36.0132 58.7226 38.1887 58.3309C39.2238 57.7089 39.9771 56.8558 40.701 55.9083C42.4871 53.5791 44.4373 52.3927 47.1778 51.3672C48.443 50.8807 49.791 50.2604 50.3892 48.9766C50.9934 47.3025 50.9771 45.3903 50.9562 43.6314C50.4044 43.5934 49.8533 43.5658 49.3005 43.5475C49.1129 43.5398 48.9255 43.5294 48.7383 43.5162C48.1157 43.4731 47.5655 43.4661 46.9599 43.6314C46.5084 44.0823 46.2759 44.5809 46.0196 45.1594C45.9246 45.3129 45.8257 45.4642 45.7203 45.6107C45.6348 45.7309 45.5494 45.851 45.4613 45.9748C42.4884 50.1021 38.2129 52.7458 33.2081 53.6221C28.2786 54.3579 23.1544 53.2912 19.104 50.318C17.3459 48.9865 15.9029 47.5158 14.6436 45.7003C14.5854 45.6182 14.5273 45.5362 14.4674 45.4516C14.2846 45.1594 14.2846 45.1594 14.1045 44.7591C13.887 44.3117 13.6984 43.9824 13.3443 43.6314C12.6493 43.4426 11.9996 43.4854 11.2873 43.5359C11.0991 43.5436 10.9109 43.5506 10.7226 43.5568C10.2637 43.5736 9.80615 43.5999 9.34798 43.6314Z" fill="var(--fill-0, #FF5100)"/>
<path id="Vector_2" d="M36.2652 30.3499C36.7744 30.6882 37.0879 31.1174 37.4185 31.6207C37.5304 31.7873 37.6425 31.9538 37.7546 32.1203C37.8159 32.2116 37.8772 32.303 37.9403 32.3971C38.3382 32.9849 38.746 33.5658 39.1522 34.1478C39.314 34.3799 39.4758 34.6121 39.6375 34.8443C39.7068 34.9437 39.7762 35.0432 39.8476 35.1456C39.9876 35.3479 40.125 35.5519 40.2615 35.7566C40.2626 35.6095 40.2637 35.4624 40.2648 35.3109C40.2695 34.765 40.2772 34.2191 40.2859 33.6733C40.2892 33.4371 40.2917 33.2008 40.2933 32.9646C40.2958 32.6249 40.3013 32.2854 40.3074 31.9458C40.3075 31.8402 40.3077 31.7347 40.3078 31.6259C40.3249 30.8963 40.3249 30.8963 40.5928 30.5182C40.9712 30.2697 41.2298 30.2867 41.6719 30.3499C42.0136 30.6106 42.1232 30.7635 42.2596 31.1726C42.2725 31.4272 42.2783 31.6821 42.2804 31.937C42.2816 32.0526 42.2816 32.0526 42.2828 32.1705C42.2851 32.4253 42.2864 32.68 42.2876 32.9348C42.2881 33.0219 42.2886 33.109 42.2891 33.1988C42.2915 33.6598 42.2932 34.1207 42.2943 34.5817C42.2956 35.0575 42.2996 35.5332 42.3043 36.0089C42.3074 36.3751 42.3084 36.7413 42.3088 37.1076C42.3094 37.2829 42.3107 37.4583 42.3129 37.6336C42.3158 37.8793 42.3157 38.1247 42.3148 38.3704C42.3155 38.51 42.3162 38.6496 42.3169 38.7934C42.2477 39.2421 42.1085 39.4353 41.7895 39.7529C41.3599 39.9023 41.1601 39.9006 40.7366 39.732C40.3411 39.4951 40.1784 39.2975 39.9318 38.9117C39.8535 38.7914 39.7752 38.6711 39.6944 38.5472C39.6149 38.4214 39.5354 38.2957 39.4534 38.1661C39.2948 37.9198 39.136 37.6737 38.9768 37.4278C38.8982 37.3062 38.8196 37.1845 38.7387 37.0591C38.4349 36.6011 38.1142 36.1574 37.7876 35.7155C37.5111 35.3402 37.2408 34.9609 36.9704 34.5812C36.9693 34.7247 36.9682 34.8683 36.9671 35.0161C36.9624 35.5489 36.9547 36.0816 36.946 36.6143C36.9427 36.8448 36.9402 37.0753 36.9386 37.3059C36.9361 37.6374 36.9306 37.9687 36.9245 38.3002C36.9243 38.4546 36.9243 38.4546 36.9241 38.6122C36.907 39.3242 36.907 39.3242 36.639 39.7009C36.264 39.9489 35.9995 39.9253 35.56 39.8704C35.1856 39.6635 35.1095 39.5767 34.9723 39.1652C34.96 38.907 34.9548 38.6485 34.9534 38.39C34.9528 38.3118 34.9522 38.2336 34.9516 38.153C34.9499 37.8944 34.9491 37.6359 34.9484 37.3773C34.9477 37.1974 34.9471 37.0175 34.9464 36.8376C34.9452 36.4603 34.9445 36.0831 34.9441 35.7058C34.9434 35.223 34.9406 34.7402 34.9372 34.2574C34.935 33.8857 34.9344 33.514 34.9343 33.1423C34.9339 32.9644 34.933 32.7864 34.9314 32.6084C34.9294 32.3591 34.9296 32.11 34.9304 31.8607C34.93 31.719 34.9295 31.5773 34.9291 31.4313C34.9765 31.0185 35.077 30.7975 35.3249 30.4674C35.6603 30.2997 35.8931 30.3134 36.2652 30.3499Z" fill="var(--fill-0, #FF5100)"/>
<path id="Vector_3" d="M10.189 30.2799C10.3954 30.2804 10.3954 30.2804 10.6059 30.2809C10.7486 30.2842 10.8914 30.2875 11.0384 30.291C11.1802 30.2906 11.322 30.2903 11.4682 30.29C12.5454 30.3019 13.2899 30.4566 14.0999 31.1973C14.653 31.8243 14.8277 32.5313 14.7955 33.3538C14.7333 33.8002 14.5856 34.17 14.4029 34.5811C14.4497 34.6296 14.4966 34.678 14.5448 34.728C15.2079 35.4508 15.5348 36.1391 15.4938 37.1325C15.3859 38.0123 15.0676 38.6929 14.4029 39.2826C13.5034 39.9311 12.5734 39.9586 11.5075 39.9404C11.242 39.9363 10.977 39.938 10.7115 39.9403C10.5416 39.9395 10.3717 39.9383 10.2019 39.9368C10.0493 39.9355 9.89676 39.9343 9.73959 39.9329C9.27155 39.8579 9.16203 39.7731 8.87866 39.4001C8.81817 39.0262 8.81817 39.0262 8.81596 38.5792C8.81495 38.4975 8.81394 38.4159 8.81289 38.3317C8.81023 38.0623 8.81102 37.7931 8.81209 37.5236C8.81147 37.336 8.81073 37.1483 8.80988 36.9607C8.80866 36.5675 8.80919 36.1744 8.81091 35.7813C8.81293 35.278 8.81017 34.7748 8.80603 34.2715C8.80345 33.884 8.80362 33.4965 8.8046 33.109C8.80469 32.9235 8.80389 32.7379 8.80215 32.5524C8.8001 32.2927 8.80181 32.0332 8.80448 31.7735C8.8046 31.6259 8.80471 31.4783 8.80482 31.3262C8.95272 30.5475 9.43754 30.2749 10.189 30.2799ZM10.7593 32.2303C10.7593 32.7733 10.7593 33.3164 10.7593 33.8758C11.7738 33.9671 11.7738 33.9671 12.6839 33.6261C12.9038 33.2995 12.9038 33.2995 12.8823 32.9209C12.7364 32.5262 12.6492 32.435 12.2872 32.2303C11.9021 32.1878 11.9021 32.1878 11.4939 32.2083C11.2514 32.2156 11.009 32.2228 10.7593 32.2303ZM10.7593 35.7564C10.7593 36.4934 10.7593 37.2304 10.7593 37.9897C11.2647 38.0078 11.2647 38.0078 11.7804 38.0264C11.8855 38.0317 11.9906 38.0371 12.0989 38.0426C12.6053 38.0514 12.8134 38.0368 13.2289 37.7188C13.5264 37.3156 13.5977 37.0807 13.5802 36.5792C13.3772 36.2234 13.1289 35.9422 12.7574 35.7564C12.4182 35.748 12.0827 35.7455 11.7436 35.7491C11.2564 35.7527 11.2564 35.7527 10.7593 35.7564Z" fill="var(--fill-0, #FF5100)"/>
<path id="Vector_4" d="M19.3994 30.3126C19.6017 30.3075 19.6017 30.3075 19.8081 30.3023C20.9014 30.2942 21.7976 30.457 22.6244 31.2089C23.2208 31.8699 23.4747 32.6398 23.4545 33.5229C23.3245 34.4136 22.9488 35.044 22.2791 35.6385C21.9762 35.8562 21.6669 36.049 21.3388 36.2262C21.3859 36.2706 21.433 36.315 21.4816 36.3608C23.1114 37.9389 23.1114 37.9389 23.4545 38.8121C23.4382 39.2105 23.4095 39.4336 23.1459 39.7377C22.7508 39.9249 22.4765 39.923 22.044 39.8699C21.6048 39.5647 21.2863 39.2159 20.9568 38.7974C20.441 38.1533 19.8984 37.5393 19.3407 36.9315C19.3396 37.0038 19.3385 37.0761 19.3373 37.1506C19.331 37.4792 19.3212 37.8077 19.3113 38.1362C19.3088 38.3069 19.3088 38.3069 19.3062 38.481C19.2773 39.3203 19.2773 39.3203 19.0119 39.7097C18.742 39.8767 18.5977 39.9366 18.2828 39.936C18.1665 39.9399 18.1665 39.9399 18.0478 39.9438C17.676 39.8269 17.5536 39.6025 17.3425 39.2822C17.2836 38.9031 17.2836 38.9031 17.2836 38.4695C17.2829 38.3902 17.2823 38.3108 17.2816 38.229C17.2802 37.9678 17.2821 37.7068 17.2842 37.4457C17.2842 37.2635 17.284 37.0812 17.2837 36.899C17.2835 36.5176 17.285 36.1363 17.2877 35.7549C17.291 35.2668 17.2907 34.7788 17.2892 34.2906C17.2884 33.9145 17.2893 33.5384 17.2908 33.1623C17.2913 32.9824 17.2913 32.8024 17.2909 32.6225C17.2905 32.3707 17.2925 32.119 17.295 31.8672C17.2957 31.7242 17.2963 31.5811 17.297 31.4337C17.3466 31.0205 17.4468 30.7976 17.6951 30.4669C18.1949 30.217 18.8505 30.3171 19.3994 30.3126ZM19.2231 32.23C19.2231 32.9281 19.2231 33.6263 19.2231 34.3456C19.554 34.3565 19.554 34.3565 19.8916 34.3677C20.0778 34.3738 20.0778 34.3738 20.2677 34.3801C20.7912 34.3308 21.0902 34.1241 21.4563 33.7579C21.533 33.1737 21.5499 32.9459 21.1992 32.465C20.6309 32.0536 19.8843 32.1962 19.2231 32.23Z" fill="var(--fill-0, #FF5100)"/>
<path id="Vector_5" d="M46.5387 30.5481C46.7563 30.543 46.7563 30.543 46.9783 30.5377C48.1632 30.5296 49.2945 30.6967 50.1828 31.5467C51.3293 32.8828 51.5492 34.4069 51.4238 36.1091C51.2233 37.3635 50.6664 38.486 49.6608 39.2826C48.661 39.8985 47.7609 39.8983 46.6048 39.907C46.3784 39.9121 46.3784 39.9121 46.1475 39.9173C46.0027 39.9183 45.8578 39.9193 45.7086 39.9203C45.5099 39.9229 45.5099 39.9229 45.3073 39.9255C44.9593 39.8703 44.9593 39.8703 44.6818 39.6901C44.4176 39.2924 44.4183 38.9336 44.4175 38.4713C44.4155 38.3794 44.4136 38.2874 44.4115 38.1927C44.4057 37.8924 44.4032 37.5921 44.401 37.2918C44.3979 37.0848 44.3948 36.8778 44.3914 36.6708C44.3852 36.2528 44.3805 35.8348 44.3771 35.4168C44.3733 34.9526 44.3664 34.4885 44.3576 34.0244C44.3507 33.6394 44.3465 33.2544 44.3422 32.8694C44.3397 32.7307 44.3371 32.592 44.3345 32.4491C44.3299 31.2621 44.3299 31.2621 44.7242 30.7023C45.2494 30.4397 45.9621 30.5525 46.5387 30.5481ZM46.2522 32.4654C46.2353 34.3104 46.2777 36.1469 46.3697 37.9897C47.4341 38.0641 47.4341 38.0641 48.4413 37.7913C49.212 37.0409 49.5537 36.3161 49.5873 35.2349C49.56 34.3511 49.3852 33.4448 48.7205 32.818C48.1714 32.4823 47.7199 32.4195 47.0896 32.4434C46.9683 32.4458 46.9683 32.4458 46.8445 32.4482C46.647 32.4523 46.4496 32.4586 46.2522 32.4654Z" fill="var(--fill-0, #FF5100)"/>
<path id="Vector_6" d="M29.6837 30.3497C30.1769 30.7558 30.3937 31.143 30.6134 31.7367C30.6427 31.8145 30.672 31.8922 30.7022 31.9723C30.7977 32.2267 30.8909 32.4819 30.9839 32.7372C31.0499 32.9149 31.1159 33.0927 31.1821 33.2704C31.2845 33.5456 31.3868 33.821 31.4883 34.0966C31.724 34.7357 31.9682 35.371 32.2167 36.0053C32.3154 36.2594 32.4138 36.5136 32.5122 36.7679C32.5752 36.9299 32.6389 37.0917 32.7031 37.2532C32.7927 37.4789 32.8798 37.7054 32.9664 37.9322C33.0414 38.124 33.0414 38.124 33.1179 38.3196C33.2414 38.8238 33.2204 39.2839 32.9674 39.7453C32.5997 39.9469 32.2005 39.968 31.7993 39.8702C31.3292 39.4001 31.3292 39.4001 30.859 38.1072C29.773 38.1072 28.6869 38.1072 27.568 38.1072C27.2771 38.8053 27.2771 38.8053 26.9803 39.5176C26.6277 39.8702 26.6277 39.8702 26.1649 39.929C25.7857 39.9122 25.6997 39.8798 25.3862 39.6351C25.118 39.0755 25.2571 38.5867 25.4385 38.0159C25.5767 37.6327 25.7218 37.253 25.8697 36.8735C25.9232 36.7338 25.9767 36.5942 26.0318 36.4503C26.1448 36.1558 26.2583 35.8615 26.3724 35.5674C26.5175 35.1935 26.6615 34.8191 26.8051 34.4445C26.9434 34.0835 27.0824 33.7228 27.2213 33.362C27.2725 33.229 27.3237 33.0961 27.3765 32.959C27.595 32.3959 27.8161 31.8339 28.0525 31.278C28.0868 31.1973 28.1211 31.1166 28.1564 31.0335C28.5138 30.38 28.9645 30.2765 29.6837 30.3497ZM29.2135 33.7583C28.8561 34.5282 28.5568 35.309 28.2732 36.109C28.8938 36.109 29.5144 36.109 30.1538 36.109C29.8823 35.3333 29.6108 34.5575 29.3311 33.7583C29.2923 33.7583 29.2535 33.7583 29.2135 33.7583Z" fill="var(--fill-0, #FF5100)"/>
</g>
</svg>
