<svg preserveAspectRatio="none" width="100%" height="100%" overflow="visible" style="display: block;" viewBox="0 0 50.4937 68" fill="none" xmlns="http://www.w3.org/2000/svg">
<g id="Group 279">
<path id="Vector" d="M11.8807 0.00449279C12.2046 0.00375062 12.5285 0.00277596 12.8524 0.00158727C13.7291 -0.000900343 14.6058 5.71692e-05 15.4825 0.00179469C16.0308 0.00277001 16.579 0.00258303 17.1273 0.00207361C17.2641 0.00194784 17.2641 0.00194784 17.4037 0.00181953C17.5891 0.00164457 17.7745 0.00146717 17.9599 0.00128736C19.6951 -0.000269976 21.4303 0.00151641 23.1655 0.00446116C24.6518 0.00690553 26.1381 0.00648083 27.6244 0.00395844C29.3537 0.001025 31.0831 -0.000119718 32.8124 0.00155759C32.9971 0.00173187 33.1817 0.00190389 33.3664 0.00207361C33.5027 0.00220023 33.5027 0.00220023 33.6417 0.00232941C34.2795 0.00280029 34.9172 0.00198082 35.555 0.000716864C36.4146 -0.000867904 37.2742 0.000240326 38.1338 0.00339487C38.4486 0.00411615 38.7635 0.0039144 39.0783 0.00270397C41.2032 -0.00471083 42.9176 0.0363276 44.5347 1.58002C45.8209 2.92734 46.1244 4.34822 46.0928 6.16847C46.0921 6.33941 46.0913 6.51034 46.0905 6.68646C46.088 7.13559 46.0831 7.5846 46.077 8.03369C46.0713 8.49408 46.0689 8.95449 46.0661 9.4149C46.0601 10.3143 46.051 11.2137 46.0394 12.1131C46.1526 12.1102 46.2657 12.1074 46.3823 12.1044C46.895 12.093 47.4076 12.0859 47.9203 12.0789C48.0984 12.0743 48.2765 12.0697 48.46 12.065C48.631 12.0632 48.8021 12.0615 48.9783 12.0597C49.1359 12.0568 49.2935 12.0539 49.4559 12.051C49.8696 12.1131 49.8696 12.1131 50.1647 12.3036C50.5561 12.8574 50.4923 13.3893 50.4863 14.0518C50.4875 14.2665 50.4875 14.2665 50.4889 14.4854C50.491 14.9664 50.4893 15.4473 50.4876 15.9283C50.4883 16.2725 50.4893 16.6167 50.4905 16.961C50.4927 17.7997 50.4924 18.6385 50.4908 19.4772C50.4896 20.1588 50.4894 20.8404 50.49 21.522C50.4901 21.619 50.4902 21.716 50.4903 21.8159C50.4904 22.0128 50.4906 22.2098 50.4908 22.4067C50.4924 24.2542 50.4906 26.1017 50.4876 27.9492C50.4852 29.5349 50.4856 31.1206 50.4881 32.7063C50.491 34.5472 50.4922 36.388 50.4905 38.2288C50.4903 38.425 50.4902 38.6213 50.49 38.8175C50.4899 38.9624 50.4899 38.9624 50.4897 39.1101C50.4893 39.791 50.4901 40.4719 50.4914 41.1528C50.4931 42.069 50.4919 42.9852 50.4887 43.9014C50.488 44.2382 50.4882 44.575 50.4894 44.9118C50.4909 45.3705 50.489 45.8291 50.4863 46.2877C50.4881 46.4892 50.4881 46.4892 50.49 46.6947C50.4796 47.5905 50.4796 47.5905 50.1647 48.036C49.7551 48.3004 49.4634 48.2887 48.9783 48.2799C48.8073 48.2782 48.6362 48.2764 48.46 48.2746C48.1929 48.2677 48.1929 48.2677 47.9203 48.2607C47.7401 48.2582 47.5599 48.2557 47.3742 48.2532C46.9292 48.2468 46.4843 48.2378 46.0394 48.2265C46.0399 48.3048 46.0404 48.383 46.0409 48.4637C46.0531 50.3741 46.0621 52.2844 46.0678 54.1948C46.0706 55.1187 46.0744 56.0425 46.0807 56.9664C46.0867 57.8587 46.0899 58.7509 46.0913 59.6432C46.0923 59.9829 46.0943 60.3226 46.0973 60.6623C46.1013 61.1397 46.1018 61.617 46.1015 62.0943C46.1035 62.2335 46.1055 62.3726 46.1075 62.5159C46.0987 64.0527 45.5971 65.307 44.5347 66.42C42.7936 68.082 40.8821 68.0042 38.613 67.9955C38.2891 67.9962 37.9652 67.9972 37.6413 67.9984C36.7645 68.0009 35.8879 67.9999 35.0111 67.9982C34.4629 67.9972 33.9147 67.9974 33.3664 67.9979C33.2296 67.9981 33.2296 67.998 33.0899 67.9982C32.9046 67.9984 32.7192 67.9985 32.5338 67.9987C30.7986 68.0003 29.0634 67.9985 27.3282 67.9955C25.8419 67.9931 24.3556 67.9935 22.8693 67.996C21.1399 67.999 19.4106 68.0001 17.6813 67.9984C17.4966 67.9983 17.3119 67.9981 17.1273 67.9979C16.991 67.9978 16.991 67.9978 16.852 67.9977C16.2142 67.9972 15.5764 67.998 14.9387 67.9993C14.0791 68.0009 13.2195 67.9998 12.3598 67.9966C12.045 67.9959 11.7302 67.9961 11.4154 67.9973C9.2905 68.0047 7.57606 67.9637 5.959 66.42C4.7619 65.166 4.36805 63.7999 4.39216 62.0943C4.39208 61.9433 4.392 61.7924 4.39192 61.6368C4.3923 61.1431 4.39654 60.6495 4.40084 60.1558C4.40187 59.8114 4.40264 59.467 4.40319 59.1226C4.40506 58.3121 4.40936 57.5016 4.41487 56.6912C4.42162 55.6767 4.42453 54.6622 4.42756 53.6477C4.43341 51.8406 4.44264 50.0336 4.45428 48.2265C4.34112 48.2294 4.22795 48.2322 4.11136 48.2352C3.59872 48.2465 3.0861 48.2537 2.57337 48.2607C2.30623 48.2676 2.30623 48.2676 2.03368 48.2746C1.86264 48.2763 1.69159 48.2781 1.51536 48.2799C1.35776 48.2828 1.20017 48.2857 1.03779 48.2886C0.624071 48.2265 0.624071 48.2265 0.32897 48.036C-0.0623968 47.4822 0.00139436 46.9503 0.00741618 46.2877C0.0065626 46.1447 0.00570947 46.0016 0.00483002 45.8542C0.00264188 45.3732 0.00437822 44.8922 0.00609701 44.4112C0.00535584 44.067 0.00438175 43.7228 0.00319149 43.3786C0.000951706 42.5399 0.00128466 41.7011 0.00287005 40.8623C0.00410509 40.1807 0.00427372 39.4991 0.00367783 38.8175C0.00359399 38.7206 0.00351061 38.6236 0.00342422 38.5237C0.00324928 38.3268 0.00307179 38.1298 0.00289196 37.9328C0.00133116 36.0853 0.00312641 34.2379 0.0060657 32.3904C0.00851038 30.8046 0.00808546 29.219 0.00556266 27.6332C0.00263536 25.7924 0.00148152 23.9516 0.00316227 22.1108C0.00333657 21.9145 0.00350813 21.7183 0.00367783 21.522C0.00376225 21.4255 0.00384655 21.3289 0.00393352 21.2294C0.00440624 20.5486 0.00360805 19.8677 0.00232109 19.1868C0.000627452 18.2706 0.00183086 17.3544 0.00499909 16.4382C0.00572437 16.1014 0.00551179 15.7646 0.00430819 15.4277C0.00281993 14.9691 0.00467991 14.5105 0.00741618 14.0518C0.00619559 13.9176 0.00497507 13.7833 0.00371749 13.6449C0.0141319 12.7491 0.0141319 12.7491 0.32897 12.3036C0.738622 12.0391 1.03033 12.0508 1.51536 12.0597C1.68641 12.0614 1.85745 12.0632 2.03368 12.065C2.21178 12.0696 2.38988 12.0742 2.57337 12.0789C2.75359 12.0814 2.9338 12.0838 3.11948 12.0864C3.56451 12.0928 4.00935 12.1018 4.45428 12.1131C4.45306 12.0188 4.45185 11.9244 4.4506 11.8272C4.43957 10.9319 4.43127 10.0366 4.42593 9.14117C4.42309 8.68099 4.41925 8.22087 4.413 7.76073C4.40632 7.22996 4.40325 6.69927 4.40084 6.16847C4.39802 6.00568 4.3952 5.84289 4.39229 5.67517C4.39186 4.04683 4.82595 2.76692 5.959 1.58002C7.70005 -0.0820381 9.61159 -0.00423173 11.8807 0.00449279ZM7.42953 3.55497C5.67514 5.70787 6.64297 10.351 6.64297 12.1131C18.9215 12.1131 31.2001 12.1131 43.8507 12.1131C44.3143 8.01519 44.3143 8.01519 43.03 3.49512C41.9196 2.39266 40.832 2.24292 39.314 2.24569C39.1265 2.24523 39.1265 2.24523 38.9353 2.24475C38.5173 2.24389 38.0993 2.244 37.6812 2.24411C37.3812 2.2437 37.0812 2.24324 36.7812 2.24272C35.9667 2.24151 35.1521 2.24119 34.3376 2.24111C33.8285 2.24101 33.3195 2.24072 32.8105 2.24035C31.1259 2.23915 29.4414 2.23852 27.7568 2.23862C27.6661 2.23863 27.5753 2.23863 27.4819 2.23864C27.3456 2.23864 27.3456 2.23864 27.2065 2.23865C25.7346 2.23871 24.2627 2.2374 22.7907 2.23547C21.2779 2.2335 19.765 2.23259 18.2521 2.23268C17.4033 2.23271 16.5546 2.23233 15.7058 2.23088C14.9074 2.22955 14.109 2.22954 13.3106 2.23054C13.0179 2.23068 12.7253 2.23036 12.4326 2.22953C12.0323 2.22847 11.6321 2.22911 11.2318 2.23016C11.1167 2.22946 11.0017 2.22876 10.8831 2.22803C9.4814 2.23615 8.39902 2.48035 7.42953 3.55497ZM2.26559 14.3018C2.26559 16.4686 2.26559 18.6354 2.26559 20.8679C17.4332 20.8679 32.6008 20.8679 48.2281 20.8679C48.2281 18.7011 48.2281 16.5342 48.2281 14.3018C33.0605 14.3018 17.8928 14.3018 2.26559 14.3018ZM2.26559 23.0565C2.26559 30.6404 2.26559 38.2242 2.26559 46.0378C17.4332 46.0378 32.6008 46.0378 48.2281 46.0378C48.2281 38.454 48.2281 30.8702 48.2281 23.0565C33.0605 23.0565 17.8928 23.0565 2.26559 23.0565ZM6.64297 48.2265C6.64297 50.3933 6.64297 52.5601 6.64297 54.7926C18.9215 54.7926 31.2001 54.7926 43.8507 54.7926C43.8507 52.6258 43.8507 50.459 43.8507 48.2265C31.5722 48.2265 19.2936 48.2265 6.64297 48.2265ZM6.64297 56.9813C6.2624 60.7215 6.2624 60.7215 7.46373 64.5049C8.57413 65.6073 9.66169 65.7571 11.1797 65.7543C11.3671 65.7548 11.3671 65.7548 11.5584 65.7552C11.9764 65.7561 12.3944 65.756 12.8125 65.7559C13.1125 65.7563 13.4125 65.7568 13.7125 65.7573C14.527 65.7585 15.3416 65.7588 16.1561 65.7589C16.6652 65.759 17.1742 65.7593 17.6832 65.7596C19.3678 65.7608 21.0523 65.7615 22.7369 65.7614C22.8276 65.7614 22.9183 65.7614 23.0118 65.7614C23.1027 65.7614 23.1935 65.7614 23.2871 65.7613C24.7591 65.7613 26.231 65.7626 27.7029 65.7645C29.2158 65.7665 30.7287 65.7674 32.2416 65.7673C33.0904 65.7673 33.9391 65.7677 34.7879 65.7691C35.5863 65.7704 36.3847 65.7705 37.1831 65.7695C37.4758 65.7693 37.7684 65.7696 38.0611 65.7705C38.4613 65.7715 38.8616 65.7709 39.2619 65.7698C39.4345 65.7709 39.4345 65.7709 39.6106 65.772C40.8498 65.7648 41.9354 65.6044 42.8424 64.6908C44.6958 62.6364 43.8507 59.5107 43.8507 56.9813C31.5722 56.9813 19.2936 56.9813 6.64297 56.9813Z" fill="var(--fill-0, #FF5100)"/>
<path id="Vector_2" d="M29.0783 25.2455C29.4203 25.4507 29.4203 25.4507 29.6255 25.7926C29.7248 26.7679 29.4447 27.457 29.0527 28.3404C28.9917 28.4822 28.9307 28.624 28.8679 28.77C28.6663 29.2375 28.462 29.7037 28.2576 30.17C28.1164 30.496 27.9753 30.822 27.8345 31.1481C27.6137 31.6592 27.3926 32.1702 27.1705 32.6807C26.665 33.8428 26.1646 35.0069 25.6682 36.1728C25.5547 36.4396 25.441 36.7063 25.3273 36.973C25.2903 37.0598 25.2533 37.1466 25.2152 37.2361C25.1784 37.3223 25.1417 37.4085 25.1038 37.4973C24.8861 38.0081 24.6684 38.519 24.451 39.03C24.2491 39.504 24.0466 39.9777 23.8439 40.4514C23.7841 40.592 23.7244 40.7326 23.6629 40.8775C23.6072 41.0072 23.5516 41.1369 23.4943 41.2706C23.4463 41.3829 23.3984 41.4952 23.349 41.6109C22.9 42.5611 22.9 42.5611 22.5123 42.755C21.5476 42.8328 21.5476 42.8328 21.0759 42.5498C20.789 42.0716 20.8001 41.6517 20.8707 41.1135C21.0231 40.6116 21.231 40.1391 21.4436 39.66C21.5045 39.5183 21.5655 39.3765 21.6284 39.2304C21.8299 38.763 22.0343 38.2967 22.2387 37.8304C22.3799 37.5045 22.5209 37.1785 22.6617 36.8523C22.8826 36.3413 23.1037 35.8303 23.3258 35.3197C23.8312 34.1577 24.3316 32.9936 24.828 31.8276C24.9416 31.5609 25.0552 31.2942 25.1689 31.0275C25.2059 30.9407 25.2429 30.8538 25.2811 30.7644C25.3178 30.6782 25.3545 30.592 25.3924 30.5032C25.6101 29.9923 25.8278 29.4815 26.0452 28.9705C26.2471 28.4965 26.4497 28.0227 26.6524 27.549C26.7121 27.4084 26.7718 27.2679 26.8333 27.123C26.889 26.9933 26.9446 26.8635 27.002 26.7299C27.0499 26.6176 27.0978 26.5053 27.1472 26.3896C27.611 25.4083 27.9516 25.0918 29.0783 25.2455Z" fill="var(--fill-0, #FF5100)"/>
<path id="Vector_3" d="M33.7103 27.3549C34.0676 27.4518 34.2405 27.5978 34.5125 27.8476C34.6076 27.9347 34.7028 28.0217 34.8007 28.1113C35.2887 28.5752 35.7692 29.0457 36.2446 29.5225C36.4012 29.6789 36.4012 29.6789 36.5609 29.8384C36.7794 30.0568 36.9977 30.2753 37.2158 30.494C37.5508 30.8298 37.8866 31.1648 38.2225 31.4998C38.4353 31.7127 38.648 31.9256 38.8608 32.1386C38.9613 32.2389 39.0619 32.3393 39.1656 32.4426C39.2579 32.5353 39.3502 32.6281 39.4453 32.7236C39.5267 32.8052 39.6082 32.8868 39.6921 32.9708C40.0459 33.3568 40.0912 33.7273 40.084 34.2466C40.0041 34.6202 39.8657 34.7802 39.6074 35.0597C39.5202 35.1546 39.4329 35.2496 39.343 35.3474C38.8778 35.8342 38.4078 36.3152 37.931 36.7907C37.8267 36.8951 37.7225 36.9995 37.615 37.107C37.3967 37.3255 37.1781 37.5438 36.9594 37.7619C36.6237 38.0969 36.2886 38.4327 35.9536 38.7686C35.7407 38.9814 35.5278 39.1941 35.3148 39.4068C35.2145 39.5074 35.1142 39.608 35.0108 39.7116C34.9181 39.804 34.8254 39.8963 34.7298 39.9914C34.6075 40.1136 34.6075 40.1136 34.4827 40.2382C34.0812 40.6061 33.7134 40.6134 33.1769 40.6027C32.9065 40.5658 32.9065 40.5658 32.5645 40.3606C32.3321 39.9733 32.2554 39.665 32.2836 39.2119C32.6029 37.9996 34.3463 36.786 35.2234 35.9149C35.3971 35.742 35.5706 35.569 35.7442 35.396C36.1659 34.9758 36.588 34.5561 37.0103 34.1366C36.8289 33.7338 36.6325 33.4519 36.3186 33.1423C36.1919 33.0164 36.1919 33.0164 36.0627 32.8879C35.9718 32.7988 35.8809 32.7097 35.7872 32.6179C35.6471 32.4789 35.6471 32.4789 35.5041 32.337C35.206 32.0414 34.907 31.7466 34.6079 31.452C34.3084 31.1563 34.0091 30.8603 33.7102 30.564C33.5242 30.3797 33.3379 30.1958 33.1512 30.0123C33.0672 29.9292 32.9831 29.8461 32.8966 29.7604C32.8224 29.6874 32.7482 29.6143 32.6717 29.539C32.3116 29.1489 32.3121 28.7711 32.3225 28.2512C32.3593 27.9809 32.3593 27.9809 32.5645 27.6389C32.9504 27.4074 33.2589 27.3312 33.7103 27.3549Z" fill="var(--fill-0, #FF5100)"/>
<path id="Vector_4" d="M17.5879 27.4337C17.9299 27.6389 17.9299 27.6389 18.1351 27.9809C18.2317 28.5079 18.2848 28.8494 17.9835 29.3041C17.1114 30.2623 16.1901 31.1719 15.271 32.0847C15.0974 32.2576 14.9238 32.4306 14.7503 32.6036C14.3286 33.0237 13.9065 33.4435 13.4841 33.863C13.6655 34.2657 13.862 34.5476 14.1759 34.8572C14.3025 34.9832 14.3025 34.9832 14.4317 35.1117C14.5227 35.2008 14.6136 35.2899 14.7072 35.3816C14.8474 35.5207 14.8474 35.5207 14.9903 35.6625C15.2884 35.9582 15.5874 36.2529 15.8866 36.5476C16.1861 36.8433 16.4854 37.1392 16.7843 37.4355C16.9702 37.6198 17.1566 37.8037 17.3433 37.9873C17.4273 38.0704 17.5113 38.1535 17.5978 38.2391C17.672 38.3122 17.7462 38.3853 17.8227 38.4606C18.1829 38.8507 18.1824 39.2285 18.172 39.7483C18.1351 40.0187 18.1351 40.0187 17.9299 40.3607C17.5441 40.5922 17.2355 40.6684 16.7842 40.6446C16.4268 40.5478 16.2539 40.4018 15.9819 40.1519C15.8868 40.0649 15.7917 39.9779 15.6937 39.8882C15.2057 39.4243 14.7253 38.9539 14.2498 38.4771C14.1454 38.3728 14.0411 38.2686 13.9335 38.1612C13.715 37.9428 13.4968 37.7243 13.2786 37.5056C12.9436 37.1698 12.6078 36.8347 12.272 36.4998C12.0592 36.2869 11.8464 36.0739 11.6337 35.8609C11.5331 35.7606 11.4325 35.6603 11.3289 35.557C11.2366 35.4642 11.1442 35.3715 11.0491 35.2759C10.9677 35.1944 10.8862 35.1128 10.8023 35.0288C10.4485 34.6428 10.4032 34.2722 10.4104 33.7529C10.4904 33.3794 10.6287 33.2194 10.887 32.9399C10.9743 32.8449 11.0615 32.75 11.1514 32.6521C11.6166 32.1654 12.0867 31.6844 12.5634 31.2089C12.7198 31.0523 12.7198 31.0523 12.8794 30.8926C13.0978 30.6741 13.3163 30.4558 13.535 30.2377C13.8708 29.9026 14.2058 29.5669 14.5408 29.231C14.7537 29.0182 14.9666 28.8054 15.1796 28.5927C15.2799 28.4921 15.3802 28.3916 15.4836 28.2879C15.5763 28.1956 15.6691 28.1033 15.7646 28.0082C15.8462 27.9267 15.9277 27.8453 16.0118 27.7614C16.4709 27.3406 16.9954 27.3529 17.5879 27.4337Z" fill="var(--fill-0, #FF5100)"/>
<path id="Vector_5" d="M26.8102 58.2806C27.607 58.7622 28.2526 59.5104 28.5287 60.4009C28.6388 61.4729 28.6825 62.5375 27.9815 63.4104C27.3243 64.1005 26.7282 64.5876 25.7559 64.6875C24.591 64.7003 23.7852 64.6576 22.925 63.8384C22.052 62.894 21.8969 62.1517 21.9209 60.8722C22.016 59.7968 22.5163 59.2314 23.3172 58.5468C24.2835 57.8809 25.7372 57.8052 26.8102 58.2806ZM24.5104 60.6232C24.2215 61.0455 24.2044 61.2666 24.2881 61.7689C24.4933 62.1109 24.4933 62.1109 24.8353 62.316C25.3375 62.3998 25.5586 62.3827 25.9809 62.0938C26.2698 61.6715 26.2869 61.4504 26.2032 60.9481C25.998 60.6061 25.998 60.6061 25.656 60.4009C25.1537 60.3172 24.9326 60.3343 24.5104 60.6232Z" fill="var(--fill-0, #FF5100)"/>
<path id="Vector_6" d="M21.2794 4.38187C21.3747 4.38091 21.47 4.37995 21.5681 4.37897C21.8823 4.37656 22.1964 4.37815 22.5106 4.38C22.7293 4.37963 22.948 4.3791 23.1668 4.37842C23.6249 4.37761 24.083 4.37878 24.5411 4.38134C25.1281 4.38446 25.7149 4.38266 26.3019 4.37938C26.7535 4.3774 27.205 4.37804 27.6566 4.37945C27.873 4.37982 28.0894 4.37937 28.3059 4.3781C28.6085 4.3767 28.9109 4.37883 29.2134 4.38187C29.4716 4.38253 29.4716 4.38253 29.735 4.38319C30.2469 4.46478 30.4079 4.59291 30.7182 4.99985C30.7908 5.27343 30.7908 5.27343 30.7866 5.54702C30.7887 5.68244 30.7887 5.68244 30.7908 5.8206C30.6828 6.22718 30.4992 6.38099 30.171 6.64136C29.735 6.71085 29.735 6.71085 29.2134 6.71217C29.1182 6.71312 29.0229 6.71408 28.9248 6.71507C28.6106 6.71747 28.2965 6.71589 27.9823 6.71404C27.7636 6.7144 27.5449 6.71494 27.3261 6.71562C26.868 6.71643 26.4099 6.71526 25.9518 6.7127C25.3648 6.70958 24.778 6.71138 24.191 6.71465C23.7394 6.71663 23.2878 6.716 22.8363 6.71458C22.6199 6.71422 22.4034 6.71467 22.187 6.71594C21.8844 6.71733 21.582 6.71521 21.2794 6.71217C21.1073 6.71173 20.9352 6.71129 20.7579 6.71085C20.2459 6.62926 20.085 6.50113 19.7747 6.09419C19.702 5.8206 19.702 5.8206 19.7063 5.54702C19.7042 5.41159 19.7042 5.41159 19.702 5.27343C19.9197 4.45395 20.5278 4.38377 21.2794 4.38187Z" fill="var(--fill-0, #FF5100)"/>
<path id="Vector_7" d="M34.6831 60.1915C34.8025 60.1909 34.9219 60.1904 35.0449 60.1899C35.2969 60.1895 35.549 60.1905 35.801 60.1928C36.1866 60.1957 36.5718 60.1928 36.9573 60.1893C37.2024 60.1897 37.4475 60.1904 37.6926 60.1915C37.8077 60.1904 37.9229 60.1892 38.0415 60.1881C38.8399 60.2009 38.8399 60.2009 39.2697 60.5252C39.4875 60.8349 39.5452 60.9838 39.5393 61.3585C39.5407 61.4488 39.5421 61.539 39.5436 61.6321C39.4326 62.0498 39.2698 62.1917 38.9237 62.4528C38.5137 62.5351 38.1097 62.5295 37.6926 62.5255C37.5732 62.526 37.4538 62.5265 37.3308 62.5271C37.0788 62.5275 36.8268 62.5264 36.5747 62.5242C36.1892 62.5212 35.804 62.5241 35.4184 62.5276C35.1733 62.5273 34.9282 62.5266 34.6831 62.5255C34.568 62.5266 34.4529 62.5277 34.3342 62.5289C33.5358 62.5161 33.5358 62.5161 33.106 62.1918C32.8882 61.882 32.8306 61.7332 32.8364 61.3585C32.8343 61.2231 32.8343 61.2231 32.8322 61.0849C33.084 60.137 33.8693 60.1836 34.6831 60.1915Z" fill="var(--fill-0, #FF5100)"/>
<path id="Vector_8" d="M12.7966 60.1915C12.9159 60.1909 13.0353 60.1904 13.1583 60.1899C13.4104 60.1895 13.6624 60.1905 13.9144 60.1928C14.3 60.1957 14.6852 60.1928 15.0707 60.1893C15.3158 60.1897 15.5609 60.1904 15.806 60.1915C15.9212 60.1904 16.0363 60.1892 16.1549 60.1881C16.9533 60.2009 16.9533 60.2009 17.3831 60.5252C17.6009 60.8349 17.6586 60.9838 17.6527 61.3585C17.6541 61.4488 17.6555 61.539 17.657 61.6321C17.546 62.0498 17.3833 62.1917 17.0372 62.4528C16.6271 62.5351 16.2231 62.5295 15.806 62.5255C15.6866 62.526 15.5673 62.5265 15.4443 62.5271C15.1922 62.5275 14.9402 62.5264 14.6882 62.5242C14.3026 62.5212 13.9174 62.5241 13.5318 62.5276C13.2867 62.5273 13.0417 62.5266 12.7966 62.5255C12.6814 62.5266 12.5663 62.5277 12.4476 62.5289C11.6493 62.5161 11.6493 62.5161 11.2194 62.1918C11.0016 61.882 10.944 61.7332 10.9499 61.3585C10.9477 61.2231 10.9477 61.2231 10.9456 61.0849C11.1974 60.137 11.9827 60.1836 12.7966 60.1915Z" fill="var(--fill-0, #FF5100)"/>
<path id="Vector_9" d="M45.4925 16.4905C45.8345 16.6957 45.8345 16.6957 46.0397 17.0377C46.1479 17.5877 46.1247 17.9903 45.8345 18.474C45.3508 18.7642 44.9482 18.7874 44.3982 18.6792C44.0562 18.474 44.0562 18.474 43.851 18.132C43.7428 17.582 43.766 17.1794 44.0562 16.6957C44.5399 16.4055 44.9425 16.3823 45.4925 16.4905Z" fill="var(--fill-0, #FF5100)"/>
<path id="Vector_10" d="M41.1143 16.4905C41.4563 16.6957 41.4563 16.6957 41.6615 17.0377C41.7697 17.5877 41.7465 17.9903 41.4563 18.474C40.9726 18.7642 40.57 18.7874 40.0199 18.6792C39.678 18.474 39.678 18.474 39.4728 18.132C39.3646 17.582 39.3877 17.1794 39.678 16.6957C40.1616 16.4055 40.5642 16.3823 41.1143 16.4905Z" fill="var(--fill-0, #FF5100)"/>
<path id="Vector_11" d="M36.7361 16.4905C37.078 16.6957 37.078 16.6957 37.2832 17.0377C37.3914 17.5877 37.3683 17.9903 37.078 18.474C36.5944 18.7642 36.1918 18.7874 35.6417 18.6792C35.2997 18.474 35.2997 18.474 35.0945 18.132C34.9863 17.582 35.0095 17.1794 35.2997 16.6957C35.7834 16.4055 36.186 16.3823 36.7361 16.4905Z" fill="var(--fill-0, #FF5100)"/>
<path id="Vector_12" d="M34.5469 4.45263C34.8889 4.65782 34.8889 4.65782 35.0941 4.9998C35.2023 5.54985 35.1791 5.95245 34.8889 6.43613C34.4052 6.72634 34.0026 6.74953 33.4526 6.64132C33.1106 6.43613 33.1106 6.43613 32.9054 6.09415C32.7972 5.54411 32.8204 5.14151 33.1106 4.65782C33.5943 4.36761 33.9969 4.34443 34.5469 4.45263Z" fill="var(--fill-0, #FF5100)"/>
</g>
</svg>
