<svg preserveAspectRatio="none" width="100%" height="100%" overflow="visible" style="display: block;" viewBox="0 0 60.2505 58" fill="none" xmlns="http://www.w3.org/2000/svg">
<g id="Group 278">
<path id="Vector" d="M32.6042 9.92732C33.3481 10.5359 33.6349 11.0738 33.8855 11.9834C33.9918 12.5009 33.9918 12.5009 34.2431 12.9369C34.718 12.9826 34.9819 13.0061 35.3754 12.7209C35.4738 12.6348 35.5721 12.5488 35.6734 12.4601C36.3903 12.0505 37.1218 11.9744 37.9381 12.1026C38.7742 12.3858 39.3377 12.9567 39.942 13.5775C40.0314 13.666 40.1207 13.7545 40.2128 13.8457C40.9061 14.5471 41.3462 15.1794 41.4245 16.1774C41.3769 16.9037 41.2217 17.5418 40.7093 18.077C40.3952 18.4058 40.3952 18.4058 40.4412 18.8667C40.5252 19.285 40.5252 19.285 40.9179 19.4924C41.1278 19.5339 41.3392 19.568 41.5511 19.5967C42.437 19.7494 42.9238 20.1473 43.5048 20.8063C44.0099 21.5762 43.9456 22.4525 43.9499 23.3363C43.9538 23.4766 43.9577 23.6169 43.9618 23.7614C43.968 24.7838 43.808 25.6288 43.0884 26.3941C42.5204 26.9035 41.8758 27.0249 41.1391 27.1518C40.7871 27.2428 40.6442 27.2992 40.4412 27.5974C40.4533 28.2548 40.6361 28.5323 41.0371 29.0277C41.4291 29.8084 41.4877 30.5665 41.2755 31.4115C40.7897 32.5745 39.4088 33.9955 38.251 34.4956C37.2464 34.7934 36.4816 34.6302 35.5542 34.1529C35.392 34.0165 35.392 34.0165 35.2264 33.8773C34.9634 33.636 34.9634 33.636 34.5783 33.6911C34.2308 33.7707 34.2308 33.7707 34.0047 34.0337C33.9485 34.2757 33.9 34.5194 33.8557 34.7638C33.666 35.6104 33.4148 36.1995 32.6904 36.7055C31.8158 37.1865 31.041 37.2191 30.0564 37.1998C29.9106 37.2011 29.7648 37.2024 29.6146 37.2037C28.5803 37.1953 27.9338 37.0525 27.1213 36.3878C26.56 35.7017 26.3287 35.0392 26.2083 34.165C26.1547 33.8696 26.1547 33.8696 25.7804 33.6762C25.1944 33.6895 24.8897 33.9078 24.4436 34.247C23.8043 34.6807 23.0619 34.7012 22.3214 34.5952C21.0819 34.296 19.9577 32.9998 19.2247 32.0075C18.7735 31.2651 18.755 30.4692 18.8672 29.6237C19.062 29.1121 19.3148 28.6992 19.7015 28.3126C19.7587 27.8318 19.7587 27.8318 19.567 27.4061C19.2587 27.1763 18.9759 27.1434 18.599 27.0759C17.7956 26.901 17.2594 26.7172 16.7822 26.0302C16.0185 24.7315 16.0731 23.0164 16.318 21.561C16.5634 20.7883 16.9974 20.2887 17.6752 19.85C18.0069 19.7018 18.3109 19.6282 18.6646 19.5543C18.8091 19.5237 18.8091 19.5237 18.9566 19.4924C19.0921 19.4666 19.0921 19.4666 19.2303 19.4403C19.4886 19.3862 19.4886 19.3862 19.7015 19.1348C19.7787 18.7394 19.7458 18.4972 19.5455 18.1469C19.4183 17.9595 19.288 17.7742 19.1544 17.5914C18.8548 17.1556 18.8414 16.768 18.8299 16.2519C18.8255 16.1224 18.821 15.9929 18.8164 15.8594C18.94 14.8383 19.5558 14.1991 20.2677 13.5031C20.3485 13.4204 20.4293 13.3377 20.5126 13.2526C21.1347 12.6352 21.7229 12.1791 22.6031 12.0392C23.5616 12.0487 24.216 12.1745 24.9609 12.7879C25.2888 13.0065 25.5156 12.9941 25.8996 12.9369C26.2351 12.5877 26.3033 12.3076 26.354 11.8344C26.4939 10.9684 26.8863 10.4694 27.5459 9.91242C28.9283 9.20767 31.2327 9.18883 32.6042 9.92732ZM28.4026 11.745C28.2573 12.1443 28.2573 12.1443 28.1791 12.6017C27.9526 13.602 27.5822 14.1723 26.719 14.7248C25.9191 15.001 24.9199 14.9949 24.1564 14.6279C23.9235 14.4952 23.7567 14.3699 23.5702 14.1768C23.3962 13.9807 23.3962 13.9807 23.0762 13.9351C22.4707 14.0494 22.1578 14.422 21.7278 14.844C21.5928 14.962 21.5928 14.962 21.455 15.0823C21.0406 15.4571 20.8018 15.6747 20.6774 16.2296C20.7981 16.7308 21.0254 16.9693 21.3702 17.347C21.7392 18.0863 21.7447 18.9887 21.5309 19.7801C21.2645 20.3722 20.8706 20.8508 20.2975 21.1611C19.8341 21.2972 19.3799 21.4057 18.9063 21.5005C18.5054 21.6055 18.5054 21.6055 18.2791 21.879C18.0988 22.3823 18.1047 22.8431 18.1148 23.3736C18.1144 23.4749 18.114 23.5762 18.1136 23.6806C18.1179 24.1809 18.1246 24.538 18.3904 24.9752C18.7266 25.1955 19.0475 25.2572 19.4408 25.3179C20.2105 25.4662 20.7565 25.7057 21.2361 26.3534C21.7163 27.0672 21.6816 27.8361 21.6086 28.6701C21.4604 29.1384 21.2338 29.4999 20.9233 29.8769C20.693 30.2223 20.7099 30.404 20.7743 30.8156C21.022 31.1653 21.3215 31.4517 21.631 31.7468C21.7112 31.8278 21.7915 31.9088 21.8742 31.9924C22.4228 32.537 22.4228 32.537 23.1581 32.7226C23.5249 32.5179 23.5249 32.5179 23.8733 32.2459C24.5816 31.7905 25.1845 31.6935 26.0188 31.7691C26.8218 31.9542 27.4345 32.3432 27.8961 33.0355C28.0686 33.5013 28.1374 33.9488 28.1973 34.4407C28.3132 34.8553 28.3942 34.9895 28.7602 35.2256C29.1984 35.293 29.6289 35.2867 30.0713 35.2778C30.2497 35.2791 30.2497 35.2791 30.4317 35.2804C31.2179 35.286 31.2179 35.286 31.8592 34.8681C31.9771 34.5181 31.9771 34.5181 32.038 34.1231C32.2085 33.3038 32.3629 32.7502 33.0363 32.2086C33.8232 31.7837 34.5678 31.62 35.4481 31.8287C35.9658 32.0053 36.3564 32.2549 36.7657 32.6165C37.1264 32.7914 37.3214 32.7268 37.6997 32.6034C38.0214 32.367 38.2938 32.0926 38.5713 31.8063C38.6467 31.7333 38.722 31.6602 38.7997 31.585C39.1316 31.2495 39.3433 31.0075 39.4988 30.5567C39.4854 30.1533 39.3955 29.9941 39.1524 29.6758C38.5823 28.9162 38.4425 28.2979 38.5341 27.359C38.7013 26.6065 39.0357 26.099 39.6962 25.6759C40.2405 25.3763 40.7563 25.2535 41.371 25.1763C41.7191 25.0675 41.8012 24.9253 41.9907 24.6176C42.063 24.2055 42.0459 23.7914 42.0428 23.3736C42.0452 23.2613 42.0476 23.1491 42.05 23.0335C42.0497 22.5242 42.0362 22.1976 41.7881 21.7454C41.4701 21.4824 41.2953 21.4367 40.8881 21.3995C40.1243 21.2874 39.5487 21.0667 39.0625 20.4459C38.5772 19.6937 38.4602 19.0707 38.5341 18.1813C38.6831 17.5479 38.9605 17.1349 39.3684 16.6318C39.4757 16.3458 39.4757 16.3458 39.4876 16.0359C39.3597 15.7951 39.3597 15.7951 39.1449 15.5889C39.0679 15.5084 38.991 15.4279 38.9117 15.3449C38.7837 15.2149 38.7837 15.2149 38.6533 15.0823C38.5643 14.9834 38.4753 14.8844 38.3837 14.7825C38.2932 14.6848 38.2027 14.5871 38.1094 14.4864C37.9838 14.3499 37.9838 14.3499 37.8557 14.2107C37.4954 13.9474 37.3031 13.9467 36.8654 14.0096C36.5684 14.1548 36.5684 14.1548 36.3066 14.3597C35.5332 14.9248 34.8255 14.9208 33.8855 14.844C33.2087 14.6726 32.7598 14.2764 32.3649 13.7107C32.1259 13.2312 32.0377 12.7297 31.9472 12.2045C31.8555 11.8499 31.7929 11.7199 31.5017 11.5066C31.0248 11.3476 30.5857 11.3608 30.0862 11.3576C29.9427 11.3539 29.9427 11.3539 29.7962 11.3502C29.2447 11.3465 28.8234 11.3475 28.4026 11.745Z" fill="var(--fill-0, #FF5100)"/>
<path id="Vector_2" d="M49.7384 27.5976C49.9693 27.7242 49.9693 27.7242 50.0959 27.9551C50.1776 28.4371 50.2223 28.7301 49.9347 29.1365C49.8655 29.2111 49.7962 29.2857 49.7249 29.3626C49.649 29.4454 49.5731 29.5283 49.4949 29.6136C49.3794 29.7366 49.3794 29.7366 49.2616 29.8622C49.1951 29.9351 49.1285 30.008 49.06 30.0831C48.1791 31.047 47.2705 31.9842 46.3488 32.909C46.2615 32.9969 46.1742 33.0847 46.0842 33.1753C45.6011 33.657 45.1072 34.1183 44.5881 34.5611C44.3684 34.7546 44.1624 34.9572 43.9575 35.1662C43.6013 35.5281 43.2284 35.8629 42.8438 36.1942C42.563 36.4384 42.2882 36.6885 42.0132 36.9392C41.5041 37.3987 40.9791 37.8332 40.4459 38.2642C40.0276 38.6094 39.62 38.9657 39.2121 39.323C38.4439 39.9932 37.6568 40.6322 36.8486 41.2534C36.6145 41.4335 36.381 41.6144 36.1475 41.7953C34.9358 42.7312 33.704 43.6368 32.4553 44.5227C32.3474 44.5995 32.2394 44.6762 32.1281 44.7553C30.7267 45.7491 29.3148 46.7062 27.8362 47.5815C27.5556 47.7485 27.2767 47.9183 26.9981 48.0887C25.545 48.9746 24.0678 49.808 22.5623 50.6015C22.4447 50.6637 22.3271 50.7259 22.2059 50.79C17.1353 53.4532 10.0345 56.7868 4.20654 55.0115C2.6838 54.4567 1.33535 53.5397 0.630741 52.0318C0.0929369 50.7119 -0.198188 49.0303 0.153968 47.6217C0.347657 47.3237 0.347657 47.3237 0.630741 47.1449C1.13052 47.0631 1.37527 47.0933 1.81522 47.346C2.14458 47.875 2.0906 48.2645 2.06851 48.8755C2.04704 50.0712 2.29944 51.1244 3.10447 52.028C4.31302 53.1804 5.95106 53.3876 7.55836 53.3786C16.2199 53.1693 25.1218 47.3699 31.8812 42.4165C32.1317 42.2332 32.3832 42.0513 32.6346 41.8693C33.7225 41.0782 34.7828 40.2627 35.8207 39.4073C36.2448 39.0581 36.6771 38.7207 37.1113 38.3844C38.3412 37.4268 39.5033 36.3877 40.6578 35.3413C40.8963 35.1262 41.1373 34.9147 41.3799 34.7043C42.2609 33.936 43.1256 33.1493 43.9445 32.3149C44.1403 32.1229 44.3441 31.9464 44.5535 31.7692C45.615 30.8531 46.621 29.8334 47.5268 28.7634C48.7297 27.3852 48.7297 27.3852 49.7384 27.5976Z" fill="var(--fill-0, #FF5100)"/>
<path id="Vector_3" d="M5.9728 3.7741C6.19751 4.1289 6.22635 4.41514 6.23353 4.83192C5.89291 5.4002 5.5065 5.55447 4.89261 5.7184C3.86774 6.02857 3.07936 6.44287 2.54273 7.40151C1.54166 9.7625 2.31503 12.3084 3.20155 14.5758C4.94617 18.8565 7.70184 22.6653 10.6916 26.1592C10.9687 26.4839 11.2348 26.8163 11.5004 27.1505C12.1984 28.0077 12.9687 28.7981 13.7307 29.5982C14.0571 29.9422 14.3806 30.2888 14.7041 30.6356C15.5808 31.575 16.4542 32.4987 17.4298 33.3368C17.7013 33.5795 17.9567 33.8341 18.2125 34.0934C18.6121 34.4977 19.0223 34.8789 19.4537 35.249C19.7322 35.4899 20.0039 35.7375 20.276 35.9855C20.7909 36.4502 21.3211 36.8914 21.8604 37.3274C22.1594 37.5718 22.4535 37.821 22.7463 38.0728C23.6462 38.8454 24.5845 39.5622 25.5293 40.2786C25.9304 40.5835 26.3296 40.8908 26.7273 41.2001C26.7971 41.2537 26.8668 41.3072 26.9387 41.3624C27.2513 41.6064 27.466 41.8053 27.6883 42.1388C27.6668 42.5401 27.6453 42.8529 27.4276 43.1966C27.1024 43.3985 26.881 43.4425 26.4964 43.4499C25.9046 43.148 25.3951 42.7862 24.8798 42.3697C24.7333 42.2528 24.5868 42.1359 24.4403 42.0191C24.3662 41.9598 24.2922 41.9005 24.2159 41.8393C24.0013 41.6684 23.7854 41.4993 23.5687 41.331C22.6855 40.6447 21.8229 39.9387 20.9741 39.2104C20.7662 39.0321 20.5577 38.8546 20.3491 38.6771C19.6231 38.0585 18.9033 37.4346 18.1971 36.7933C18.0008 36.6152 17.8037 36.438 17.6058 36.2616C17.0898 35.8015 16.5877 35.3353 16.1039 34.8415C15.8929 34.6344 15.6749 34.4422 15.4501 34.2503C14.9155 33.7852 14.4136 33.2919 13.914 32.7897C13.8287 32.7048 13.7433 32.6199 13.6554 32.5325C13.1709 32.0471 12.7071 31.5508 12.2619 31.029C12.0684 30.8093 11.8658 30.6034 11.6568 30.3984C11.2144 29.9618 10.8096 29.4996 10.4053 29.0277C10.3 28.9062 10.1946 28.7847 10.0892 28.6632C5.61696 23.4958 -0.12056 16.481 0.0354821 9.24199C0.152669 7.63304 0.712035 6.04464 1.94257 4.95111C2.9006 4.22326 4.7598 3.02121 5.9728 3.7741Z" fill="var(--fill-0, #FF5100)"/>
<path id="Vector_4" d="M48.1265 42.6095C48.8105 43.0163 49.24 43.4993 49.4522 44.2771C49.5399 44.7319 49.5241 45.1862 49.5145 45.6475C49.5134 45.746 49.5123 45.8446 49.5112 45.9462C49.5084 46.1868 49.5041 46.4274 49.4996 46.6681C49.6162 46.6618 49.6162 46.6618 49.7352 46.6555C50.386 46.6353 50.8545 46.6404 51.4067 47.0256C52.3215 47.9192 52.4742 49.2163 52.7476 50.4226C52.7811 50.5622 52.8146 50.7019 52.8491 50.8458C53.0517 51.7396 53.1869 52.5271 52.8393 53.3968C51.7382 55.0359 49.8755 55.2007 48.0631 55.6249C47.7526 55.6977 47.4423 55.7714 47.132 55.8453C46.9338 55.8921 46.7356 55.9388 46.5374 55.9855C46.4451 56.0074 46.3527 56.0294 46.2575 56.052C45.8998 56.1353 45.5773 56.2034 45.2086 56.2034C45.2012 56.2919 45.1939 56.3803 45.1863 56.4715C45.0539 56.9195 44.8836 57.0192 44.4934 57.2761C44.1301 57.4121 43.7602 57.5052 43.3835 57.5964C43.2374 57.6343 43.2374 57.6343 43.0885 57.673C41.504 58.0732 41.504 58.0732 40.8804 57.8497C40.389 57.5183 40.1786 57.1777 40.0306 56.6093C40.002 56.5014 39.9734 56.3935 39.9439 56.2824C39.8997 56.1084 39.8997 56.1084 39.8547 55.931C39.8234 55.8104 39.7922 55.6899 39.76 55.5657C39.6942 55.3104 39.6291 55.055 39.5644 54.7995C39.4659 54.4119 39.3647 54.025 39.2631 53.6382C39.1994 53.3894 39.1358 53.1405 39.0725 52.8916C39.0423 52.7773 39.0121 52.6631 38.9811 52.5453C38.7914 51.7827 38.6776 51.0302 38.7722 50.2438C39.1782 49.6105 39.754 49.4871 40.4483 49.3201C40.544 49.2953 40.6396 49.2706 40.7382 49.2451C40.9962 49.1787 41.2547 49.1149 41.5136 49.0519C41.5933 49.0299 41.6729 49.0079 41.755 48.9852C42.1111 48.9058 42.4616 48.9257 42.8247 48.9327C42.8364 48.8443 42.8481 48.756 42.8601 48.665C43.0531 47.9092 43.7764 47.3636 44.3742 46.9064C44.5089 46.6371 44.5115 46.4779 44.5186 46.1787C44.5237 46.0323 44.5237 46.0323 44.5288 45.8828C44.535 45.6786 44.5403 45.4744 44.5447 45.2701C44.5821 44.2702 44.8494 43.5873 45.5662 42.8539C46.2618 42.3322 47.3257 42.303 48.1265 42.6095ZM46.7581 44.4034C46.5149 44.7682 46.4911 44.8396 46.4913 45.2494C46.4891 45.3919 46.4891 45.3919 46.4869 45.5372C46.4855 45.6375 46.484 45.7378 46.4825 45.8412C46.4423 46.9099 46.3325 47.72 45.521 48.4848C45.3137 48.6634 45.1057 48.8412 44.8971 49.0184C44.4624 49.4339 44.1546 49.8937 44.0167 50.4822C44.0199 51.3402 44.2776 52.1715 44.5009 52.9926C44.5345 53.1186 44.568 53.2445 44.6026 53.3742C44.6847 53.6817 44.7675 53.9891 44.851 54.2963C45.5649 54.219 46.2512 54.0897 46.9499 53.9257C47.0559 53.9008 47.1619 53.8759 47.2711 53.8503C47.4936 53.7977 47.7159 53.7448 47.9382 53.6916C48.1652 53.6377 48.3925 53.5848 48.62 53.5328C48.9504 53.4574 49.2799 53.379 49.6094 53.2999C49.7109 53.2773 49.8123 53.2547 49.9168 53.2314C50.383 53.116 50.6418 53.0313 51.0003 52.699C51.1834 52.3612 51.2125 52.2517 51.1231 51.8859C51.1019 51.7929 51.0806 51.6998 51.0587 51.6039C51.0208 51.458 51.0208 51.458 50.982 51.3091C50.9584 51.2091 50.9348 51.1091 50.9104 51.0061C50.8402 50.7115 50.7662 50.4181 50.6915 50.1246C50.6536 49.9691 50.6158 49.8136 50.5784 49.6581C50.4996 49.336 50.4184 49.0149 50.3339 48.6943C49.9543 48.5709 49.7245 48.5859 49.3431 48.6943C48.844 48.8154 48.4547 48.8282 47.95 48.6943C47.6576 48.2557 47.6784 48.0252 47.6707 47.5019C47.6689 47.421 47.6672 47.34 47.6654 47.2567C47.658 46.9107 47.6533 46.5648 47.6483 46.2188C47.6443 45.9661 47.6389 45.7134 47.6334 45.4608C47.6312 45.3095 47.629 45.1582 47.6267 45.0024C47.6298 44.6286 47.6298 44.6286 47.3541 44.4034C47.0561 44.3538 47.0561 44.3538 46.7581 44.4034ZM41.3199 51.1377C41.0592 51.2271 41.0592 51.2271 40.7984 51.3165C40.9638 52.3338 41.2048 53.3229 41.4689 54.3186C41.5076 54.4662 41.5463 54.6138 41.5862 54.7658C41.6808 55.1259 41.7758 55.4859 41.8712 55.8458C42.0211 55.8286 42.1711 55.8114 42.3256 55.7936C42.41 55.784 42.4943 55.7743 42.5812 55.7643C42.8479 55.73 42.8479 55.73 43.1823 55.6074C43.1129 54.9711 43.0058 54.3732 42.8429 53.7525C42.8219 53.6718 42.8009 53.5912 42.7793 53.508C42.713 53.2541 42.646 53.0005 42.5789 52.7468C42.5334 52.5732 42.4881 52.3995 42.4427 52.2258C42.3323 51.8034 42.2211 51.3811 42.1096 50.9589C41.8156 50.9589 41.5978 51.0424 41.3199 51.1377Z" fill="var(--fill-0, #FF5100)"/>
<path id="Vector_5" d="M12.279 35.5963C12.58 35.8601 12.8646 36.1329 13.1459 36.4176C13.2232 36.4923 13.3005 36.5669 13.3801 36.6439C14.677 37.989 15.0593 39.8529 15.053 41.662C14.9328 43.5341 14.0306 45.1691 12.6882 46.452C11.1796 47.7178 9.25179 48.2671 7.30544 48.0983C5.40537 47.817 3.73524 46.9434 2.53771 45.4091C1.36517 43.6705 0.997905 41.795 1.27733 39.7391C1.71292 37.9487 2.72888 36.3771 4.26601 35.3523C6.75103 33.8914 9.92286 33.7735 12.279 35.5963ZM4.28836 37.8851C3.31479 39.1124 3.00412 40.4783 3.13367 42.0196C3.39384 43.3632 4.13969 44.5612 5.27962 45.3323C6.48099 46.0587 7.71547 46.41 9.11801 46.1093C9.97021 45.8712 10.6704 45.5573 11.358 44.9994C11.4325 44.9396 11.507 44.8798 11.5838 44.8182C12.4988 43.999 13.0584 42.7626 13.1459 41.5428C13.1591 40.147 12.7905 38.8841 11.8348 37.8479C10.7459 36.7469 9.66286 36.2021 8.10999 36.1345C6.61571 36.17 5.30112 36.7953 4.28836 37.8851Z" fill="var(--fill-0, #FF5100)"/>
<path id="Vector_6" d="M14.5772 0.0643518C15.1711 0.582592 15.2994 1.37451 15.501 2.1055C15.5386 2.23625 15.5763 2.367 15.615 2.50172C15.8883 3.46596 15.8883 3.46597 15.8883 3.87847C16.0552 3.89552 16.0552 3.89552 16.2254 3.91292C16.8403 4.00115 17.4169 4.20287 18.004 4.39993C18.1167 4.43619 18.2293 4.47245 18.3453 4.50981C18.4533 4.54576 18.5613 4.58172 18.6726 4.61876C18.7703 4.65108 18.868 4.68341 18.9686 4.71671C19.2445 4.84039 19.3943 4.95521 19.5833 5.18957C19.7044 5.58748 19.7473 5.80513 19.575 6.18873C19.2865 6.58001 18.9383 6.82803 18.5404 7.09663C18.4694 7.1458 18.3984 7.19497 18.3253 7.24562C18.1822 7.34473 18.0387 7.44329 17.8948 7.54127C17.6666 7.69926 17.4435 7.86332 17.22 8.02781C16.8419 8.28854 16.8419 8.28854 16.6035 8.28854C16.6048 8.39437 16.606 8.50019 16.6073 8.60922C16.6114 9.00284 16.6143 9.39644 16.6166 9.79007C16.6178 9.96025 16.6194 10.1304 16.6215 10.3006C16.6244 10.5456 16.6257 10.7905 16.6268 11.0355C16.628 11.1828 16.6293 11.3301 16.6306 11.4819C16.6048 11.8455 16.5642 12.0411 16.3651 12.341C16.0711 12.5698 15.8972 12.5795 15.5229 12.5766C14.883 12.4755 14.4364 12.0344 13.9515 11.6333C13.7622 11.4807 13.5728 11.3282 13.3834 11.1757C13.2594 11.0738 13.2594 11.0738 13.1328 10.9699C12.8922 10.7735 12.8922 10.7735 12.5509 10.5532C12.0207 10.6341 11.5259 10.7743 11.0173 10.941C10.935 10.9677 10.8528 10.9945 10.768 11.022C10.6044 11.0758 10.4413 11.1309 10.2787 11.1876C9.7042 11.3781 9.22356 11.4283 8.61756 11.3875C8.31958 11.2013 8.31958 11.2013 8.14079 10.9108C8.04429 10.0997 8.34115 9.43353 8.62501 8.68337C8.71698 8.43999 8.80782 8.19619 8.89738 7.95192C8.93796 7.84488 8.97853 7.73784 9.02033 7.62755C9.10235 7.30333 9.09911 7.16559 8.97514 6.85825C8.82358 6.60616 8.82358 6.60616 8.63292 6.35495C8.56447 6.2613 8.49602 6.16765 8.4255 6.07117C8.35367 5.97445 8.28184 5.87773 8.20783 5.77808C8.06641 5.58551 7.92502 5.39291 7.78367 5.20028C7.72076 5.11531 7.65785 5.03033 7.59304 4.94278C7.2174 4.42677 7.13081 4.16422 7.18724 3.5209C7.39704 3.14127 7.48509 3.06404 7.9024 2.92494C8.15239 2.9331 8.40217 2.94845 8.65155 2.96777C10.3278 3.15972 10.3278 3.15972 11.8232 2.62231C12.143 2.24551 12.3423 1.82118 12.5509 1.37546C12.7054 1.14399 12.864 0.915141 13.0277 0.690106C13.0916 0.594846 13.1555 0.499586 13.2214 0.401439C13.5448 -0.0285415 14.0783 -0.0617844 14.5772 0.0643518ZM13.6237 3.16332C13.4431 3.3944 13.2678 3.62694 13.0948 3.86357C12.3937 4.81823 12.3937 4.81823 12.0885 4.87C11.9999 4.87375 11.9113 4.87749 11.8199 4.88135C11.6759 4.88827 11.6759 4.88827 11.5289 4.89532C11.3784 4.90085 11.3784 4.90085 11.2249 4.90649C11.073 4.91341 11.073 4.91341 10.9181 4.92046C10.6678 4.93171 10.4174 4.94158 10.1671 4.95119C10.3168 5.37209 10.4855 5.66599 10.7779 6.00156C11.0755 6.39253 11.2154 6.67882 11.1779 7.18929C11.0803 7.64069 10.9127 8.06279 10.7365 8.48875C10.6906 8.62565 10.6906 8.62565 10.6438 8.76531C10.6832 8.84398 10.7225 8.92264 10.763 9.00369C10.8552 8.96928 10.9474 8.93486 11.0424 8.8994C12.607 8.34173 12.607 8.34173 13.1469 8.52693C13.547 8.78584 13.9179 9.06327 14.2862 9.36499C14.5304 9.61212 14.5304 9.61212 14.6964 9.59965C14.6981 9.45169 14.6998 9.30373 14.7015 9.15128C14.7071 8.95558 14.7129 8.75987 14.7188 8.56417C14.7195 8.46684 14.7201 8.36951 14.7209 8.26922C14.7394 7.76138 14.7625 7.52206 15.0838 7.11153C15.379 6.88346 15.6713 6.66487 15.9852 6.46343C16.0794 6.40243 16.1736 6.34144 16.2706 6.27859C16.3411 6.23388 16.4117 6.18917 16.4843 6.1431C16.3765 5.85759 16.3765 5.85759 15.9749 5.77203C15.7301 5.69909 15.4848 5.62875 15.2384 5.56135C14.8551 5.44541 14.6148 5.35458 14.3579 5.04152C14.1999 4.66594 14.0735 4.29191 13.9589 3.90082C13.9179 3.76238 13.8769 3.62395 13.8346 3.48132C13.8043 3.37638 13.7741 3.27144 13.7429 3.16332C13.7035 3.16332 13.6642 3.16332 13.6237 3.16332Z" fill="var(--fill-0, #FF5100)"/>
<path id="Vector_7" d="M52.5993 14.3675C53.0767 14.7247 53.4909 15.1373 53.9104 15.5594C53.9771 15.525 54.0437 15.4905 54.1124 15.4551C55.109 14.9937 56.1062 14.8751 57.1663 15.206C58.1828 15.6627 58.8429 16.33 59.2666 17.3621C59.5837 18.4865 59.545 19.8625 59.0357 20.923C58.2145 22.3385 56.8501 22.8659 55.3923 23.4276C54.3026 23.8518 53.3354 24.2764 52.5993 25.2139C52.2039 25.4073 51.9946 25.4779 51.5638 25.3778C51.0895 25.0957 50.933 24.7486 50.7294 24.2529C50.2255 23.0973 49.4392 22.2759 48.5015 21.4565C47.7215 20.7195 47.0692 19.7655 46.9455 18.6826C46.9441 17.2303 47.1758 16.07 48.1891 14.9634C49.4148 13.7473 51.0955 13.511 52.5993 14.3675ZM49.3512 16.5651C48.869 17.2712 48.8064 17.9405 48.9043 18.7775C49.0769 19.1706 49.0769 19.1706 49.381 19.4927C49.4431 19.5684 49.5052 19.6442 49.5691 19.7222C49.8918 20.1081 50.2145 20.4557 50.6102 20.7665C51.2672 21.302 51.742 22.0332 52.2417 22.7108C52.717 22.5308 53.1611 22.3111 53.6124 22.0776C54.1735 21.7908 54.7332 21.5428 55.3258 21.3253C56.4917 20.8984 56.4917 20.8984 57.3074 20.0067C57.5813 19.3574 57.6118 18.6979 57.3991 18.0256C57.227 17.6427 57.0562 17.3888 56.7412 17.1089C56.1445 16.8919 55.6618 16.9144 55.08 17.1312C54.7141 17.367 54.4346 17.6153 54.1488 17.9432C54.1488 18.0219 54.1488 18.1005 54.1488 18.1816C53.5891 18.2913 53.2193 18.3566 52.7184 18.0624C52.555 17.7211 52.555 17.7211 52.4279 17.31C52.1549 16.5282 51.9148 16.1707 51.1689 15.7978C50.3348 15.7176 49.9107 15.9589 49.3512 16.5651Z" fill="var(--fill-0, #FF5100)"/>
<path id="Vector_8" d="M58.4164 5.04049C59.5382 6.09818 60.1282 7.59696 60.2266 9.12279C60.2328 9.20315 60.2389 9.28351 60.2452 9.3663C60.2747 10.0798 60.1756 10.7731 60.0702 11.4768C60.0561 11.5741 60.0421 11.6714 60.0277 11.7717C59.9273 12.3989 59.8197 13.05 59.2954 13.4658C58.9218 13.5619 58.6876 13.5287 58.3195 13.4137C58.029 13.1753 58.029 13.1753 57.8427 12.8177C57.8251 12.4505 57.8948 12.1052 57.9619 11.745C58.2677 9.89469 58.3317 8.39651 57.2766 6.77622C56.2489 5.72006 54.8305 5.41867 53.4077 5.39295C49.3887 5.36864 45.5771 6.67642 41.9523 8.33781C41.8548 8.38236 41.7574 8.42692 41.6569 8.47283C41.4788 8.55524 41.3014 8.63923 41.1249 8.72518C40.5969 8.97273 40.1876 9.05613 39.6062 9.0036C39.2603 8.83066 39.1587 8.72551 39.0251 8.36295C39.0062 7.96512 39.0356 7.79498 39.2486 7.45412C39.9785 6.88473 40.8627 6.5403 41.707 6.18026C41.7787 6.14961 41.8504 6.11895 41.9242 6.08737C44.4044 5.03241 46.973 4.16894 49.6184 3.64C49.7539 3.61096 49.8894 3.58192 50.0291 3.552C52.8762 3.03784 56.1049 3.13925 58.4164 5.04049Z" fill="var(--fill-0, #FF5100)"/>
<path id="Vector_9" d="M51.6453 32.4173C52.4774 32.5733 52.9091 33.3364 53.3736 33.9816C53.4827 34.1318 53.4827 34.1318 53.594 34.285C53.82 34.5976 54.0441 34.9113 54.2676 35.2257C54.3354 35.3211 54.4032 35.4164 54.473 35.5147C57.3882 39.6412 60.9988 45.1437 60.0931 50.4598C59.823 51.9068 59.2011 53.1245 58.0073 54.0058C57.1299 54.5932 56.1893 55.2022 55.1019 55.0114C54.7454 54.7084 54.644 54.5159 54.5581 54.0579C54.6523 53.5558 54.8144 53.4135 55.2211 53.1044C55.4104 53.0252 55.6019 52.951 55.7947 52.8809C56.7442 52.5262 57.3956 51.9172 57.8471 51.0097C58.8244 48.5625 57.7432 45.7222 56.7787 43.4474C55.3954 40.2901 53.4423 37.4098 51.3287 34.6996C51.2414 34.5856 51.1542 34.4716 51.0642 34.3541C50.9908 34.2612 50.9174 34.1682 50.8417 34.0724C50.6491 33.7166 50.6464 33.4793 50.6918 33.0803C50.985 32.6835 51.1562 32.509 51.6453 32.4173Z" fill="var(--fill-0, #FF5100)"/>
<path id="Vector_10" d="M32.9183 19.6267C33.8019 20.3869 34.513 21.3981 34.6228 22.5785C34.717 24.0264 34.5361 25.1504 33.6041 26.3089C32.8088 27.1938 31.8823 27.7844 30.6797 27.8686C29.2317 27.9141 28.1316 27.742 26.9809 26.7856C25.9714 25.809 25.5369 24.7142 25.491 23.3142C25.5229 21.9215 26.0765 20.7866 27.0694 19.8195C28.7582 18.4793 31.1452 18.3534 32.9183 19.6267ZM27.8078 21.8765C27.447 22.5047 27.3276 23.1889 27.4503 23.9027C27.6976 24.6596 28.0651 25.233 28.733 25.6757C29.3617 25.9917 30.005 26.1192 30.6983 25.9737C31.5541 25.6599 32.1888 25.1717 32.59 24.3413C32.8184 23.645 32.7947 22.8663 32.5458 22.1819C32.4769 22.0811 32.4081 21.9803 32.3372 21.8765C32.2757 21.7757 32.2143 21.6749 32.151 21.571C31.6007 21.0208 30.9043 20.6536 30.1172 20.625C29.1204 20.6934 28.4134 21.077 27.8078 21.8765Z" fill="var(--fill-0, #FF5100)"/>
<path id="Vector_11" d="M11.3577 40.47C11.6632 40.6935 11.6632 40.6935 11.8345 41.066C11.9194 42.0651 11.5266 42.9668 10.8917 43.7198C10.1305 44.4657 9.18246 44.8868 8.10971 44.9248C7.12378 44.8262 6.19189 44.5794 5.45766 43.8818C5.23496 43.4921 5.19602 43.2957 5.27887 42.8538C5.55667 42.478 5.73583 42.2902 6.19517 42.1834C6.58857 42.2576 6.82327 42.3732 7.17106 42.5633C7.77472 42.8823 8.07761 42.921 8.73548 42.7346C9.32326 42.4352 9.56482 42.1512 9.80822 41.5427C9.84755 41.4173 9.88688 41.292 9.92741 41.1628C10.1834 40.4428 10.6127 40.3174 11.3577 40.47Z" fill="var(--fill-0, #FF5100)"/>
<path id="Vector_12" d="M34.0047 46.1914C34.3782 46.3461 34.3782 46.3461 34.7515 46.5616C34.8871 46.6395 35.0226 46.7175 35.1622 46.7979C35.2315 46.839 35.3007 46.8802 35.3721 46.9226C35.5838 47.048 35.7974 47.1698 36.0114 47.2914C37.1835 47.9755 37.1835 47.9755 37.4613 48.5753C37.4526 49.0041 37.3895 49.2237 37.141 49.5735C36.7689 49.8349 36.6028 49.8186 36.1502 49.7672C35.7846 49.6162 35.4483 49.4228 35.1073 49.2234C34.9654 49.1423 34.9654 49.1423 34.8207 49.0597C32.924 47.9634 32.924 47.9634 32.6936 47.5025C32.6513 47.0453 32.6284 46.7699 32.8798 46.3777C33.2792 46.1217 33.5351 46.1548 34.0047 46.1914Z" fill="var(--fill-0, #FF5100)"/>
<path id="Vector_13" d="M10.2859 38.0863C10.5765 38.28 10.5765 38.28 10.7627 38.5631C10.8349 38.9965 10.8189 39.1928 10.5765 39.5613C10.1717 39.8312 9.92823 39.8316 9.45158 39.755C9.15359 39.5017 9.15359 39.5017 8.9748 39.159C8.98239 38.7795 9.03316 38.5453 9.22809 38.2204C9.59083 38.0028 9.87382 38.0357 10.2859 38.0863Z" fill="var(--fill-0, #FF5100)"/>
<path id="Vector_14" d="M5.34755 39.8818C5.75727 39.9935 5.75727 39.9935 5.98821 40.1276C6.19745 40.4969 6.17293 40.7717 6.11485 41.1854C5.86157 41.4834 5.86157 41.4834 5.51889 41.6622C5.13936 41.6546 4.90512 41.6039 4.58024 41.4089C4.36259 41.0462 4.39554 40.7632 4.44615 40.3511C4.71653 39.9185 4.83398 39.8728 5.34755 39.8818Z" fill="var(--fill-0, #FF5100)"/>
</g>
</svg>
