<svg width="777" height="777" viewBox="0 0 777 777" fill="none" xmlns="http://www.w3.org/2000/svg">
<g clip-path="url(#clip0_919_1618)">
<path d="M696.479 483.791L675.029 484.051L674.919 346.631L668.109 353.421L595.219 439.801L515.359 346.051L515.109 484.011H493.899L493.859 293.361L500.879 293.501L559.559 363.621L595.259 405.541L608.379 390.291L685.999 297.341C688.969 293.791 692.489 291.391 696.539 294.011L696.459 483.801L696.479 483.791Z" fill="#30261B"/>
<path d="M199.47 483.99L83.4704 484.08L83.4504 464.16L196.34 463.64C213.14 463.56 225.13 446.75 225.42 431.63C225.73 415.43 213.41 398.6 196.48 398.37L129.19 397.46C97.3104 395.18 74.5704 366.43 80.4304 335.03C84.8504 311.34 105.82 292.28 130.41 292.23L243.72 291.98L243.79 311.96L128.56 312.04C111.39 315.32 100.26 329.61 101.09 346.25C101.56 362.63 114.22 377.6 131.53 377.83L200.03 378.77C224.22 380.96 243.08 400.65 246.21 423.88C250.28 454.05 229.7 479.66 199.46 483.99H199.47Z" fill="#30261B"/>
<path d="M296.898 292.09L296.895 312.23L441.265 312.256L441.268 292.116L296.898 292.09Z" fill="white"/>
<path d="M441.269 378.131H296.949V398.221H441.269V378.131Z" fill="white"/>
<path d="M441.191 464.061H297.051V484.111H441.191V464.061Z" fill="white"/>
<path d="M388.04 774.08C601.244 774.08 774.08 601.244 774.08 388.04C774.08 174.836 601.244 2 388.04 2C174.836 2 2 174.836 2 388.04C2 601.244 174.836 774.08 388.04 774.08Z" stroke="black" stroke-width="4" stroke-miterlimit="10"/>
</g>
<defs>
<clipPath id="clip0_919_1618">
<rect width="776.09" height="776.09" fill="white"/>
</clipPath>
</defs>
</svg>
