<svg width="793" height="793" viewBox="0 0 793 793" fill="none" xmlns="http://www.w3.org/2000/svg">
<path d="M704.479 491.791L683.029 492.051L682.919 354.631L676.109 361.421L603.219 447.801L523.359 354.051L523.109 492.011H501.899L501.859 301.361L508.879 301.501L567.559 371.621L603.259 413.541L616.379 398.291L693.999 305.341C696.969 301.791 700.489 299.391 704.539 302.011L704.459 491.801L704.479 491.791Z" fill="#30261B"/>
<path d="M207.47 491.99L91.4704 492.08L91.4504 472.16L204.34 471.64C221.14 471.56 233.13 454.75 233.42 439.63C233.73 423.43 221.41 406.6 204.48 406.37L137.19 405.46C105.31 403.18 82.5704 374.43 88.4304 343.03C92.8504 319.34 113.82 300.28 138.41 300.23L251.72 299.98L251.79 319.96L136.56 320.04C119.39 323.32 108.26 337.61 109.09 354.25C109.56 370.63 122.22 385.6 139.53 385.83L208.03 386.77C232.22 388.96 251.08 408.65 254.21 431.88C258.28 462.05 237.7 487.66 207.46 491.99H207.47Z" fill="#30261B"/>
<path d="M304.898 300.09L304.895 320.23L449.265 320.256L449.268 300.116L304.898 300.09Z" fill="white"/>
<path d="M449.269 386.131H304.949V406.221H449.269V386.131Z" fill="white"/>
<path d="M449.191 472.061H305.051V492.111H449.191V472.061Z" fill="white"/>
<path d="M396.04 782.08C609.244 782.08 782.08 609.244 782.08 396.04C782.08 182.836 609.244 10 396.04 10C182.836 10 10 182.836 10 396.04C10 609.244 182.836 782.08 396.04 782.08Z" stroke="black" stroke-width="20" stroke-miterlimit="10"/>
</svg>
