<svg width="806" height="387" viewBox="0 0 806 387" fill="none" xmlns="http://www.w3.org/2000/svg">
<path d="M6.94364 297.601V217.71H60.7764V231.636H23.8346V250.672H58.0067V264.599H23.8346V283.674H60.9324V297.601H6.94364ZM102.526 297.601H74.2053V217.71H102.76C110.796 217.71 117.714 219.309 123.513 222.508C129.312 225.681 133.772 230.245 136.893 236.2C140.04 242.155 141.613 249.281 141.613 257.577C141.613 265.899 140.04 273.051 136.893 279.032C133.772 285.014 129.286 289.604 123.435 292.802C117.61 296.001 110.64 297.601 102.526 297.601ZM91.0963 283.128H101.824C106.817 283.128 111.017 282.244 114.424 280.476C117.857 278.681 120.431 275.911 122.148 272.167C123.89 268.396 124.761 263.533 124.761 257.577C124.761 251.674 123.89 246.85 122.148 243.105C120.431 239.36 117.87 236.603 114.463 234.835C111.056 233.066 106.856 232.182 101.863 232.182H91.0963V283.128ZM207.1 243.534C206.554 241.635 205.787 239.958 204.798 238.502C203.81 237.019 202.601 235.771 201.171 234.757C199.766 233.716 198.154 232.923 196.333 232.377C194.539 231.831 192.55 231.558 190.365 231.558C186.282 231.558 182.693 232.572 179.598 234.601C176.53 236.629 174.137 239.581 172.421 243.456C170.704 247.305 169.846 252.012 169.846 257.577C169.846 263.142 170.691 267.876 172.382 271.776C174.072 275.677 176.465 278.655 179.559 280.71C182.654 282.738 186.308 283.752 190.521 283.752C194.344 283.752 197.608 283.076 200.312 281.724C203.043 280.346 205.124 278.408 206.554 275.911C208.01 273.415 208.738 270.463 208.738 267.056L212.171 267.563H191.574V254.846H225.005V264.911C225.005 271.933 223.523 277.966 220.558 283.011C217.593 288.03 213.511 291.905 208.309 294.636C203.108 297.341 197.153 298.693 190.443 298.693C182.953 298.693 176.374 297.041 170.704 293.739C165.035 290.41 160.614 285.69 157.441 279.578C154.295 273.441 152.721 266.159 152.721 257.733C152.721 251.258 153.657 245.484 155.53 240.413C157.428 235.316 160.081 230.999 163.488 227.462C166.894 223.925 170.86 221.234 175.385 219.387C179.911 217.541 184.813 216.617 190.092 216.617C194.617 216.617 198.83 217.281 202.731 218.607C206.632 219.907 210.091 221.754 213.107 224.146C216.15 226.539 218.634 229.386 220.558 232.689C222.483 235.966 223.718 239.581 224.264 243.534H207.1ZM237.693 297.601V217.71H291.526V231.636H254.584V250.672H288.756V264.599H254.584V283.674H291.682V297.601H237.693Z" fill="#FF5100"/>
<path d="M36.1618 218.479C30.5229 218.479 25.4698 217.563 21.0025 215.733C16.5353 213.902 12.9469 211.192 10.2372 207.604C7.60082 204.015 6.20939 199.695 6.06292 194.641H26.0556C26.3486 197.498 27.3372 199.695 29.0216 201.232C30.7059 202.697 32.9029 203.429 35.6126 203.429C38.3954 203.429 40.5924 202.807 42.2036 201.562C43.8147 200.244 44.6203 198.45 44.6203 196.179C44.6203 194.275 43.9612 192.701 42.643 191.456C41.398 190.211 39.8235 189.186 37.9194 188.38C36.0886 187.574 33.4522 186.659 30.0102 185.634C25.0304 184.096 20.9659 182.558 17.8169 181.02C14.6678 179.482 11.9582 177.212 9.68797 174.209C7.41774 171.207 6.28262 167.289 6.28262 162.455C6.28262 155.279 8.8824 149.676 14.082 145.648C19.2815 141.547 26.0556 139.497 34.4042 139.497C42.8993 139.497 49.7466 141.547 54.9462 145.648C60.1457 149.676 62.9286 155.315 63.2948 162.565H42.9725C42.8261 160.075 41.9106 158.135 40.2263 156.743C38.5419 155.279 36.3815 154.546 33.7451 154.546C31.4749 154.546 29.6441 155.169 28.2526 156.414C26.8612 157.585 26.1655 159.306 26.1655 161.577C26.1655 164.067 27.3372 166.007 29.6807 167.399C32.0241 168.79 35.6858 170.291 40.6657 171.903C45.6455 173.587 49.6734 175.198 52.7492 176.736C55.8982 178.274 58.6078 180.507 60.8781 183.437C63.1483 186.366 64.2834 190.138 64.2834 194.751C64.2834 199.145 63.1483 203.137 60.8781 206.725C58.6811 210.313 55.4588 213.169 51.2113 215.293C46.9637 217.417 41.9473 218.479 36.1618 218.479ZM112.314 218.479C105.064 218.479 98.3993 216.795 92.3209 213.426C86.3158 210.057 81.519 205.37 77.9306 199.365C74.4154 193.287 72.6578 186.476 72.6578 178.933C72.6578 171.39 74.4154 164.616 77.9306 158.611C81.519 152.606 86.3158 147.919 92.3209 144.55C98.3993 141.181 105.064 139.497 112.314 139.497C119.564 139.497 126.191 141.181 132.196 144.55C138.275 147.919 143.035 152.606 146.477 158.611C149.992 164.616 151.75 171.39 151.75 178.933C151.75 186.476 149.992 193.287 146.477 199.365C142.962 205.37 138.202 210.057 132.196 213.426C126.191 216.795 119.564 218.479 112.314 218.479ZM112.314 201.342C118.465 201.342 123.372 199.292 127.034 195.191C130.768 191.09 132.636 185.67 132.636 178.933C132.636 172.122 130.768 166.703 127.034 162.675C123.372 158.574 118.465 156.524 112.314 156.524C106.089 156.524 101.109 158.537 97.374 162.565C93.7123 166.593 91.8815 172.049 91.8815 178.933C91.8815 185.744 93.7123 191.199 97.374 195.301C101.109 199.328 106.089 201.342 112.314 201.342ZM180.655 140.595V186.732C180.655 191.346 181.79 194.898 184.06 197.388C186.33 199.878 189.663 201.123 194.057 201.123C198.451 201.123 201.819 199.878 204.163 197.388C206.506 194.898 207.678 191.346 207.678 186.732V140.595H226.462V186.622C226.462 193.506 224.998 199.328 222.068 204.089C219.139 208.849 215.184 212.437 210.205 214.854C205.298 217.271 199.805 218.479 193.727 218.479C187.649 218.479 182.193 217.307 177.359 214.964C172.599 212.547 168.828 208.959 166.045 204.198C163.262 199.365 161.871 193.506 161.871 186.622V140.595H180.655ZM295.127 140.595V155.645H274.695V217.71H255.911V155.645H235.479V140.595H295.127ZM371.343 140.595V217.71H352.559V185.963H323.339V217.71H304.555V140.595H323.339V170.804H352.559V140.595H371.343ZM403.688 155.645V171.243H428.844V185.744H403.688V202.661H432.139V217.71H384.904V140.595H432.139V155.645H403.688ZM483.661 217.71L467.623 188.6H463.119V217.71H444.334V140.595H475.861C481.94 140.595 487.103 141.657 491.35 143.781C495.671 145.905 498.893 148.834 501.017 152.569C503.141 156.231 504.203 160.332 504.203 164.872C504.203 169.998 502.738 174.576 499.809 178.603C496.953 182.631 492.705 185.487 487.066 187.172L504.862 217.71H483.661ZM463.119 175.308H474.763C478.205 175.308 480.768 174.466 482.452 172.781C484.21 171.097 485.089 168.717 485.089 165.641C485.089 162.712 484.21 160.405 482.452 158.721C480.768 157.036 478.205 156.194 474.763 156.194H463.119V175.308ZM584.98 217.71H566.196L534.779 170.145V217.71H515.994V140.595H534.779L566.196 188.38V140.595H584.98V217.71Z" fill="#FFFFF0"/>
<path d="M47.6485 323.411V363.72H42.3477V333.663L28.9502 363.72H25.2222L11.7665 333.604V363.72H6.46572V323.411H12.1742L27.0862 356.73L41.9982 323.411H47.6485ZM80.6371 354.691H62.9291L59.6671 363.72H54.0751L68.7541 323.352H74.8703L89.4911 363.72H83.8991L80.6371 354.691ZM79.1226 350.38L71.7831 329.876L64.4436 350.38H79.1226ZM117.266 363.72L107.597 347.118H101.189V363.72H95.8886V323.119H108.995C112.063 323.119 114.645 323.644 116.742 324.692C118.878 325.741 120.47 327.158 121.519 328.944C122.567 330.731 123.091 332.77 123.091 335.061C123.091 337.857 122.276 340.323 120.645 342.458C119.053 344.594 116.645 346.012 113.422 346.711L123.616 363.72H117.266ZM101.189 342.866H108.995C111.868 342.866 114.024 342.167 115.461 340.769C116.897 339.332 117.616 337.43 117.616 335.061C117.616 332.653 116.897 330.789 115.461 329.469C114.063 328.148 111.907 327.488 108.995 327.488H101.189V342.866ZM153.346 363.72L136.629 345.196V363.72H131.328V323.119H136.629V341.934L153.405 323.119H160.103L141.696 343.449L160.278 363.72H153.346ZM171.499 327.43V341.002H186.294V345.371H171.499V359.351H188.042V363.72H166.198V323.061H188.042V327.43H171.499ZM221.052 323.119V327.43H209.984V363.72H204.684V327.43H193.558V323.119H221.052ZM232.878 323.119V363.72H227.577V323.119H232.878ZM273.833 363.72H268.532L247.213 331.391V363.72H241.912V323.061H247.213L268.532 355.332V323.061H273.833V363.72ZM313.625 334.886C312.499 332.517 310.868 330.692 308.732 329.41C306.596 328.09 304.111 327.43 301.276 327.43C298.441 327.43 295.878 328.09 293.587 329.41C291.334 330.692 289.548 332.556 288.228 335.002C286.946 337.41 286.306 340.206 286.306 343.39C286.306 346.575 286.946 349.371 288.228 351.778C289.548 354.186 291.334 356.05 293.587 357.37C295.878 358.652 298.441 359.293 301.276 359.293C305.237 359.293 308.499 358.108 311.062 355.739C313.625 353.371 315.12 350.167 315.547 346.128H299.354V341.818H321.197V345.895C320.887 349.235 319.838 352.303 318.052 355.099C316.265 357.856 313.916 360.05 311.004 361.681C308.091 363.273 304.848 364.069 301.276 364.069C297.509 364.069 294.072 363.195 290.966 361.448C287.859 359.662 285.393 357.196 283.568 354.05C281.781 350.905 280.888 347.351 280.888 343.39C280.888 339.429 281.781 335.876 283.568 332.731C285.393 329.546 287.859 327.08 290.966 325.333C294.072 323.547 297.509 322.653 301.276 322.653C305.586 322.653 309.392 323.721 312.693 325.857C316.032 327.993 318.46 331.003 319.974 334.886H313.625Z" fill="#FF5100"/>
<path d="M56.8111 0.770508V11.6605H16.7811V79.0905H5.87109V0.770508H56.8111Z" fill="#FFFFF0"/>
<path d="M754.469 357.94V347.05H794.499V279.62H805.409V357.94H754.469Z" fill="#FFFFF0"/>
<path d="M754.602 0V10.89H794.632V78.32H805.542V0H754.602Z" fill="#FFFFF0"/>
</svg>
